solid OpenSCAD_Model
  facet normal -1 0 0
    outer loop
      vertex 0 0 0
      vertex 0 0 2
      vertex 0 250 0
    endloop
  endfacet
  facet normal -1 0 0
    outer loop
      vertex 0 250 0
      vertex 0 0 2
      vertex 0 250 2
    endloop
  endfacet
  facet normal 0 -1 0
    outer loop
      vertex 0 0 2
      vertex 0 0 0
      vertex 20 0 0
    endloop
  endfacet
  facet normal 0 -1 0
    outer loop
      vertex 17 0 2
      vertex 0 0 2
      vertex 20 0 0
    endloop
  endfacet
  facet normal 0 -1 0
    outer loop
      vertex 0 0 40
      vertex 0 0 38
      vertex 20 0 40
    endloop
  endfacet
  facet normal 0 -1 0
    outer loop
      vertex 0 0 38
      vertex 17 0 38
      vertex 20 0 40
    endloop
  endfacet
  facet normal 0 -1 0
    outer loop
      vertex 20 0 40
      vertex 17 0 2
      vertex 20 0 0
    endloop
  endfacet
  facet normal 0 -1 0
    outer loop
      vertex 17 0 38
      vertex 17 0 2
      vertex 20 0 40
    endloop
  endfacet
  facet normal 0 0 -1
    outer loop
      vertex 0 0 0
      vertex 0 250 0
      vertex 20 0 0
    endloop
  endfacet
  facet normal 0 0 -1
    outer loop
      vertex 20 0 0
      vertex 0 250 0
      vertex 20 250 0
    endloop
  endfacet
  facet normal 0 1 0
    outer loop
      vertex 0 250 0
      vertex 0 250 2
      vertex 20 250 0
    endloop
  endfacet
  facet normal 0 1 0
    outer loop
      vertex 20 250 0
      vertex 0 250 2
      vertex 17 250 2
    endloop
  endfacet
  facet normal 0 1 0
    outer loop
      vertex 20 250 0
      vertex 17 250 2
      vertex 17 250 38
    endloop
  endfacet
  facet normal 0 1 0
    outer loop
      vertex 17 250 38
      vertex 0 250 38
      vertex 0 250 40
    endloop
  endfacet
  facet normal 0 1 0
    outer loop
      vertex 17 250 38
      vertex 0 250 40
      vertex 20 250 40
    endloop
  endfacet
  facet normal 0 1 0
    outer loop
      vertex 17 250 38
      vertex 20 250 40
      vertex 20 250 0
    endloop
  endfacet
  facet normal 0 0 1
    outer loop
      vertex 17 0 2
      vertex 17 250 2
      vertex 0 250 2
    endloop
  endfacet
  facet normal 0 0 1
    outer loop
      vertex 0 0 2
      vertex 17 0 2
      vertex 0 250 2
    endloop
  endfacet
  facet normal -1 0 0
    outer loop
      vertex 17 250 38
      vertex 17 250 2
      vertex 17 0 38
    endloop
  endfacet
  facet normal -1 0 0
    outer loop
      vertex 17 0 38
      vertex 17 250 2
      vertex 17 0 2
    endloop
  endfacet
  facet normal 0 0 -1
    outer loop
      vertex 17 250 38
      vertex 17 0 38
      vertex 0 250 38
    endloop
  endfacet
  facet normal 0 0 -1
    outer loop
      vertex 0 250 38
      vertex 17 0 38
      vertex 0 0 38
    endloop
  endfacet
  facet normal -1 0 0
    outer loop
      vertex 0 0 38
      vertex 0 0 40
      vertex 0 250 38
    endloop
  endfacet
  facet normal -1 0 0
    outer loop
      vertex 0 250 38
      vertex 0 0 40
      vertex 0 250 40
    endloop
  endfacet
  facet normal 0 0 1
    outer loop
      vertex 0 250 40
      vertex 0 0 40
      vertex 20 0 40
    endloop
  endfacet
  facet normal 0 0 1
    outer loop
      vertex 20 250 40
      vertex 0 250 40
      vertex 20 0 40
    endloop
  endfacet
  facet normal 1 0 0
    outer loop
      vertex 20 0 40
      vertex 20 0 0
      vertex 20 250 0
    endloop
  endfacet
  facet normal 1 0 0
    outer loop
      vertex 20 250 40
      vertex 20 0 40
      vertex 20 250 0
    endloop
  endfacet
endsolid OpenSCAD_Model
