solid OpenSCAD_Model
  facet normal 0 0 -1
    outer loop
      vertex -5.5 0 0
      vertex -5.47786 0.493016 0
      vertex -5.47786 -0.493016 0
    endloop
  endfacet
  facet normal 0 0 -1
    outer loop
      vertex -5.47786 -0.493016 0
      vertex -5.47786 0.493016 0
      vertex -5.41161 0.982063 0
    endloop
  endfacet
  facet normal 0 0 -1
    outer loop
      vertex -5.47786 -0.493016 0
      vertex -5.41161 0.982063 0
      vertex -5.3018 1.4632 0
    endloop
  endfacet
  facet normal 0 0 -1
    outer loop
      vertex -5.47786 -0.493016 0
      vertex -5.3018 1.4632 0
      vertex -5.14929 1.93256 0
    endloop
  endfacet
  facet normal 0 0 -1
    outer loop
      vertex -5.47786 -0.493016 0
      vertex -5.14929 1.93256 0
      vertex -4.95533 2.38636 0
    endloop
  endfacet
  facet normal 0 0 -1
    outer loop
      vertex -5.47786 -0.493016 0
      vertex -4.95533 2.38636 0
      vertex -4.72147 2.82095 0
    endloop
  endfacet
  facet normal 0 0 -1
    outer loop
      vertex -5.47786 -0.493016 0
      vertex -4.72147 2.82095 0
      vertex -4.44959 3.23282 0
    endloop
  endfacet
  facet normal 0 0 -1
    outer loop
      vertex -5.47786 -0.493016 0
      vertex -4.44959 3.23282 0
      vertex -4.14189 3.61866 0
    endloop
  endfacet
  facet normal 0 0 -1
    outer loop
      vertex -5.47786 -0.493016 0
      vertex -4.14189 3.61866 0
      vertex -3.80084 3.97537 0
    endloop
  endfacet
  facet normal 0 0 -1
    outer loop
      vertex -5.47786 -0.493016 0
      vertex -3.80084 3.97537 0
      vertex -3.42919 4.30007 0
    endloop
  endfacet
  facet normal 0 0 -1
    outer loop
      vertex -5.47786 -0.493016 0
      vertex -3.42919 4.30007 0
      vertex -3.02993 4.59015 0
    endloop
  endfacet
  facet normal 0 0 -1
    outer loop
      vertex -5.47786 -0.493016 0
      vertex -3.02993 4.59015 0
      vertex -2.60628 4.84328 0
    endloop
  endfacet
  facet normal 0 0 -1
    outer loop
      vertex -5.47786 -0.493016 0
      vertex -2.60628 4.84328 0
      vertex -2.16164 5.0574 0
    endloop
  endfacet
  facet normal 0 0 -1
    outer loop
      vertex -5.47786 -0.493016 0
      vertex -2.16164 5.0574 0
      vertex -2 5.11807 0
    endloop
  endfacet
  facet normal 0 0 -1
    outer loop
      vertex -2.18221 2.73641 0
      vertex -2 5.11807 0
      vertex -2 2.8688 0
    endloop
  endfacet
  facet normal 0 0 -1
    outer loop
      vertex -2.41872 2.52978 0
      vertex -2 5.11807 0
      vertex -2.18221 2.73641 0
    endloop
  endfacet
  facet normal 0 0 -1
    outer loop
      vertex 10.5 7.5 0
      vertex 12.5 -7.5 0
      vertex 10.5 -7.5 0
    endloop
  endfacet
  facet normal 0 0 -1
    outer loop
      vertex -5.47786 -0.493016 0
      vertex -2 5.11807 0
      vertex -2.41872 2.52978 0
    endloop
  endfacet
  facet normal 0 0 -1
    outer loop
      vertex -5.47786 -0.493016 0
      vertex -2.41872 2.52978 0
      vertex -2.63575 2.30279 0
    endloop
  endfacet
  facet normal 0 0 -1
    outer loop
      vertex 1.69959 -5.23081 0
      vertex -1.65854 -3.08208 0
      vertex -1.37559 -3.21835 0
    endloop
  endfacet
  facet normal 0 0 -1
    outer loop
      vertex 10.5 7.5 0
      vertex 12.5 9.5 0
      vertex 12.5 -7.5 0
    endloop
  endfacet
  facet normal 0 0 -1
    outer loop
      vertex -5.47786 -0.493016 0
      vertex -2.83156 2.05725 0
      vertex -3.00457 1.79515 0
    endloop
  endfacet
  facet normal 0 0 -1
    outer loop
      vertex -3.00457 1.79515 0
      vertex -3.15339 1.51859 0
      vertex -5.47786 -0.493016 0
    endloop
  endfacet
  facet normal 0 0 -1
    outer loop
      vertex -3.15339 1.51859 0
      vertex -3.27682 1.22981 0
      vertex -5.47786 -0.493016 0
    endloop
  endfacet
  facet normal 0 0 -1
    outer loop
      vertex -3.27682 1.22981 0
      vertex -3.37387 0.931129 0
      vertex -5.47786 -0.493016 0
    endloop
  endfacet
  facet normal 0 0 -1
    outer loop
      vertex -3.37387 0.931129 0
      vertex -3.44375 0.624949 0
      vertex -5.47786 -0.493016 0
    endloop
  endfacet
  facet normal 0 0 -1
    outer loop
      vertex -3.44375 0.624949 0
      vertex -3.48591 0.313738 0
      vertex -5.47786 -0.493016 0
    endloop
  endfacet
  facet normal 0 0 -1
    outer loop
      vertex -3.48591 0.313738 0
      vertex -3.5 0 0
      vertex -5.47786 -0.493016 0
    endloop
  endfacet
  facet normal 0 0 -1
    outer loop
      vertex -3.5 0 0
      vertex -3.48591 -0.313738 0
      vertex -5.47786 -0.493016 0
    endloop
  endfacet
  facet normal 0 0 -1
    outer loop
      vertex -3.48591 -0.313738 0
      vertex -3.44375 -0.624949 0
      vertex -5.47786 -0.493016 0
    endloop
  endfacet
  facet normal 0 0 -1
    outer loop
      vertex -3.44375 -0.624949 0
      vertex -3.37387 -0.931129 0
      vertex -5.47786 -0.493016 0
    endloop
  endfacet
  facet normal 0 0 -1
    outer loop
      vertex -3.37387 -0.931129 0
      vertex -3.27682 -1.22981 0
      vertex -5.47786 -0.493016 0
    endloop
  endfacet
  facet normal 0 0 -1
    outer loop
      vertex -3.27682 -1.22981 0
      vertex -3.15339 -1.51859 0
      vertex -5.47786 -0.493016 0
    endloop
  endfacet
  facet normal 0 0 -1
    outer loop
      vertex -3.15339 -1.51859 0
      vertex -3.00457 -1.79515 0
      vertex -5.47786 -0.493016 0
    endloop
  endfacet
  facet normal 0 0 -1
    outer loop
      vertex -3.00457 -1.79515 0
      vertex -2.83156 -2.05725 0
      vertex -5.47786 -0.493016 0
    endloop
  endfacet
  facet normal 0 0 -1
    outer loop
      vertex -2.83156 -2.05725 0
      vertex -2.63575 -2.30279 0
      vertex -5.47786 -0.493016 0
    endloop
  endfacet
  facet normal 0 0 -1
    outer loop
      vertex -2.63575 -2.30279 0
      vertex -2.41872 -2.52978 0
      vertex -5.47786 -0.493016 0
    endloop
  endfacet
  facet normal 0 0 -1
    outer loop
      vertex -2.41872 -2.52978 0
      vertex -2.18221 -2.73641 0
      vertex -5.47786 -0.493016 0
    endloop
  endfacet
  facet normal 0 0 -1
    outer loop
      vertex -2.18221 -2.73641 0
      vertex -1.92814 -2.92101 0
      vertex -5.47786 -0.493016 0
    endloop
  endfacet
  facet normal 0 0 -1
    outer loop
      vertex 5.5 -7.5 0
      vertex 3.5 0 0
      vertex 5.5 7.5 0
    endloop
  endfacet
  facet normal 0 0 -1
    outer loop
      vertex 5.5 -7.5 0
      vertex 3.48591 -0.313738 0
      vertex 3.5 0 0
    endloop
  endfacet
  facet normal 0 0 -1
    outer loop
      vertex 5.5 -7.5 0
      vertex 3.44375 -0.624949 0
      vertex 3.48591 -0.313738 0
    endloop
  endfacet
  facet normal 0 0 -1
    outer loop
      vertex 5.5 -7.5 0
      vertex 3.15339 -1.51859 0
      vertex 3.27682 -1.22981 0
    endloop
  endfacet
  facet normal 0 0 -1
    outer loop
      vertex 5.5 -7.5 0
      vertex 3.00457 -1.79515 0
      vertex 3.15339 -1.51859 0
    endloop
  endfacet
  facet normal 0 0 -1
    outer loop
      vertex 5.5 -7.5 0
      vertex 2.83156 -2.05725 0
      vertex 3.00457 -1.79515 0
    endloop
  endfacet
  facet normal 0 0 -1
    outer loop
      vertex 5.5 -7.5 0
      vertex 2.63575 -2.30279 0
      vertex 2.83156 -2.05725 0
    endloop
  endfacet
  facet normal 0 0 -1
    outer loop
      vertex 5.5 -7.5 0
      vertex 3.5 -4.23821 0
      vertex 2.63575 -2.30279 0
    endloop
  endfacet
  facet normal 0 0 -1
    outer loop
      vertex 3.5 -4.23821 0
      vertex 1.92814 -2.92101 0
      vertex 2.18221 -2.73641 0
    endloop
  endfacet
  facet normal 0 0 -1
    outer loop
      vertex 3.5 -4.23821 0
      vertex 1.65854 -3.08208 0
      vertex 1.92814 -2.92101 0
    endloop
  endfacet
  facet normal 0 0 -1
    outer loop
      vertex 3.5 -4.23821 0
      vertex 1.37559 -3.21835 0
      vertex 1.65854 -3.08208 0
    endloop
  endfacet
  facet normal 0 0 -1
    outer loop
      vertex 0.738283 -5.45022 0
      vertex -5.47786 -0.493016 0
      vertex -1.92814 -2.92101 0
    endloop
  endfacet
  facet normal 0 0 -1
    outer loop
      vertex 0.738283 -5.45022 0
      vertex -1.92814 -2.92101 0
      vertex 1.22386 -5.3621 0
    endloop
  endfacet
  facet normal 0 0 -1
    outer loop
      vertex 3.02993 -4.59015 0
      vertex 0.778823 -3.41225 0
      vertex 3.42919 -4.30007 0
    endloop
  endfacet
  facet normal 0 0 -1
    outer loop
      vertex 3.02993 -4.59015 0
      vertex 0.469816 -3.46832 0
      vertex 0.778823 -3.41225 0
    endloop
  endfacet
  facet normal 0 0 -1
    outer loop
      vertex 10.5 7.5 0
      vertex 3.5 9.5 0
      vertex 12.5 9.5 0
    endloop
  endfacet
  facet normal 0 0 -1
    outer loop
      vertex 3.5 -4.23821 0
      vertex 2.18221 -2.73641 0
      vertex 2.41872 -2.52978 0
    endloop
  endfacet
  facet normal 0 0 -1
    outer loop
      vertex 3.5 -4.23821 0
      vertex 2.41872 -2.52978 0
      vertex 2.63575 -2.30279 0
    endloop
  endfacet
  facet normal 0 0 -1
    outer loop
      vertex 5.5 7.5 0
      vertex 3.5 9.5 0
      vertex 10.5 7.5 0
    endloop
  endfacet
  facet normal 0 0 -1
    outer loop
      vertex 2.60628 -4.84328 0
      vertex -1.08156 -3.3287 0
      vertex 3.02993 -4.59015 0
    endloop
  endfacet
  facet normal 0 0 -1
    outer loop
      vertex 3.5 0 0
      vertex 3.5 9.5 0
      vertex 5.5 7.5 0
    endloop
  endfacet
  facet normal 0 0 -1
    outer loop
      vertex 3.5 -4.23821 0
      vertex 5.5 -7.5 0
      vertex 3.5 -7.5 0
    endloop
  endfacet
  facet normal 0 0 -1
    outer loop
      vertex 5.5 -7.5 0
      vertex 3.27682 -1.22981 0
      vertex 3.37387 -0.931129 0
    endloop
  endfacet
  facet normal 0 0 -1
    outer loop
      vertex 1.08156 -3.3287 0
      vertex 3.5 -4.23821 0
      vertex 0.778823 -3.41225 0
    endloop
  endfacet
  facet normal 0 0 -1
    outer loop
      vertex 5.5 -7.5 0
      vertex 3.37387 -0.931129 0
      vertex 3.44375 -0.624949 0
    endloop
  endfacet
  facet normal 0 0 -1
    outer loop
      vertex 3.5 -4.23821 0
      vertex 3.42919 -4.30007 0
      vertex 0.778823 -3.41225 0
    endloop
  endfacet
  facet normal 0 0 -1
    outer loop
      vertex -0.778823 -3.41225 0
      vertex 3.02993 -4.59015 0
      vertex -1.08156 -3.3287 0
    endloop
  endfacet
  facet normal 0 0 -1
    outer loop
      vertex 1.69959 -5.23081 0
      vertex -1.92814 -2.92101 0
      vertex -1.65854 -3.08208 0
    endloop
  endfacet
  facet normal 0 0 -1
    outer loop
      vertex -1.08156 -3.3287 0
      vertex 2.60628 -4.84328 0
      vertex 2.16164 -5.0574 0
    endloop
  endfacet
  facet normal 0 0 -1
    outer loop
      vertex -1.92814 -2.92101 0
      vertex 1.69959 -5.23081 0
      vertex 1.22386 -5.3621 0
    endloop
  endfacet
  facet normal 0 0 -1
    outer loop
      vertex -5.47786 -0.493016 0
      vertex 0.738283 -5.45022 0
      vertex 0.246757 -5.49446 0
    endloop
  endfacet
  facet normal 0 0 -1
    outer loop
      vertex -5.47786 -0.493016 0
      vertex 0.246757 -5.49446 0
      vertex -0.246757 -5.49446 0
    endloop
  endfacet
  facet normal 0 0 -1
    outer loop
      vertex -5.47786 -0.493016 0
      vertex -0.246757 -5.49446 0
      vertex -0.738283 -5.45022 0
    endloop
  endfacet
  facet normal 0 0 -1
    outer loop
      vertex -5.47786 -0.493016 0
      vertex -0.738283 -5.45022 0
      vertex -1.22386 -5.3621 0
    endloop
  endfacet
  facet normal 0 0 -1
    outer loop
      vertex -5.47786 -0.493016 0
      vertex -1.22386 -5.3621 0
      vertex -1.69959 -5.23081 0
    endloop
  endfacet
  facet normal 0 0 -1
    outer loop
      vertex -5.47786 -0.493016 0
      vertex -1.69959 -5.23081 0
      vertex -2.16164 -5.0574 0
    endloop
  endfacet
  facet normal 0 0 -1
    outer loop
      vertex -5.47786 -0.493016 0
      vertex -2.16164 -5.0574 0
      vertex -2.60628 -4.84328 0
    endloop
  endfacet
  facet normal 0 0 -1
    outer loop
      vertex -5.47786 -0.493016 0
      vertex -2.60628 -4.84328 0
      vertex -3.02993 -4.59015 0
    endloop
  endfacet
  facet normal 0 0 -1
    outer loop
      vertex -5.47786 -0.493016 0
      vertex -3.02993 -4.59015 0
      vertex -3.42919 -4.30007 0
    endloop
  endfacet
  facet normal 0 0 -1
    outer loop
      vertex -5.47786 -0.493016 0
      vertex -3.42919 -4.30007 0
      vertex -3.80084 -3.97537 0
    endloop
  endfacet
  facet normal 0 0 -1
    outer loop
      vertex -5.47786 -0.493016 0
      vertex -3.80084 -3.97537 0
      vertex -4.14189 -3.61866 0
    endloop
  endfacet
  facet normal 0 0 -1
    outer loop
      vertex -5.47786 -0.493016 0
      vertex -4.14189 -3.61866 0
      vertex -4.44959 -3.23282 0
    endloop
  endfacet
  facet normal 0 0 -1
    outer loop
      vertex -5.47786 -0.493016 0
      vertex -4.44959 -3.23282 0
      vertex -4.72147 -2.82095 0
    endloop
  endfacet
  facet normal 0 0 -1
    outer loop
      vertex -5.47786 -0.493016 0
      vertex -4.72147 -2.82095 0
      vertex -4.95533 -2.38636 0
    endloop
  endfacet
  facet normal 0 0 -1
    outer loop
      vertex -5.47786 -0.493016 0
      vertex -4.95533 -2.38636 0
      vertex -5.14929 -1.93256 0
    endloop
  endfacet
  facet normal 0 0 -1
    outer loop
      vertex -5.47786 -0.493016 0
      vertex -5.14929 -1.93256 0
      vertex -5.3018 -1.4632 0
    endloop
  endfacet
  facet normal 0 0 -1
    outer loop
      vertex -5.47786 -0.493016 0
      vertex -5.3018 -1.4632 0
      vertex -5.41161 -0.982063 0
    endloop
  endfacet
  facet normal 0 0 -1
    outer loop
      vertex -2.83156 2.05725 0
      vertex -5.47786 -0.493016 0
      vertex -2.63575 2.30279 0
    endloop
  endfacet
  facet normal 0 0 -1
    outer loop
      vertex 3.02993 -4.59015 0
      vertex -0.778823 -3.41225 0
      vertex -0.469816 -3.46832 0
    endloop
  endfacet
  facet normal 0 0 -1
    outer loop
      vertex 3.02993 -4.59015 0
      vertex -0.469816 -3.46832 0
      vertex -0.157027 -3.49648 0
    endloop
  endfacet
  facet normal 0 0 -1
    outer loop
      vertex 3.02993 -4.59015 0
      vertex -0.157027 -3.49648 0
      vertex 0.157027 -3.49648 0
    endloop
  endfacet
  facet normal 0 0 -1
    outer loop
      vertex 3.02993 -4.59015 0
      vertex 0.157027 -3.49648 0
      vertex 0.469816 -3.46832 0
    endloop
  endfacet
  facet normal 0 0 -1
    outer loop
      vertex 1.69959 -5.23081 0
      vertex -1.37559 -3.21835 0
      vertex -1.08156 -3.3287 0
    endloop
  endfacet
  facet normal 0 0 -1
    outer loop
      vertex 1.69959 -5.23081 0
      vertex -1.08156 -3.3287 0
      vertex 2.16164 -5.0574 0
    endloop
  endfacet
  facet normal 0 0 -1
    outer loop
      vertex 3.5 -4.23821 0
      vertex 1.08156 -3.3287 0
      vertex 1.37559 -3.21835 0
    endloop
  endfacet
  facet normal -0.998993 0.0448641 0
    outer loop
      vertex -5.5 0 0
      vertex -5.5 0 5
      vertex -5.47786 0.493016 0
    endloop
  endfacet
  facet normal -0.998993 0.0448641 0
    outer loop
      vertex -5.47786 0.493016 0
      vertex -5.5 0 5
      vertex -5.47786 0.493016 5
    endloop
  endfacet
  facet normal -0.998993 -0.0448641 0
    outer loop
      vertex -5.5 0 0
      vertex -5.47786 -0.493016 0
      vertex -5.5 0 5
    endloop
  endfacet
  facet normal -0.998993 -0.0448641 0
    outer loop
      vertex -5.5 0 5
      vertex -5.47786 -0.493016 0
      vertex -5.47786 -0.493016 5
    endloop
  endfacet
  facet normal -0.99095 -0.134233 0
    outer loop
      vertex -5.47786 -0.493016 0
      vertex -5.41161 -0.982063 0
      vertex -5.47786 -0.493016 5
    endloop
  endfacet
  facet normal -0.99095 -0.134233 0
    outer loop
      vertex -5.47786 -0.493016 5
      vertex -5.41161 -0.982063 0
      vertex -5.41161 -0.982063 5
    endloop
  endfacet
  facet normal -0.974928 -0.222521 0
    outer loop
      vertex -5.41161 -0.982063 0
      vertex -5.3018 -1.4632 0
      vertex -5.41161 -0.982063 5
    endloop
  endfacet
  facet normal -0.974928 -0.222521 0
    outer loop
      vertex -5.41161 -0.982063 5
      vertex -5.3018 -1.4632 0
      vertex -5.3018 -1.4632 5
    endloop
  endfacet
  facet normal -0.951057 -0.309017 0
    outer loop
      vertex -5.3018 -1.4632 0
      vertex -5.14929 -1.93256 0
      vertex -5.3018 -1.4632 5
    endloop
  endfacet
  facet normal -0.951057 -0.309017 0
    outer loop
      vertex -5.3018 -1.4632 5
      vertex -5.14929 -1.93256 0
      vertex -5.14929 -1.93256 5
    endloop
  endfacet
  facet normal -0.919528 -0.393025 0
    outer loop
      vertex -5.14929 -1.93256 0
      vertex -4.95533 -2.38636 0
      vertex -5.14929 -1.93256 5
    endloop
  endfacet
  facet normal -0.919528 -0.393025 0
    outer loop
      vertex -5.14929 -1.93256 5
      vertex -4.95533 -2.38636 0
      vertex -4.95533 -2.38636 5
    endloop
  endfacet
  facet normal -0.880595 -0.47387 0
    outer loop
      vertex -4.95533 -2.38636 0
      vertex -4.72147 -2.82095 0
      vertex -4.95533 -2.38636 5
    endloop
  endfacet
  facet normal -0.880595 -0.47387 0
    outer loop
      vertex -4.95533 -2.38636 5
      vertex -4.72147 -2.82095 0
      vertex -4.72147 -2.82095 5
    endloop
  endfacet
  facet normal -0.834573 -0.550897 0
    outer loop
      vertex -4.72147 -2.82095 0
      vertex -4.44959 -3.23282 0
      vertex -4.72147 -2.82095 5
    endloop
  endfacet
  facet normal -0.834573 -0.550897 0
    outer loop
      vertex -4.72147 -2.82095 5
      vertex -4.44959 -3.23282 0
      vertex -4.44959 -3.23282 5
    endloop
  endfacet
  facet normal -0.781832 -0.623489 0
    outer loop
      vertex -4.44959 -3.23282 0
      vertex -4.14189 -3.61866 0
      vertex -4.44959 -3.23282 5
    endloop
  endfacet
  facet normal -0.781832 -0.623489 0
    outer loop
      vertex -4.44959 -3.23282 5
      vertex -4.14189 -3.61866 0
      vertex -4.14189 -3.61866 5
    endloop
  endfacet
  facet normal -0.722796 -0.691062 0
    outer loop
      vertex -4.14189 -3.61866 0
      vertex -3.80084 -3.97537 0
      vertex -4.14189 -3.61866 5
    endloop
  endfacet
  facet normal -0.722796 -0.691062 0
    outer loop
      vertex -4.14189 -3.61866 5
      vertex -3.80084 -3.97537 0
      vertex -3.80084 -3.97537 5
    endloop
  endfacet
  facet normal -0.657938 -0.753072 0
    outer loop
      vertex -3.80084 -3.97537 5
      vertex -3.80084 -3.97537 0
      vertex -3.42919 -4.30007 0
    endloop
  endfacet
  facet normal -0.657938 -0.753072 0
    outer loop
      vertex -3.42919 -4.30007 5
      vertex -3.80084 -3.97537 5
      vertex -3.42919 -4.30007 0
    endloop
  endfacet
  facet normal -0.587785 -0.809017 0
    outer loop
      vertex -3.42919 -4.30007 5
      vertex -3.42919 -4.30007 0
      vertex -3.02993 -4.59015 0
    endloop
  endfacet
  facet normal -0.587785 -0.809017 0
    outer loop
      vertex -3.02993 -4.59015 5
      vertex -3.42919 -4.30007 5
      vertex -3.02993 -4.59015 0
    endloop
  endfacet
  facet normal -0.512899 -0.858449 0
    outer loop
      vertex -3.02993 -4.59015 5
      vertex -3.02993 -4.59015 0
      vertex -2.60628 -4.84328 0
    endloop
  endfacet
  facet normal -0.512899 -0.858449 0
    outer loop
      vertex -2.60628 -4.84328 5
      vertex -3.02993 -4.59015 5
      vertex -2.60628 -4.84328 0
    endloop
  endfacet
  facet normal -0.433885 -0.900968 0
    outer loop
      vertex -2.60628 -4.84328 5
      vertex -2.60628 -4.84328 0
      vertex -2.16164 -5.0574 0
    endloop
  endfacet
  facet normal -0.433885 -0.900968 0
    outer loop
      vertex -2.16164 -5.0574 5
      vertex -2.60628 -4.84328 5
      vertex -2.16164 -5.0574 0
    endloop
  endfacet
  facet normal -0.351374 -0.936235 0
    outer loop
      vertex -2.16164 -5.0574 5
      vertex -2.16164 -5.0574 0
      vertex -1.69959 -5.23081 0
    endloop
  endfacet
  facet normal -0.351374 -0.936235 0
    outer loop
      vertex -1.69959 -5.23081 5
      vertex -2.16164 -5.0574 5
      vertex -1.69959 -5.23081 0
    endloop
  endfacet
  facet normal -0.266038 -0.963963 0
    outer loop
      vertex -1.69959 -5.23081 5
      vertex -1.69959 -5.23081 0
      vertex -1.22386 -5.3621 0
    endloop
  endfacet
  facet normal -0.266038 -0.963963 0
    outer loop
      vertex -1.22386 -5.3621 5
      vertex -1.69959 -5.23081 5
      vertex -1.22386 -5.3621 0
    endloop
  endfacet
  facet normal -0.178557 -0.98393 0
    outer loop
      vertex -1.22386 -5.3621 5
      vertex -1.22386 -5.3621 0
      vertex -0.738283 -5.45022 0
    endloop
  endfacet
  facet normal -0.178557 -0.98393 0
    outer loop
      vertex -0.738283 -5.45022 5
      vertex -1.22386 -5.3621 5
      vertex -0.738283 -5.45022 0
    endloop
  endfacet
  facet normal -0.089639 -0.995974 0
    outer loop
      vertex -0.738283 -5.45022 5
      vertex -0.738283 -5.45022 0
      vertex -0.246757 -5.49446 0
    endloop
  endfacet
  facet normal -0.089639 -0.995974 0
    outer loop
      vertex -0.246757 -5.49446 5
      vertex -0.738283 -5.45022 5
      vertex -0.246757 -5.49446 0
    endloop
  endfacet
  facet normal 0 -1 0
    outer loop
      vertex -0.246757 -5.49446 5
      vertex -0.246757 -5.49446 0
      vertex 0.246757 -5.49446 0
    endloop
  endfacet
  facet normal 0 -1 0
    outer loop
      vertex 0.246757 -5.49446 5
      vertex -0.246757 -5.49446 5
      vertex 0.246757 -5.49446 0
    endloop
  endfacet
  facet normal 0.089639 -0.995974 0
    outer loop
      vertex 0.246757 -5.49446 5
      vertex 0.246757 -5.49446 0
      vertex 0.738283 -5.45022 0
    endloop
  endfacet
  facet normal 0.089639 -0.995974 0
    outer loop
      vertex 0.738283 -5.45022 5
      vertex 0.246757 -5.49446 5
      vertex 0.738283 -5.45022 0
    endloop
  endfacet
  facet normal 0.178557 -0.98393 0
    outer loop
      vertex 0.738283 -5.45022 5
      vertex 0.738283 -5.45022 0
      vertex 1.22386 -5.3621 0
    endloop
  endfacet
  facet normal 0.178557 -0.98393 0
    outer loop
      vertex 1.22386 -5.3621 5
      vertex 0.738283 -5.45022 5
      vertex 1.22386 -5.3621 0
    endloop
  endfacet
  facet normal 0.266038 -0.963963 0
    outer loop
      vertex 1.22386 -5.3621 5
      vertex 1.22386 -5.3621 0
      vertex 1.69959 -5.23081 0
    endloop
  endfacet
  facet normal 0.266038 -0.963963 0
    outer loop
      vertex 1.69959 -5.23081 5
      vertex 1.22386 -5.3621 5
      vertex 1.69959 -5.23081 0
    endloop
  endfacet
  facet normal 0.351374 -0.936235 0
    outer loop
      vertex 1.69959 -5.23081 5
      vertex 1.69959 -5.23081 0
      vertex 2.16164 -5.0574 0
    endloop
  endfacet
  facet normal 0.351374 -0.936235 0
    outer loop
      vertex 2.16164 -5.0574 5
      vertex 1.69959 -5.23081 5
      vertex 2.16164 -5.0574 0
    endloop
  endfacet
  facet normal 0.433885 -0.900968 0
    outer loop
      vertex 2.16164 -5.0574 5
      vertex 2.16164 -5.0574 0
      vertex 2.60628 -4.84328 0
    endloop
  endfacet
  facet normal 0.433885 -0.900968 0
    outer loop
      vertex 2.60628 -4.84328 5
      vertex 2.16164 -5.0574 5
      vertex 2.60628 -4.84328 0
    endloop
  endfacet
  facet normal 0.512899 -0.858449 0
    outer loop
      vertex 2.60628 -4.84328 5
      vertex 2.60628 -4.84328 0
      vertex 3.02993 -4.59015 0
    endloop
  endfacet
  facet normal 0.512899 -0.858449 0
    outer loop
      vertex 3.02993 -4.59015 5
      vertex 2.60628 -4.84328 5
      vertex 3.02993 -4.59015 0
    endloop
  endfacet
  facet normal 0.587785 -0.809017 0
    outer loop
      vertex 3.02993 -4.59015 5
      vertex 3.02993 -4.59015 0
      vertex 3.42919 -4.30007 0
    endloop
  endfacet
  facet normal 0.587785 -0.809017 0
    outer loop
      vertex 3.42919 -4.30007 5
      vertex 3.02993 -4.59015 5
      vertex 3.42919 -4.30007 0
    endloop
  endfacet
  facet normal 0.657938 -0.753072 0
    outer loop
      vertex 3.42919 -4.30007 5
      vertex 3.42919 -4.30007 0
      vertex 3.5 -4.23821 0
    endloop
  endfacet
  facet normal 0.657938 -0.753072 0
    outer loop
      vertex 3.5 -4.23821 5
      vertex 3.42919 -4.30007 5
      vertex 3.5 -4.23821 0
    endloop
  endfacet
  facet normal -1 0 0
    outer loop
      vertex 3.5 -7.5 0
      vertex 3.5 -7.5 5
      vertex 3.5 -4.23821 0
    endloop
  endfacet
  facet normal -1 0 0
    outer loop
      vertex 3.5 -4.23821 0
      vertex 3.5 -7.5 5
      vertex 3.5 -4.23821 5
    endloop
  endfacet
  facet normal 0 -1 0
    outer loop
      vertex 3.5 -7.5 5
      vertex 3.5 -7.5 0
      vertex 5.5 -7.5 0
    endloop
  endfacet
  facet normal 0 -1 0
    outer loop
      vertex 5.5 -7.5 5
      vertex 3.5 -7.5 5
      vertex 5.5 -7.5 0
    endloop
  endfacet
  facet normal 1 0 0
    outer loop
      vertex 5.5 7.5 0
      vertex 5.5 7.5 5
      vertex 5.5 -7.5 5
    endloop
  endfacet
  facet normal 1 0 0
    outer loop
      vertex 5.5 -7.5 0
      vertex 5.5 7.5 0
      vertex 5.5 -7.5 5
    endloop
  endfacet
  facet normal 0 -1 0
    outer loop
      vertex 10.5 7.5 0
      vertex 10.5 7.5 5
      vertex 5.5 7.5 5
    endloop
  endfacet
  facet normal 0 -1 0
    outer loop
      vertex 5.5 7.5 0
      vertex 10.5 7.5 0
      vertex 5.5 7.5 5
    endloop
  endfacet
  facet normal -1 0 0
    outer loop
      vertex 10.5 7.5 5
      vertex 10.5 7.5 0
      vertex 10.5 -7.5 5
    endloop
  endfacet
  facet normal -1 0 0
    outer loop
      vertex 10.5 -7.5 5
      vertex 10.5 7.5 0
      vertex 10.5 -7.5 0
    endloop
  endfacet
  facet normal 0 -1 0
    outer loop
      vertex 10.5 -7.5 5
      vertex 10.5 -7.5 0
      vertex 12.5 -7.5 0
    endloop
  endfacet
  facet normal 0 -1 0
    outer loop
      vertex 12.5 -7.5 5
      vertex 10.5 -7.5 5
      vertex 12.5 -7.5 0
    endloop
  endfacet
  facet normal 1 0 0
    outer loop
      vertex 12.5 -7.5 5
      vertex 12.5 -7.5 0
      vertex 12.5 9.5 0
    endloop
  endfacet
  facet normal 1 0 0
    outer loop
      vertex 12.5 9.5 5
      vertex 12.5 -7.5 5
      vertex 12.5 9.5 0
    endloop
  endfacet
  facet normal 0 1 0
    outer loop
      vertex 3.5 9.5 0
      vertex 3.5 9.5 5
      vertex 12.5 9.5 0
    endloop
  endfacet
  facet normal 0 1 0
    outer loop
      vertex 12.5 9.5 0
      vertex 3.5 9.5 5
      vertex 12.5 9.5 5
    endloop
  endfacet
  facet normal -1 0 0
    outer loop
      vertex 3.5 0 0
      vertex 3.5 0 5
      vertex 3.5 9.5 0
    endloop
  endfacet
  facet normal -1 0 0
    outer loop
      vertex 3.5 9.5 0
      vertex 3.5 0 5
      vertex 3.5 9.5 5
    endloop
  endfacet
  facet normal -0.998993 0.0448649 0
    outer loop
      vertex 3.5 0 5
      vertex 3.5 0 0
      vertex 3.48591 -0.313738 5
    endloop
  endfacet
  facet normal -0.998993 0.0448649 0
    outer loop
      vertex 3.48591 -0.313738 5
      vertex 3.5 0 0
      vertex 3.48591 -0.313738 0
    endloop
  endfacet
  facet normal -0.99095 0.134232 0
    outer loop
      vertex 3.48591 -0.313738 5
      vertex 3.48591 -0.313738 0
      vertex 3.44375 -0.624949 5
    endloop
  endfacet
  facet normal -0.99095 0.134232 0
    outer loop
      vertex 3.44375 -0.624949 5
      vertex 3.48591 -0.313738 0
      vertex 3.44375 -0.624949 0
    endloop
  endfacet
  facet normal -0.974928 0.222522 0
    outer loop
      vertex 3.44375 -0.624949 5
      vertex 3.44375 -0.624949 0
      vertex 3.37387 -0.931129 5
    endloop
  endfacet
  facet normal -0.974928 0.222522 0
    outer loop
      vertex 3.37387 -0.931129 5
      vertex 3.44375 -0.624949 0
      vertex 3.37387 -0.931129 0
    endloop
  endfacet
  facet normal -0.951057 0.309017 0
    outer loop
      vertex 3.37387 -0.931129 5
      vertex 3.37387 -0.931129 0
      vertex 3.27682 -1.22981 5
    endloop
  endfacet
  facet normal -0.951057 0.309017 0
    outer loop
      vertex 3.27682 -1.22981 5
      vertex 3.37387 -0.931129 0
      vertex 3.27682 -1.22981 0
    endloop
  endfacet
  facet normal -0.919528 0.393025 0
    outer loop
      vertex 3.27682 -1.22981 5
      vertex 3.27682 -1.22981 0
      vertex 3.15339 -1.51859 5
    endloop
  endfacet
  facet normal -0.919528 0.393025 0
    outer loop
      vertex 3.15339 -1.51859 5
      vertex 3.27682 -1.22981 0
      vertex 3.15339 -1.51859 0
    endloop
  endfacet
  facet normal -0.880596 0.473869 0
    outer loop
      vertex 3.15339 -1.51859 5
      vertex 3.15339 -1.51859 0
      vertex 3.00457 -1.79515 5
    endloop
  endfacet
  facet normal -0.880596 0.473869 0
    outer loop
      vertex 3.00457 -1.79515 5
      vertex 3.15339 -1.51859 0
      vertex 3.00457 -1.79515 0
    endloop
  endfacet
  facet normal -0.834572 0.550898 0
    outer loop
      vertex 3.00457 -1.79515 5
      vertex 3.00457 -1.79515 0
      vertex 2.83156 -2.05725 5
    endloop
  endfacet
  facet normal -0.834572 0.550898 0
    outer loop
      vertex 2.83156 -2.05725 5
      vertex 3.00457 -1.79515 0
      vertex 2.83156 -2.05725 0
    endloop
  endfacet
  facet normal -0.781833 0.623488 0
    outer loop
      vertex 2.83156 -2.05725 5
      vertex 2.83156 -2.05725 0
      vertex 2.63575 -2.30279 5
    endloop
  endfacet
  facet normal -0.781833 0.623488 0
    outer loop
      vertex 2.63575 -2.30279 5
      vertex 2.83156 -2.05725 0
      vertex 2.63575 -2.30279 0
    endloop
  endfacet
  facet normal -0.722794 0.691064 0
    outer loop
      vertex 2.63575 -2.30279 5
      vertex 2.63575 -2.30279 0
      vertex 2.41872 -2.52978 5
    endloop
  endfacet
  facet normal -0.722794 0.691064 0
    outer loop
      vertex 2.41872 -2.52978 5
      vertex 2.63575 -2.30279 0
      vertex 2.41872 -2.52978 0
    endloop
  endfacet
  facet normal -0.657938 0.753072 0
    outer loop
      vertex 2.41872 -2.52978 5
      vertex 2.41872 -2.52978 0
      vertex 2.18221 -2.73641 5
    endloop
  endfacet
  facet normal -0.657938 0.753072 0
    outer loop
      vertex 2.18221 -2.73641 5
      vertex 2.41872 -2.52978 0
      vertex 2.18221 -2.73641 0
    endloop
  endfacet
  facet normal -0.587785 0.809017 0
    outer loop
      vertex 2.18221 -2.73641 5
      vertex 2.18221 -2.73641 0
      vertex 1.92814 -2.92101 5
    endloop
  endfacet
  facet normal -0.587785 0.809017 0
    outer loop
      vertex 1.92814 -2.92101 5
      vertex 2.18221 -2.73641 0
      vertex 1.92814 -2.92101 0
    endloop
  endfacet
  facet normal -0.5129 0.858449 0
    outer loop
      vertex 1.92814 -2.92101 5
      vertex 1.92814 -2.92101 0
      vertex 1.65854 -3.08208 5
    endloop
  endfacet
  facet normal -0.5129 0.858449 0
    outer loop
      vertex 1.65854 -3.08208 5
      vertex 1.92814 -2.92101 0
      vertex 1.65854 -3.08208 0
    endloop
  endfacet
  facet normal -0.433885 0.900968 0
    outer loop
      vertex 1.65854 -3.08208 5
      vertex 1.65854 -3.08208 0
      vertex 1.37559 -3.21835 5
    endloop
  endfacet
  facet normal -0.433885 0.900968 0
    outer loop
      vertex 1.37559 -3.21835 5
      vertex 1.65854 -3.08208 0
      vertex 1.37559 -3.21835 0
    endloop
  endfacet
  facet normal -0.351375 0.936235 0
    outer loop
      vertex 1.37559 -3.21835 5
      vertex 1.37559 -3.21835 0
      vertex 1.08156 -3.3287 5
    endloop
  endfacet
  facet normal -0.351375 0.936235 0
    outer loop
      vertex 1.08156 -3.3287 5
      vertex 1.37559 -3.21835 0
      vertex 1.08156 -3.3287 0
    endloop
  endfacet
  facet normal -0.266037 0.963963 0
    outer loop
      vertex 1.08156 -3.3287 5
      vertex 1.08156 -3.3287 0
      vertex 0.778823 -3.41225 5
    endloop
  endfacet
  facet normal -0.266037 0.963963 0
    outer loop
      vertex 0.778823 -3.41225 5
      vertex 1.08156 -3.3287 0
      vertex 0.778823 -3.41225 0
    endloop
  endfacet
  facet normal -0.178555 0.98393 0
    outer loop
      vertex 0.778823 -3.41225 5
      vertex 0.778823 -3.41225 0
      vertex 0.469816 -3.46832 5
    endloop
  endfacet
  facet normal -0.178555 0.98393 0
    outer loop
      vertex 0.469816 -3.46832 5
      vertex 0.778823 -3.41225 0
      vertex 0.469816 -3.46832 0
    endloop
  endfacet
  facet normal -0.0896408 0.995974 0
    outer loop
      vertex 0.469816 -3.46832 5
      vertex 0.469816 -3.46832 0
      vertex 0.157027 -3.49648 5
    endloop
  endfacet
  facet normal -0.0896408 0.995974 0
    outer loop
      vertex 0.157027 -3.49648 5
      vertex 0.469816 -3.46832 0
      vertex 0.157027 -3.49648 0
    endloop
  endfacet
  facet normal 0 1 0
    outer loop
      vertex 0.157027 -3.49648 5
      vertex 0.157027 -3.49648 0
      vertex -0.157027 -3.49648 5
    endloop
  endfacet
  facet normal 0 1 0
    outer loop
      vertex -0.157027 -3.49648 5
      vertex 0.157027 -3.49648 0
      vertex -0.157027 -3.49648 0
    endloop
  endfacet
  facet normal 0.0896408 0.995974 0
    outer loop
      vertex -0.157027 -3.49648 5
      vertex -0.157027 -3.49648 0
      vertex -0.469816 -3.46832 5
    endloop
  endfacet
  facet normal 0.0896408 0.995974 0
    outer loop
      vertex -0.469816 -3.46832 5
      vertex -0.157027 -3.49648 0
      vertex -0.469816 -3.46832 0
    endloop
  endfacet
  facet normal 0.178555 0.98393 0
    outer loop
      vertex -0.469816 -3.46832 5
      vertex -0.469816 -3.46832 0
      vertex -0.778823 -3.41225 5
    endloop
  endfacet
  facet normal 0.178555 0.98393 0
    outer loop
      vertex -0.778823 -3.41225 5
      vertex -0.469816 -3.46832 0
      vertex -0.778823 -3.41225 0
    endloop
  endfacet
  facet normal 0.266037 0.963963 0
    outer loop
      vertex -0.778823 -3.41225 5
      vertex -0.778823 -3.41225 0
      vertex -1.08156 -3.3287 5
    endloop
  endfacet
  facet normal 0.266037 0.963963 0
    outer loop
      vertex -1.08156 -3.3287 5
      vertex -0.778823 -3.41225 0
      vertex -1.08156 -3.3287 0
    endloop
  endfacet
  facet normal 0.351375 0.936235 0
    outer loop
      vertex -1.08156 -3.3287 5
      vertex -1.08156 -3.3287 0
      vertex -1.37559 -3.21835 5
    endloop
  endfacet
  facet normal 0.351375 0.936235 0
    outer loop
      vertex -1.37559 -3.21835 5
      vertex -1.08156 -3.3287 0
      vertex -1.37559 -3.21835 0
    endloop
  endfacet
  facet normal 0.433885 0.900968 0
    outer loop
      vertex -1.37559 -3.21835 5
      vertex -1.37559 -3.21835 0
      vertex -1.65854 -3.08208 5
    endloop
  endfacet
  facet normal 0.433885 0.900968 0
    outer loop
      vertex -1.65854 -3.08208 5
      vertex -1.37559 -3.21835 0
      vertex -1.65854 -3.08208 0
    endloop
  endfacet
  facet normal 0.5129 0.858449 0
    outer loop
      vertex -1.65854 -3.08208 5
      vertex -1.65854 -3.08208 0
      vertex -1.92814 -2.92101 5
    endloop
  endfacet
  facet normal 0.5129 0.858449 0
    outer loop
      vertex -1.92814 -2.92101 5
      vertex -1.65854 -3.08208 0
      vertex -1.92814 -2.92101 0
    endloop
  endfacet
  facet normal 0.587785 0.809017 0
    outer loop
      vertex -1.92814 -2.92101 5
      vertex -1.92814 -2.92101 0
      vertex -2.18221 -2.73641 5
    endloop
  endfacet
  facet normal 0.587785 0.809017 0
    outer loop
      vertex -2.18221 -2.73641 5
      vertex -1.92814 -2.92101 0
      vertex -2.18221 -2.73641 0
    endloop
  endfacet
  facet normal 0.657938 0.753072 0
    outer loop
      vertex -2.18221 -2.73641 5
      vertex -2.18221 -2.73641 0
      vertex -2.41872 -2.52978 5
    endloop
  endfacet
  facet normal 0.657938 0.753072 0
    outer loop
      vertex -2.41872 -2.52978 5
      vertex -2.18221 -2.73641 0
      vertex -2.41872 -2.52978 0
    endloop
  endfacet
  facet normal 0.722794 0.691064 0
    outer loop
      vertex -2.63575 -2.30279 5
      vertex -2.41872 -2.52978 5
      vertex -2.41872 -2.52978 0
    endloop
  endfacet
  facet normal 0.722794 0.691064 0
    outer loop
      vertex -2.63575 -2.30279 0
      vertex -2.63575 -2.30279 5
      vertex -2.41872 -2.52978 0
    endloop
  endfacet
  facet normal 0.781833 0.623488 0
    outer loop
      vertex -2.83156 -2.05725 5
      vertex -2.63575 -2.30279 5
      vertex -2.63575 -2.30279 0
    endloop
  endfacet
  facet normal 0.781833 0.623488 0
    outer loop
      vertex -2.83156 -2.05725 0
      vertex -2.83156 -2.05725 5
      vertex -2.63575 -2.30279 0
    endloop
  endfacet
  facet normal 0.834572 0.550898 0
    outer loop
      vertex -3.00457 -1.79515 5
      vertex -2.83156 -2.05725 5
      vertex -2.83156 -2.05725 0
    endloop
  endfacet
  facet normal 0.834572 0.550898 0
    outer loop
      vertex -3.00457 -1.79515 0
      vertex -3.00457 -1.79515 5
      vertex -2.83156 -2.05725 0
    endloop
  endfacet
  facet normal 0.880596 0.473869 0
    outer loop
      vertex -3.15339 -1.51859 5
      vertex -3.00457 -1.79515 5
      vertex -3.00457 -1.79515 0
    endloop
  endfacet
  facet normal 0.880596 0.473869 0
    outer loop
      vertex -3.15339 -1.51859 0
      vertex -3.15339 -1.51859 5
      vertex -3.00457 -1.79515 0
    endloop
  endfacet
  facet normal 0.919528 0.393025 0
    outer loop
      vertex -3.27682 -1.22981 5
      vertex -3.15339 -1.51859 5
      vertex -3.15339 -1.51859 0
    endloop
  endfacet
  facet normal 0.919528 0.393025 0
    outer loop
      vertex -3.27682 -1.22981 0
      vertex -3.27682 -1.22981 5
      vertex -3.15339 -1.51859 0
    endloop
  endfacet
  facet normal 0.951057 0.309017 0
    outer loop
      vertex -3.37387 -0.931129 5
      vertex -3.27682 -1.22981 5
      vertex -3.27682 -1.22981 0
    endloop
  endfacet
  facet normal 0.951057 0.309017 0
    outer loop
      vertex -3.37387 -0.931129 0
      vertex -3.37387 -0.931129 5
      vertex -3.27682 -1.22981 0
    endloop
  endfacet
  facet normal 0.974928 0.222522 0
    outer loop
      vertex -3.44375 -0.624949 5
      vertex -3.37387 -0.931129 5
      vertex -3.37387 -0.931129 0
    endloop
  endfacet
  facet normal 0.974928 0.222522 0
    outer loop
      vertex -3.44375 -0.624949 0
      vertex -3.44375 -0.624949 5
      vertex -3.37387 -0.931129 0
    endloop
  endfacet
  facet normal 0.99095 0.134232 0
    outer loop
      vertex -3.48591 -0.313738 5
      vertex -3.44375 -0.624949 5
      vertex -3.44375 -0.624949 0
    endloop
  endfacet
  facet normal 0.99095 0.134232 0
    outer loop
      vertex -3.48591 -0.313738 0
      vertex -3.48591 -0.313738 5
      vertex -3.44375 -0.624949 0
    endloop
  endfacet
  facet normal 0.998993 0.0448649 0
    outer loop
      vertex -3.5 0 5
      vertex -3.48591 -0.313738 5
      vertex -3.48591 -0.313738 0
    endloop
  endfacet
  facet normal 0.998993 0.0448649 0
    outer loop
      vertex -3.5 0 0
      vertex -3.5 0 5
      vertex -3.48591 -0.313738 0
    endloop
  endfacet
  facet normal 0.998993 -0.0448649 0
    outer loop
      vertex -3.48591 0.313738 0
      vertex -3.48591 0.313738 5
      vertex -3.5 0 5
    endloop
  endfacet
  facet normal 0.998993 -0.0448649 0
    outer loop
      vertex -3.5 0 0
      vertex -3.48591 0.313738 0
      vertex -3.5 0 5
    endloop
  endfacet
  facet normal 0.99095 -0.134232 0
    outer loop
      vertex -3.44375 0.624949 0
      vertex -3.44375 0.624949 5
      vertex -3.48591 0.313738 5
    endloop
  endfacet
  facet normal 0.99095 -0.134232 0
    outer loop
      vertex -3.48591 0.313738 0
      vertex -3.44375 0.624949 0
      vertex -3.48591 0.313738 5
    endloop
  endfacet
  facet normal 0.974928 -0.222522 0
    outer loop
      vertex -3.37387 0.931129 0
      vertex -3.37387 0.931129 5
      vertex -3.44375 0.624949 5
    endloop
  endfacet
  facet normal 0.974928 -0.222522 0
    outer loop
      vertex -3.44375 0.624949 0
      vertex -3.37387 0.931129 0
      vertex -3.44375 0.624949 5
    endloop
  endfacet
  facet normal 0.951057 -0.309017 0
    outer loop
      vertex -3.27682 1.22981 0
      vertex -3.27682 1.22981 5
      vertex -3.37387 0.931129 5
    endloop
  endfacet
  facet normal 0.951057 -0.309017 0
    outer loop
      vertex -3.37387 0.931129 0
      vertex -3.27682 1.22981 0
      vertex -3.37387 0.931129 5
    endloop
  endfacet
  facet normal 0.919528 -0.393025 0
    outer loop
      vertex -3.15339 1.51859 0
      vertex -3.15339 1.51859 5
      vertex -3.27682 1.22981 5
    endloop
  endfacet
  facet normal 0.919528 -0.393025 0
    outer loop
      vertex -3.27682 1.22981 0
      vertex -3.15339 1.51859 0
      vertex -3.27682 1.22981 5
    endloop
  endfacet
  facet normal 0.880596 -0.473869 0
    outer loop
      vertex -3.00457 1.79515 0
      vertex -3.00457 1.79515 5
      vertex -3.15339 1.51859 5
    endloop
  endfacet
  facet normal 0.880596 -0.473869 0
    outer loop
      vertex -3.15339 1.51859 0
      vertex -3.00457 1.79515 0
      vertex -3.15339 1.51859 5
    endloop
  endfacet
  facet normal 0.834572 -0.550898 0
    outer loop
      vertex -2.83156 2.05725 0
      vertex -2.83156 2.05725 5
      vertex -3.00457 1.79515 5
    endloop
  endfacet
  facet normal 0.834572 -0.550898 0
    outer loop
      vertex -3.00457 1.79515 0
      vertex -2.83156 2.05725 0
      vertex -3.00457 1.79515 5
    endloop
  endfacet
  facet normal 0.781833 -0.623488 0
    outer loop
      vertex -2.63575 2.30279 0
      vertex -2.63575 2.30279 5
      vertex -2.83156 2.05725 5
    endloop
  endfacet
  facet normal 0.781833 -0.623488 0
    outer loop
      vertex -2.83156 2.05725 0
      vertex -2.63575 2.30279 0
      vertex -2.83156 2.05725 5
    endloop
  endfacet
  facet normal 0.722794 -0.691064 0
    outer loop
      vertex -2.41872 2.52978 0
      vertex -2.41872 2.52978 5
      vertex -2.63575 2.30279 5
    endloop
  endfacet
  facet normal 0.722794 -0.691064 0
    outer loop
      vertex -2.63575 2.30279 0
      vertex -2.41872 2.52978 0
      vertex -2.63575 2.30279 5
    endloop
  endfacet
  facet normal 0.657938 -0.753072 0
    outer loop
      vertex -2.18221 2.73641 0
      vertex -2.18221 2.73641 5
      vertex -2.41872 2.52978 5
    endloop
  endfacet
  facet normal 0.657938 -0.753072 0
    outer loop
      vertex -2.41872 2.52978 0
      vertex -2.18221 2.73641 0
      vertex -2.41872 2.52978 5
    endloop
  endfacet
  facet normal 0.587785 -0.809017 0
    outer loop
      vertex -2 2.8688 0
      vertex -2 2.8688 5
      vertex -2.18221 2.73641 5
    endloop
  endfacet
  facet normal 0.587785 -0.809017 0
    outer loop
      vertex -2.18221 2.73641 0
      vertex -2 2.8688 0
      vertex -2.18221 2.73641 5
    endloop
  endfacet
  facet normal 1 0 0
    outer loop
      vertex -2 5.11807 0
      vertex -2 5.11807 5
      vertex -2 2.8688 5
    endloop
  endfacet
  facet normal 1 0 0
    outer loop
      vertex -2 2.8688 0
      vertex -2 5.11807 0
      vertex -2 2.8688 5
    endloop
  endfacet
  facet normal -0.351374 0.936235 0
    outer loop
      vertex -2.16164 5.0574 0
      vertex -2.16164 5.0574 5
      vertex -2 5.11807 0
    endloop
  endfacet
  facet normal -0.351374 0.936235 0
    outer loop
      vertex -2 5.11807 0
      vertex -2.16164 5.0574 5
      vertex -2 5.11807 5
    endloop
  endfacet
  facet normal -0.433885 0.900968 0
    outer loop
      vertex -2.60628 4.84328 0
      vertex -2.60628 4.84328 5
      vertex -2.16164 5.0574 0
    endloop
  endfacet
  facet normal -0.433885 0.900968 0
    outer loop
      vertex -2.16164 5.0574 0
      vertex -2.60628 4.84328 5
      vertex -2.16164 5.0574 5
    endloop
  endfacet
  facet normal -0.512899 0.858449 0
    outer loop
      vertex -3.02993 4.59015 0
      vertex -3.02993 4.59015 5
      vertex -2.60628 4.84328 0
    endloop
  endfacet
  facet normal -0.512899 0.858449 0
    outer loop
      vertex -2.60628 4.84328 0
      vertex -3.02993 4.59015 5
      vertex -2.60628 4.84328 5
    endloop
  endfacet
  facet normal -0.587785 0.809017 0
    outer loop
      vertex -3.42919 4.30007 0
      vertex -3.42919 4.30007 5
      vertex -3.02993 4.59015 0
    endloop
  endfacet
  facet normal -0.587785 0.809017 0
    outer loop
      vertex -3.02993 4.59015 0
      vertex -3.42919 4.30007 5
      vertex -3.02993 4.59015 5
    endloop
  endfacet
  facet normal -0.657938 0.753072 0
    outer loop
      vertex -3.80084 3.97537 0
      vertex -3.80084 3.97537 5
      vertex -3.42919 4.30007 0
    endloop
  endfacet
  facet normal -0.657938 0.753072 0
    outer loop
      vertex -3.42919 4.30007 0
      vertex -3.80084 3.97537 5
      vertex -3.42919 4.30007 5
    endloop
  endfacet
  facet normal -0.722796 0.691062 0
    outer loop
      vertex -4.14189 3.61866 0
      vertex -4.14189 3.61866 5
      vertex -3.80084 3.97537 0
    endloop
  endfacet
  facet normal -0.722796 0.691062 0
    outer loop
      vertex -3.80084 3.97537 0
      vertex -4.14189 3.61866 5
      vertex -3.80084 3.97537 5
    endloop
  endfacet
  facet normal -0.781832 0.623489 0
    outer loop
      vertex -4.44959 3.23282 0
      vertex -4.44959 3.23282 5
      vertex -4.14189 3.61866 0
    endloop
  endfacet
  facet normal -0.781832 0.623489 0
    outer loop
      vertex -4.14189 3.61866 0
      vertex -4.44959 3.23282 5
      vertex -4.14189 3.61866 5
    endloop
  endfacet
  facet normal -0.834573 0.550897 0
    outer loop
      vertex -4.72147 2.82095 0
      vertex -4.72147 2.82095 5
      vertex -4.44959 3.23282 0
    endloop
  endfacet
  facet normal -0.834573 0.550897 0
    outer loop
      vertex -4.44959 3.23282 0
      vertex -4.72147 2.82095 5
      vertex -4.44959 3.23282 5
    endloop
  endfacet
  facet normal -0.880595 0.47387 0
    outer loop
      vertex -4.95533 2.38636 0
      vertex -4.95533 2.38636 5
      vertex -4.72147 2.82095 0
    endloop
  endfacet
  facet normal -0.880595 0.47387 0
    outer loop
      vertex -4.72147 2.82095 0
      vertex -4.95533 2.38636 5
      vertex -4.72147 2.82095 5
    endloop
  endfacet
  facet normal -0.919528 0.393025 0
    outer loop
      vertex -5.14929 1.93256 0
      vertex -5.14929 1.93256 5
      vertex -4.95533 2.38636 0
    endloop
  endfacet
  facet normal -0.919528 0.393025 0
    outer loop
      vertex -4.95533 2.38636 0
      vertex -5.14929 1.93256 5
      vertex -4.95533 2.38636 5
    endloop
  endfacet
  facet normal -0.951057 0.309017 0
    outer loop
      vertex -5.3018 1.4632 0
      vertex -5.3018 1.4632 5
      vertex -5.14929 1.93256 0
    endloop
  endfacet
  facet normal -0.951057 0.309017 0
    outer loop
      vertex -5.14929 1.93256 0
      vertex -5.3018 1.4632 5
      vertex -5.14929 1.93256 5
    endloop
  endfacet
  facet normal -0.974928 0.222521 0
    outer loop
      vertex -5.41161 0.982063 0
      vertex -5.41161 0.982063 5
      vertex -5.3018 1.4632 0
    endloop
  endfacet
  facet normal -0.974928 0.222521 0
    outer loop
      vertex -5.3018 1.4632 0
      vertex -5.41161 0.982063 5
      vertex -5.3018 1.4632 5
    endloop
  endfacet
  facet normal -0.99095 0.134233 0
    outer loop
      vertex -5.47786 0.493016 0
      vertex -5.47786 0.493016 5
      vertex -5.41161 0.982063 0
    endloop
  endfacet
  facet normal -0.99095 0.134233 0
    outer loop
      vertex -5.41161 0.982063 0
      vertex -5.47786 0.493016 5
      vertex -5.41161 0.982063 5
    endloop
  endfacet
  facet normal 0 0 1
    outer loop
      vertex -5.47786 0.493016 5
      vertex -5.5 0 5
      vertex -5.47786 -0.493016 5
    endloop
  endfacet
  facet normal 0 0 1
    outer loop
      vertex -5.3018 -1.4632 5
      vertex -5.47786 0.493016 5
      vertex -5.41161 -0.982063 5
    endloop
  endfacet
  facet normal 0 0 1
    outer loop
      vertex -5.41161 -0.982063 5
      vertex -5.47786 0.493016 5
      vertex -5.47786 -0.493016 5
    endloop
  endfacet
  facet normal 0 0 1
    outer loop
      vertex -5.14929 -1.93256 5
      vertex -5.47786 0.493016 5
      vertex -5.3018 -1.4632 5
    endloop
  endfacet
  facet normal 0 0 1
    outer loop
      vertex -4.95533 -2.38636 5
      vertex -5.47786 0.493016 5
      vertex -5.14929 -1.93256 5
    endloop
  endfacet
  facet normal 0 0 1
    outer loop
      vertex -4.72147 -2.82095 5
      vertex -5.47786 0.493016 5
      vertex -4.95533 -2.38636 5
    endloop
  endfacet
  facet normal 0 0 1
    outer loop
      vertex -4.44959 -3.23282 5
      vertex -5.47786 0.493016 5
      vertex -4.72147 -2.82095 5
    endloop
  endfacet
  facet normal 0 0 1
    outer loop
      vertex -4.14189 -3.61866 5
      vertex -5.47786 0.493016 5
      vertex -4.44959 -3.23282 5
    endloop
  endfacet
  facet normal 0 0 1
    outer loop
      vertex -3.80084 -3.97537 5
      vertex -5.47786 0.493016 5
      vertex -4.14189 -3.61866 5
    endloop
  endfacet
  facet normal 0 0 1
    outer loop
      vertex -3.42919 -4.30007 5
      vertex -5.47786 0.493016 5
      vertex -3.80084 -3.97537 5
    endloop
  endfacet
  facet normal 0 0 1
    outer loop
      vertex -3.02993 -4.59015 5
      vertex -5.47786 0.493016 5
      vertex -3.42919 -4.30007 5
    endloop
  endfacet
  facet normal 0 0 1
    outer loop
      vertex -2.60628 -4.84328 5
      vertex -5.47786 0.493016 5
      vertex -3.02993 -4.59015 5
    endloop
  endfacet
  facet normal 0 0 1
    outer loop
      vertex -2.16164 -5.0574 5
      vertex -5.47786 0.493016 5
      vertex -2.60628 -4.84328 5
    endloop
  endfacet
  facet normal 0 0 1
    outer loop
      vertex -1.69959 -5.23081 5
      vertex -5.47786 0.493016 5
      vertex -2.16164 -5.0574 5
    endloop
  endfacet
  facet normal 0 0 1
    outer loop
      vertex -1.22386 -5.3621 5
      vertex -5.47786 0.493016 5
      vertex -1.69959 -5.23081 5
    endloop
  endfacet
  facet normal 0 0 1
    outer loop
      vertex -0.738283 -5.45022 5
      vertex -5.47786 0.493016 5
      vertex -1.22386 -5.3621 5
    endloop
  endfacet
  facet normal 0 0 1
    outer loop
      vertex -0.246757 -5.49446 5
      vertex -5.47786 0.493016 5
      vertex -0.738283 -5.45022 5
    endloop
  endfacet
  facet normal 0 0 1
    outer loop
      vertex 0.246757 -5.49446 5
      vertex -5.47786 0.493016 5
      vertex -0.246757 -5.49446 5
    endloop
  endfacet
  facet normal 0 0 1
    outer loop
      vertex -2.41872 -2.52978 5
      vertex -5.47786 0.493016 5
      vertex 0.246757 -5.49446 5
    endloop
  endfacet
  facet normal 0 0 1
    outer loop
      vertex -2.63575 -2.30279 5
      vertex -2.83156 -2.05725 5
      vertex -5.47786 0.493016 5
    endloop
  endfacet
  facet normal 0 0 1
    outer loop
      vertex -1.65854 -3.08208 5
      vertex -1.92814 -2.92101 5
      vertex 0.738283 -5.45022 5
    endloop
  endfacet
  facet normal 0 0 1
    outer loop
      vertex -1.08156 -3.3287 5
      vertex -1.37559 -3.21835 5
      vertex 1.22386 -5.3621 5
    endloop
  endfacet
  facet normal 0 0 1
    outer loop
      vertex -0.469816 -3.46832 5
      vertex -0.778823 -3.41225 5
      vertex 1.69959 -5.23081 5
    endloop
  endfacet
  facet normal 0 0 1
    outer loop
      vertex 0.157027 -3.49648 5
      vertex -0.157027 -3.49648 5
      vertex 2.16164 -5.0574 5
    endloop
  endfacet
  facet normal 0 0 1
    outer loop
      vertex 0.778823 -3.41225 5
      vertex 0.469816 -3.46832 5
      vertex 2.60628 -4.84328 5
    endloop
  endfacet
  facet normal 0 0 1
    outer loop
      vertex 1.08156 -3.3287 5
      vertex 0.778823 -3.41225 5
      vertex 3.02993 -4.59015 5
    endloop
  endfacet
  facet normal 0 0 1
    outer loop
      vertex -2.83156 -2.05725 5
      vertex -3.00457 -1.79515 5
      vertex -5.47786 0.493016 5
    endloop
  endfacet
  facet normal 0 0 1
    outer loop
      vertex 5.5 -7.5 5
      vertex 3.5 -4.23821 5
      vertex 3.5 -7.5 5
    endloop
  endfacet
  facet normal 0 0 1
    outer loop
      vertex 5.5 7.5 5
      vertex 3.5 -4.23821 5
      vertex 5.5 -7.5 5
    endloop
  endfacet
  facet normal 0 0 1
    outer loop
      vertex 12.5 9.5 5
      vertex 5.5 7.5 5
      vertex 10.5 7.5 5
    endloop
  endfacet
  facet normal 0 0 1
    outer loop
      vertex 12.5 -7.5 5
      vertex 10.5 7.5 5
      vertex 10.5 -7.5 5
    endloop
  endfacet
  facet normal 0 0 1
    outer loop
      vertex 12.5 9.5 5
      vertex 10.5 7.5 5
      vertex 12.5 -7.5 5
    endloop
  endfacet
  facet normal 0 0 1
    outer loop
      vertex 3.5 9.5 5
      vertex 5.5 7.5 5
      vertex 12.5 9.5 5
    endloop
  endfacet
  facet normal 0 0 1
    outer loop
      vertex 5.5 7.5 5
      vertex 3.5 0 5
      vertex 3.5 -4.23821 5
    endloop
  endfacet
  facet normal 0 0 1
    outer loop
      vertex 3.5 0 5
      vertex 3.48591 -0.313738 5
      vertex 3.5 -4.23821 5
    endloop
  endfacet
  facet normal 0 0 1
    outer loop
      vertex 3.48591 -0.313738 5
      vertex 3.44375 -0.624949 5
      vertex 3.5 -4.23821 5
    endloop
  endfacet
  facet normal 0 0 1
    outer loop
      vertex -3.48591 0.313738 5
      vertex -3.44375 0.624949 5
      vertex -5.47786 0.493016 5
    endloop
  endfacet
  facet normal 0 0 1
    outer loop
      vertex 3.44375 -0.624949 5
      vertex 3.37387 -0.931129 5
      vertex 3.5 -4.23821 5
    endloop
  endfacet
  facet normal 0 0 1
    outer loop
      vertex -2 2.8688 5
      vertex -5.47786 0.493016 5
      vertex -2.18221 2.73641 5
    endloop
  endfacet
  facet normal 0 0 1
    outer loop
      vertex 3.37387 -0.931129 5
      vertex 3.27682 -1.22981 5
      vertex 3.5 -4.23821 5
    endloop
  endfacet
  facet normal 0 0 1
    outer loop
      vertex -2 2.8688 5
      vertex -2 5.11807 5
      vertex -5.47786 0.493016 5
    endloop
  endfacet
  facet normal 0 0 1
    outer loop
      vertex 3.27682 -1.22981 5
      vertex 3.15339 -1.51859 5
      vertex 3.5 -4.23821 5
    endloop
  endfacet
  facet normal 0 0 1
    outer loop
      vertex 3.15339 -1.51859 5
      vertex 3.00457 -1.79515 5
      vertex 3.5 -4.23821 5
    endloop
  endfacet
  facet normal 0 0 1
    outer loop
      vertex 3.00457 -1.79515 5
      vertex 2.83156 -2.05725 5
      vertex 3.5 -4.23821 5
    endloop
  endfacet
  facet normal 0 0 1
    outer loop
      vertex 2.83156 -2.05725 5
      vertex 2.63575 -2.30279 5
      vertex 3.5 -4.23821 5
    endloop
  endfacet
  facet normal 0 0 1
    outer loop
      vertex 2.63575 -2.30279 5
      vertex 2.41872 -2.52978 5
      vertex 3.5 -4.23821 5
    endloop
  endfacet
  facet normal 0 0 1
    outer loop
      vertex 2.41872 -2.52978 5
      vertex 2.18221 -2.73641 5
      vertex 3.5 -4.23821 5
    endloop
  endfacet
  facet normal 0 0 1
    outer loop
      vertex 2.18221 -2.73641 5
      vertex 1.92814 -2.92101 5
      vertex 3.5 -4.23821 5
    endloop
  endfacet
  facet normal 0 0 1
    outer loop
      vertex 1.92814 -2.92101 5
      vertex 1.65854 -3.08208 5
      vertex 3.5 -4.23821 5
    endloop
  endfacet
  facet normal 0 0 1
    outer loop
      vertex 3.42919 -4.30007 5
      vertex 1.37559 -3.21835 5
      vertex 3.02993 -4.59015 5
    endloop
  endfacet
  facet normal 0 0 1
    outer loop
      vertex 1.37559 -3.21835 5
      vertex 1.08156 -3.3287 5
      vertex 3.02993 -4.59015 5
    endloop
  endfacet
  facet normal 0 0 1
    outer loop
      vertex 3.02993 -4.59015 5
      vertex 0.778823 -3.41225 5
      vertex 2.60628 -4.84328 5
    endloop
  endfacet
  facet normal 0 0 1
    outer loop
      vertex 2.60628 -4.84328 5
      vertex 0.469816 -3.46832 5
      vertex 2.16164 -5.0574 5
    endloop
  endfacet
  facet normal 0 0 1
    outer loop
      vertex 0.469816 -3.46832 5
      vertex 0.157027 -3.49648 5
      vertex 2.16164 -5.0574 5
    endloop
  endfacet
  facet normal 0 0 1
    outer loop
      vertex 2.16164 -5.0574 5
      vertex -0.157027 -3.49648 5
      vertex 1.69959 -5.23081 5
    endloop
  endfacet
  facet normal 0 0 1
    outer loop
      vertex -0.157027 -3.49648 5
      vertex -0.469816 -3.46832 5
      vertex 1.69959 -5.23081 5
    endloop
  endfacet
  facet normal 0 0 1
    outer loop
      vertex 1.69959 -5.23081 5
      vertex -0.778823 -3.41225 5
      vertex 1.22386 -5.3621 5
    endloop
  endfacet
  facet normal 0 0 1
    outer loop
      vertex -0.778823 -3.41225 5
      vertex -1.08156 -3.3287 5
      vertex 1.22386 -5.3621 5
    endloop
  endfacet
  facet normal 0 0 1
    outer loop
      vertex 1.22386 -5.3621 5
      vertex -1.37559 -3.21835 5
      vertex 0.738283 -5.45022 5
    endloop
  endfacet
  facet normal 0 0 1
    outer loop
      vertex -1.37559 -3.21835 5
      vertex -1.65854 -3.08208 5
      vertex 0.738283 -5.45022 5
    endloop
  endfacet
  facet normal 0 0 1
    outer loop
      vertex 0.738283 -5.45022 5
      vertex -1.92814 -2.92101 5
      vertex 0.246757 -5.49446 5
    endloop
  endfacet
  facet normal 0 0 1
    outer loop
      vertex -1.92814 -2.92101 5
      vertex -2.18221 -2.73641 5
      vertex 0.246757 -5.49446 5
    endloop
  endfacet
  facet normal 0 0 1
    outer loop
      vertex -2.18221 -2.73641 5
      vertex -2.41872 -2.52978 5
      vertex 0.246757 -5.49446 5
    endloop
  endfacet
  facet normal 0 0 1
    outer loop
      vertex -2.63575 -2.30279 5
      vertex -5.47786 0.493016 5
      vertex -2.41872 -2.52978 5
    endloop
  endfacet
  facet normal 0 0 1
    outer loop
      vertex -3.00457 -1.79515 5
      vertex -3.15339 -1.51859 5
      vertex -5.47786 0.493016 5
    endloop
  endfacet
  facet normal 0 0 1
    outer loop
      vertex -3.15339 -1.51859 5
      vertex -3.27682 -1.22981 5
      vertex -5.47786 0.493016 5
    endloop
  endfacet
  facet normal 0 0 1
    outer loop
      vertex -3.27682 -1.22981 5
      vertex -3.37387 -0.931129 5
      vertex -5.47786 0.493016 5
    endloop
  endfacet
  facet normal 0 0 1
    outer loop
      vertex -3.48591 -0.313738 5
      vertex -3.5 0 5
      vertex -5.47786 0.493016 5
    endloop
  endfacet
  facet normal 0 0 1
    outer loop
      vertex -2.18221 2.73641 5
      vertex -5.47786 0.493016 5
      vertex -2.41872 2.52978 5
    endloop
  endfacet
  facet normal 0 0 1
    outer loop
      vertex -3.37387 0.931129 5
      vertex -5.47786 0.493016 5
      vertex -3.44375 0.624949 5
    endloop
  endfacet
  facet normal 0 0 1
    outer loop
      vertex 1.65854 -3.08208 5
      vertex 3.42919 -4.30007 5
      vertex 3.5 -4.23821 5
    endloop
  endfacet
  facet normal 0 0 1
    outer loop
      vertex -3.27682 1.22981 5
      vertex -5.47786 0.493016 5
      vertex -3.37387 0.931129 5
    endloop
  endfacet
  facet normal 0 0 1
    outer loop
      vertex 1.65854 -3.08208 5
      vertex 1.37559 -3.21835 5
      vertex 3.42919 -4.30007 5
    endloop
  endfacet
  facet normal 0 0 1
    outer loop
      vertex -3.15339 1.51859 5
      vertex -5.47786 0.493016 5
      vertex -3.27682 1.22981 5
    endloop
  endfacet
  facet normal 0 0 1
    outer loop
      vertex -3.37387 -0.931129 5
      vertex -3.44375 -0.624949 5
      vertex -5.47786 0.493016 5
    endloop
  endfacet
  facet normal 0 0 1
    outer loop
      vertex -3.00457 1.79515 5
      vertex -5.47786 0.493016 5
      vertex -3.15339 1.51859 5
    endloop
  endfacet
  facet normal 0 0 1
    outer loop
      vertex -3.44375 -0.624949 5
      vertex -3.48591 -0.313738 5
      vertex -5.47786 0.493016 5
    endloop
  endfacet
  facet normal 0 0 1
    outer loop
      vertex -2.83156 2.05725 5
      vertex -5.47786 0.493016 5
      vertex -3.00457 1.79515 5
    endloop
  endfacet
  facet normal 0 0 1
    outer loop
      vertex -3.5 0 5
      vertex -3.48591 0.313738 5
      vertex -5.47786 0.493016 5
    endloop
  endfacet
  facet normal 0 0 1
    outer loop
      vertex -2.63575 2.30279 5
      vertex -5.47786 0.493016 5
      vertex -2.83156 2.05725 5
    endloop
  endfacet
  facet normal 0 0 1
    outer loop
      vertex -2.16164 5.0574 5
      vertex -5.47786 0.493016 5
      vertex -2 5.11807 5
    endloop
  endfacet
  facet normal 0 0 1
    outer loop
      vertex -2.60628 4.84328 5
      vertex -5.47786 0.493016 5
      vertex -2.16164 5.0574 5
    endloop
  endfacet
  facet normal 0 0 1
    outer loop
      vertex -3.02993 4.59015 5
      vertex -5.47786 0.493016 5
      vertex -2.60628 4.84328 5
    endloop
  endfacet
  facet normal 0 0 1
    outer loop
      vertex -3.42919 4.30007 5
      vertex -5.47786 0.493016 5
      vertex -3.02993 4.59015 5
    endloop
  endfacet
  facet normal 0 0 1
    outer loop
      vertex -3.80084 3.97537 5
      vertex -5.47786 0.493016 5
      vertex -3.42919 4.30007 5
    endloop
  endfacet
  facet normal 0 0 1
    outer loop
      vertex -4.14189 3.61866 5
      vertex -5.47786 0.493016 5
      vertex -3.80084 3.97537 5
    endloop
  endfacet
  facet normal 0 0 1
    outer loop
      vertex -4.44959 3.23282 5
      vertex -5.47786 0.493016 5
      vertex -4.14189 3.61866 5
    endloop
  endfacet
  facet normal 0 0 1
    outer loop
      vertex -4.72147 2.82095 5
      vertex -5.47786 0.493016 5
      vertex -4.44959 3.23282 5
    endloop
  endfacet
  facet normal 0 0 1
    outer loop
      vertex -4.95533 2.38636 5
      vertex -5.47786 0.493016 5
      vertex -4.72147 2.82095 5
    endloop
  endfacet
  facet normal 0 0 1
    outer loop
      vertex -5.14929 1.93256 5
      vertex -5.47786 0.493016 5
      vertex -4.95533 2.38636 5
    endloop
  endfacet
  facet normal 0 0 1
    outer loop
      vertex -5.3018 1.4632 5
      vertex -5.47786 0.493016 5
      vertex -5.14929 1.93256 5
    endloop
  endfacet
  facet normal 0 0 1
    outer loop
      vertex -5.41161 0.982063 5
      vertex -5.47786 0.493016 5
      vertex -5.3018 1.4632 5
    endloop
  endfacet
  facet normal 0 0 1
    outer loop
      vertex -2.63575 2.30279 5
      vertex -2.41872 2.52978 5
      vertex -5.47786 0.493016 5
    endloop
  endfacet
  facet normal 0 0 1
    outer loop
      vertex 3.5 9.5 5
      vertex 3.5 0 5
      vertex 5.5 7.5 5
    endloop
  endfacet
endsolid OpenSCAD_Model
