solid OpenSCAD_Model
  facet normal -1 0 0
    outer loop
      vertex 0 0 0
      vertex 0 0 12.5
      vertex 0 15 0
    endloop
  endfacet
  facet normal -1 0 0
    outer loop
      vertex 0 15 0
      vertex 0 0 12.5
      vertex 0 15 12.5
    endloop
  endfacet
  facet normal 0 -1 0
    outer loop
      vertex 1 0 1
      vertex 0 0 0
      vertex 17.55 0 0
    endloop
  endfacet
  facet normal 0 -1 0
    outer loop
      vertex 0 0 12.5
      vertex 0 0 0
      vertex 1 0 1
    endloop
  endfacet
  facet normal 0 -1 0
    outer loop
      vertex 1 0 11.5
      vertex 16.55 0 11.5
      vertex 0 0 12.5
    endloop
  endfacet
  facet normal 0 -1 0
    outer loop
      vertex 0 0 12.5
      vertex 1 0 1
      vertex 1 0 11.5
    endloop
  endfacet
  facet normal 0 -1 0
    outer loop
      vertex 17.55 0 12.5
      vertex 16.55 0 11.5
      vertex 17.55 0 0
    endloop
  endfacet
  facet normal 0 -1 0
    outer loop
      vertex 17.55 0 12.5
      vertex 0 0 12.5
      vertex 16.55 0 11.5
    endloop
  endfacet
  facet normal 0 -1 0
    outer loop
      vertex 16.55 0 11.5
      vertex 16.55 0 1
      vertex 17.55 0 0
    endloop
  endfacet
  facet normal 0 -1 0
    outer loop
      vertex 16.55 0 1
      vertex 1 0 1
      vertex 17.55 0 0
    endloop
  endfacet
  facet normal 0 0 -1
    outer loop
      vertex 9.06384 14.6909 0
      vertex 0 15 0
      vertex 17.55 15 0
    endloop
  endfacet
  facet normal 0 0 -1
    outer loop
      vertex 0 0 0
      vertex 0 15 0
      vertex 4.175 10.1 0
    endloop
  endfacet
  facet normal 0 0 -1
    outer loop
      vertex 4.21127 10.6765 0
      vertex 0 15 0
      vertex 4.31952 11.244 0
    endloop
  endfacet
  facet normal 0 0 -1
    outer loop
      vertex 0 0 0
      vertex 4.175 10.1 0
      vertex 4.21127 9.52347 0
    endloop
  endfacet
  facet normal 0 0 -1
    outer loop
      vertex 0 0 0
      vertex 4.21127 9.52347 0
      vertex 4.31952 8.95603 0
    endloop
  endfacet
  facet normal 0 0 -1
    outer loop
      vertex 0 0 0
      vertex 4.31952 8.95603 0
      vertex 4.49803 8.40663 0
    endloop
  endfacet
  facet normal 0 0 -1
    outer loop
      vertex 0 0 0
      vertex 4.49803 8.40663 0
      vertex 4.74399 7.88393 0
    endloop
  endfacet
  facet normal 0 0 -1
    outer loop
      vertex 0 0 0
      vertex 4.74399 7.88393 0
      vertex 5.05352 7.39619 0
    endloop
  endfacet
  facet normal 0 0 -1
    outer loop
      vertex 0 0 0
      vertex 5.05352 7.39619 0
      vertex 5.42174 6.95108 0
    endloop
  endfacet
  facet normal 0 0 -1
    outer loop
      vertex 0 0 0
      vertex 5.42174 6.95108 0
      vertex 5.84285 6.55564 0
    endloop
  endfacet
  facet normal 0 0 -1
    outer loop
      vertex 0 0 0
      vertex 5.84285 6.55564 0
      vertex 6.3102 6.21609 0
    endloop
  endfacet
  facet normal 0 0 -1
    outer loop
      vertex 0 0 0
      vertex 6.3102 6.21609 0
      vertex 17.55 0 0
    endloop
  endfacet
  facet normal 0 0 -1
    outer loop
      vertex 6.3102 6.21609 0
      vertex 6.81642 5.9378 0
      vertex 17.55 0 0
    endloop
  endfacet
  facet normal 0 0 -1
    outer loop
      vertex 7.91305 5.58148 0
      vertex 17.55 0 0
      vertex 7.35352 5.72514 0
    endloop
  endfacet
  facet normal 0 0 -1
    outer loop
      vertex 8.48616 5.50908 0
      vertex 17.55 0 0
      vertex 7.91305 5.58148 0
    endloop
  endfacet
  facet normal 0 0 -1
    outer loop
      vertex 9.06384 5.50908 0
      vertex 17.55 0 0
      vertex 8.48616 5.50908 0
    endloop
  endfacet
  facet normal 0 0 -1
    outer loop
      vertex 9.63695 5.58148 0
      vertex 17.55 0 0
      vertex 9.06384 5.50908 0
    endloop
  endfacet
  facet normal 0 0 -1
    outer loop
      vertex 10.1965 5.72514 0
      vertex 17.55 0 0
      vertex 9.63695 5.58148 0
    endloop
  endfacet
  facet normal 0 0 -1
    outer loop
      vertex 10.7336 5.9378 0
      vertex 17.55 0 0
      vertex 10.1965 5.72514 0
    endloop
  endfacet
  facet normal 0 0 -1
    outer loop
      vertex 13.052 8.40663 0
      vertex 17.55 15 0
      vertex 12.806 7.88393 0
    endloop
  endfacet
  facet normal 0 0 -1
    outer loop
      vertex 17.55 0 0
      vertex 10.7336 5.9378 0
      vertex 11.2398 6.21609 0
    endloop
  endfacet
  facet normal 0 0 -1
    outer loop
      vertex 17.55 0 0
      vertex 11.2398 6.21609 0
      vertex 11.7072 6.55564 0
    endloop
  endfacet
  facet normal 0 0 -1
    outer loop
      vertex 17.55 0 0
      vertex 11.7072 6.55564 0
      vertex 12.1283 6.95108 0
    endloop
  endfacet
  facet normal 0 0 -1
    outer loop
      vertex 17.55 0 0
      vertex 12.1283 6.95108 0
      vertex 12.4965 7.39619 0
    endloop
  endfacet
  facet normal 0 0 -1
    outer loop
      vertex 17.55 0 0
      vertex 12.4965 7.39619 0
      vertex 17.55 15 0
    endloop
  endfacet
  facet normal 0 0 -1
    outer loop
      vertex 12.4965 7.39619 0
      vertex 12.806 7.88393 0
      vertex 17.55 15 0
    endloop
  endfacet
  facet normal 0 0 -1
    outer loop
      vertex 13.2305 8.95603 0
      vertex 17.55 15 0
      vertex 13.052 8.40663 0
    endloop
  endfacet
  facet normal 0 0 -1
    outer loop
      vertex 13.3387 9.52347 0
      vertex 17.55 15 0
      vertex 13.2305 8.95603 0
    endloop
  endfacet
  facet normal 0 0 -1
    outer loop
      vertex 4.31952 11.244 0
      vertex 0 15 0
      vertex 4.49803 11.7934 0
    endloop
  endfacet
  facet normal 0 0 -1
    outer loop
      vertex 7.91305 14.6185 0
      vertex 0 15 0
      vertex 8.48616 14.6909 0
    endloop
  endfacet
  facet normal 0 0 -1
    outer loop
      vertex 13.3387 9.52347 0
      vertex 13.375 10.1 0
      vertex 17.55 15 0
    endloop
  endfacet
  facet normal 0 0 -1
    outer loop
      vertex 13.375 10.1 0
      vertex 13.3387 10.6765 0
      vertex 17.55 15 0
    endloop
  endfacet
  facet normal 0 0 -1
    outer loop
      vertex 5.05352 12.8038 0
      vertex 0 15 0
      vertex 5.42174 13.2489 0
    endloop
  endfacet
  facet normal 0 0 -1
    outer loop
      vertex 13.3387 10.6765 0
      vertex 13.2305 11.244 0
      vertex 17.55 15 0
    endloop
  endfacet
  facet normal 0 0 -1
    outer loop
      vertex 13.2305 11.244 0
      vertex 13.052 11.7934 0
      vertex 17.55 15 0
    endloop
  endfacet
  facet normal 0 0 -1
    outer loop
      vertex 5.42174 13.2489 0
      vertex 0 15 0
      vertex 5.84285 13.6444 0
    endloop
  endfacet
  facet normal 0 0 -1
    outer loop
      vertex 13.052 11.7934 0
      vertex 12.806 12.3161 0
      vertex 17.55 15 0
    endloop
  endfacet
  facet normal 0 0 -1
    outer loop
      vertex 12.806 12.3161 0
      vertex 12.4965 12.8038 0
      vertex 17.55 15 0
    endloop
  endfacet
  facet normal 0 0 -1
    outer loop
      vertex 5.84285 13.6444 0
      vertex 0 15 0
      vertex 6.3102 13.9839 0
    endloop
  endfacet
  facet normal 0 0 -1
    outer loop
      vertex 12.4965 12.8038 0
      vertex 12.1283 13.2489 0
      vertex 17.55 15 0
    endloop
  endfacet
  facet normal 0 0 -1
    outer loop
      vertex 12.1283 13.2489 0
      vertex 11.7072 13.6444 0
      vertex 17.55 15 0
    endloop
  endfacet
  facet normal 0 0 -1
    outer loop
      vertex 6.3102 13.9839 0
      vertex 0 15 0
      vertex 6.81642 14.2622 0
    endloop
  endfacet
  facet normal 0 0 -1
    outer loop
      vertex 11.7072 13.6444 0
      vertex 11.2398 13.9839 0
      vertex 17.55 15 0
    endloop
  endfacet
  facet normal 0 0 -1
    outer loop
      vertex 6.81642 14.2622 0
      vertex 0 15 0
      vertex 7.35352 14.4749 0
    endloop
  endfacet
  facet normal 0 0 -1
    outer loop
      vertex 11.2398 13.9839 0
      vertex 10.7336 14.2622 0
      vertex 17.55 15 0
    endloop
  endfacet
  facet normal 0 0 -1
    outer loop
      vertex 10.7336 14.2622 0
      vertex 10.1965 14.4749 0
      vertex 17.55 15 0
    endloop
  endfacet
  facet normal 0 0 -1
    outer loop
      vertex 7.35352 14.4749 0
      vertex 0 15 0
      vertex 7.91305 14.6185 0
    endloop
  endfacet
  facet normal 0 0 -1
    outer loop
      vertex 10.1965 14.4749 0
      vertex 9.63695 14.6185 0
      vertex 17.55 15 0
    endloop
  endfacet
  facet normal 0 0 -1
    outer loop
      vertex 8.48616 14.6909 0
      vertex 0 15 0
      vertex 9.06384 14.6909 0
    endloop
  endfacet
  facet normal 0 0 -1
    outer loop
      vertex 9.63695 14.6185 0
      vertex 9.06384 14.6909 0
      vertex 17.55 15 0
    endloop
  endfacet
  facet normal 0 0 -1
    outer loop
      vertex 4.74399 12.3161 0
      vertex 0 15 0
      vertex 5.05352 12.8038 0
    endloop
  endfacet
  facet normal 0 0 -1
    outer loop
      vertex 4.49803 11.7934 0
      vertex 0 15 0
      vertex 4.74399 12.3161 0
    endloop
  endfacet
  facet normal 0 0 -1
    outer loop
      vertex 4.175 10.1 0
      vertex 0 15 0
      vertex 4.21127 10.6765 0
    endloop
  endfacet
  facet normal 0 0 -1
    outer loop
      vertex 7.35352 5.72514 0
      vertex 17.55 0 0
      vertex 6.81642 5.9378 0
    endloop
  endfacet
  facet normal 0 1 0
    outer loop
      vertex 0 15 0
      vertex 0 15 12.5
      vertex 17.55 15 0
    endloop
  endfacet
  facet normal 0 1 0
    outer loop
      vertex 17.55 15 0
      vertex 0 15 12.5
      vertex 17.55 15 12.5
    endloop
  endfacet
  facet normal 0 0 1
    outer loop
      vertex 0 15 12.5
      vertex 0 0 12.5
      vertex 17.55 0 12.5
    endloop
  endfacet
  facet normal 0 0 1
    outer loop
      vertex 17.55 15 12.5
      vertex 0 15 12.5
      vertex 17.55 0 12.5
    endloop
  endfacet
  facet normal 1 0 0
    outer loop
      vertex 17.55 0 12.5
      vertex 17.55 0 0
      vertex 17.55 15 0
    endloop
  endfacet
  facet normal 1 0 0
    outer loop
      vertex 17.55 15 12.5
      vertex 17.55 0 12.5
      vertex 17.55 15 0
    endloop
  endfacet
  facet normal 1 0 0
    outer loop
      vertex 1 14 1
      vertex 1 14 11.5
      vertex 1 0 11.5
    endloop
  endfacet
  facet normal 1 0 0
    outer loop
      vertex 1 0 1
      vertex 1 14 1
      vertex 1 0 11.5
    endloop
  endfacet
  facet normal 0 0 1
    outer loop
      vertex 8.28781 12.6539 1
      vertex 16.55 14 1
      vertex 1 14 1
    endloop
  endfacet
  facet normal 0 0 1
    outer loop
      vertex 6.87968 8.32018 1
      vertex 6.67156 8.57176 1
      vertex 1 14 1
    endloop
  endfacet
  facet normal 0 0 1
    outer loop
      vertex 6.1955 9.77413 1
      vertex 6.175 10.1 1
      vertex 1 14 1
    endloop
  endfacet
  facet normal 0 0 1
    outer loop
      vertex 6.175 10.1 1
      vertex 6.1955 10.4259 1
      vertex 1 14 1
    endloop
  endfacet
  facet normal 0 0 1
    outer loop
      vertex 6.1955 10.4259 1
      vertex 6.25668 10.7466 1
      vertex 1 14 1
    endloop
  endfacet
  facet normal 0 0 1
    outer loop
      vertex 10.6703 11.8798 1
      vertex 10.8784 11.6282 1
      vertex 16.55 14 1
    endloop
  endfacet
  facet normal 0 0 1
    outer loop
      vertex 6.25668 10.7466 1
      vertex 6.35758 11.0571 1
      vertex 1 14 1
    endloop
  endfacet
  facet normal 0 0 1
    outer loop
      vertex 6.35758 11.0571 1
      vertex 6.4966 11.3526 1
      vertex 1 14 1
    endloop
  endfacet
  facet normal 0 0 1
    outer loop
      vertex 6.4966 11.3526 1
      vertex 6.67156 11.6282 1
      vertex 1 14 1
    endloop
  endfacet
  facet normal 0 0 1
    outer loop
      vertex 10.1681 12.2953 1
      vertex 10.4323 12.1033 1
      vertex 16.55 14 1
    endloop
  endfacet
  facet normal 0 0 1
    outer loop
      vertex 6.67156 11.6282 1
      vertex 6.87968 11.8798 1
      vertex 1 14 1
    endloop
  endfacet
  facet normal 0 0 1
    outer loop
      vertex 6.87968 11.8798 1
      vertex 7.1177 12.1033 1
      vertex 1 14 1
    endloop
  endfacet
  facet normal 0 0 1
    outer loop
      vertex 7.1177 12.1033 1
      vertex 7.38185 12.2953 1
      vertex 1 14 1
    endloop
  endfacet
  facet normal 0 0 1
    outer loop
      vertex 9.57844 12.5727 1
      vertex 9.88203 12.4525 1
      vertex 16.55 14 1
    endloop
  endfacet
  facet normal 0 0 1
    outer loop
      vertex 7.38185 12.2953 1
      vertex 7.66797 12.4525 1
      vertex 1 14 1
    endloop
  endfacet
  facet normal 0 0 1
    outer loop
      vertex 7.66797 12.4525 1
      vertex 7.97156 12.5727 1
      vertex 1 14 1
    endloop
  endfacet
  facet normal 0 0 1
    outer loop
      vertex 7.97156 12.5727 1
      vertex 8.28781 12.6539 1
      vertex 1 14 1
    endloop
  endfacet
  facet normal 0 0 1
    outer loop
      vertex 8.61174 12.6949 1
      vertex 16.55 14 1
      vertex 8.28781 12.6539 1
    endloop
  endfacet
  facet normal 0 0 1
    outer loop
      vertex 8.93825 12.6949 1
      vertex 9.26219 12.6539 1
      vertex 16.55 14 1
    endloop
  endfacet
  facet normal 0 0 1
    outer loop
      vertex 9.88203 12.4525 1
      vertex 10.1681 12.2953 1
      vertex 16.55 14 1
    endloop
  endfacet
  facet normal 0 0 1
    outer loop
      vertex 10.4323 12.1033 1
      vertex 10.6703 11.8798 1
      vertex 16.55 14 1
    endloop
  endfacet
  facet normal 0 0 1
    outer loop
      vertex 8.28781 7.54605 1
      vertex 7.97156 7.62725 1
      vertex 16.55 0 1
    endloop
  endfacet
  facet normal 0 0 1
    outer loop
      vertex 11.1924 11.0571 1
      vertex 11.2933 10.7466 1
      vertex 16.55 0 1
    endloop
  endfacet
  facet normal 0 0 1
    outer loop
      vertex 11.0534 11.3526 1
      vertex 16.55 14 1
      vertex 10.8784 11.6282 1
    endloop
  endfacet
  facet normal 0 0 1
    outer loop
      vertex 16.55 0 1
      vertex 16.55 14 1
      vertex 11.0534 11.3526 1
    endloop
  endfacet
  facet normal 0 0 1
    outer loop
      vertex 8.93825 7.50513 1
      vertex 8.61174 7.50513 1
      vertex 16.55 0 1
    endloop
  endfacet
  facet normal 0 0 1
    outer loop
      vertex 16.55 0 1
      vertex 11.0534 11.3526 1
      vertex 11.1924 11.0571 1
    endloop
  endfacet
  facet normal 0 0 1
    outer loop
      vertex 16.55 0 1
      vertex 11.2933 10.7466 1
      vertex 11.3545 10.4259 1
    endloop
  endfacet
  facet normal 0 0 1
    outer loop
      vertex 16.55 0 1
      vertex 11.3545 10.4259 1
      vertex 11.375 10.1 1
    endloop
  endfacet
  facet normal 0 0 1
    outer loop
      vertex 16.55 0 1
      vertex 11.375 10.1 1
      vertex 11.3545 9.77413 1
    endloop
  endfacet
  facet normal 0 0 1
    outer loop
      vertex 16.55 0 1
      vertex 11.3545 9.77413 1
      vertex 11.2933 9.45341 1
    endloop
  endfacet
  facet normal 0 0 1
    outer loop
      vertex 16.55 0 1
      vertex 11.2933 9.45341 1
      vertex 11.1924 9.14288 1
    endloop
  endfacet
  facet normal 0 0 1
    outer loop
      vertex 16.55 0 1
      vertex 11.1924 9.14288 1
      vertex 11.0534 8.84744 1
    endloop
  endfacet
  facet normal 0 0 1
    outer loop
      vertex 16.55 0 1
      vertex 11.0534 8.84744 1
      vertex 10.8784 8.57176 1
    endloop
  endfacet
  facet normal 0 0 1
    outer loop
      vertex 16.55 0 1
      vertex 10.8784 8.57176 1
      vertex 10.6703 8.32018 1
    endloop
  endfacet
  facet normal 0 0 1
    outer loop
      vertex 16.55 0 1
      vertex 10.6703 8.32018 1
      vertex 10.4323 8.09667 1
    endloop
  endfacet
  facet normal 0 0 1
    outer loop
      vertex 16.55 0 1
      vertex 10.4323 8.09667 1
      vertex 10.1681 7.90475 1
    endloop
  endfacet
  facet normal 0 0 1
    outer loop
      vertex 16.55 0 1
      vertex 10.1681 7.90475 1
      vertex 9.88203 7.74745 1
    endloop
  endfacet
  facet normal 0 0 1
    outer loop
      vertex 16.55 0 1
      vertex 9.88203 7.74745 1
      vertex 9.57844 7.62725 1
    endloop
  endfacet
  facet normal 0 0 1
    outer loop
      vertex 16.55 0 1
      vertex 9.57844 7.62725 1
      vertex 9.26219 7.54605 1
    endloop
  endfacet
  facet normal 0 0 1
    outer loop
      vertex 16.55 0 1
      vertex 9.26219 7.54605 1
      vertex 8.93825 7.50513 1
    endloop
  endfacet
  facet normal 0 0 1
    outer loop
      vertex 6.25668 9.45341 1
      vertex 6.1955 9.77413 1
      vertex 1 14 1
    endloop
  endfacet
  facet normal 0 0 1
    outer loop
      vertex 6.67156 8.57176 1
      vertex 6.4966 8.84744 1
      vertex 1 14 1
    endloop
  endfacet
  facet normal 0 0 1
    outer loop
      vertex 16.55 0 1
      vertex 8.61174 7.50513 1
      vertex 8.28781 7.54605 1
    endloop
  endfacet
  facet normal 0 0 1
    outer loop
      vertex 6.35758 9.14288 1
      vertex 6.25668 9.45341 1
      vertex 1 14 1
    endloop
  endfacet
  facet normal 0 0 1
    outer loop
      vertex 1 0 1
      vertex 16.55 0 1
      vertex 7.97156 7.62725 1
    endloop
  endfacet
  facet normal 0 0 1
    outer loop
      vertex 6.4966 8.84744 1
      vertex 6.35758 9.14288 1
      vertex 1 14 1
    endloop
  endfacet
  facet normal 0 0 1
    outer loop
      vertex 1 0 1
      vertex 7.97156 7.62725 1
      vertex 7.66797 7.74745 1
    endloop
  endfacet
  facet normal 0 0 1
    outer loop
      vertex 1 0 1
      vertex 7.66797 7.74745 1
      vertex 7.38185 7.90475 1
    endloop
  endfacet
  facet normal 0 0 1
    outer loop
      vertex 1 0 1
      vertex 7.38185 7.90475 1
      vertex 7.1177 8.09667 1
    endloop
  endfacet
  facet normal 0 0 1
    outer loop
      vertex 1 0 1
      vertex 6.87968 8.32018 1
      vertex 1 14 1
    endloop
  endfacet
  facet normal 0 0 1
    outer loop
      vertex 1 0 1
      vertex 7.1177 8.09667 1
      vertex 6.87968 8.32018 1
    endloop
  endfacet
  facet normal 0 0 1
    outer loop
      vertex 8.61174 12.6949 1
      vertex 8.93825 12.6949 1
      vertex 16.55 14 1
    endloop
  endfacet
  facet normal 0 0 1
    outer loop
      vertex 9.26219 12.6539 1
      vertex 9.57844 12.5727 1
      vertex 16.55 14 1
    endloop
  endfacet
  facet normal -1 0 0
    outer loop
      vertex 16.55 14 11.5
      vertex 16.55 14 1
      vertex 16.55 0 11.5
    endloop
  endfacet
  facet normal -1 0 0
    outer loop
      vertex 16.55 0 11.5
      vertex 16.55 14 1
      vertex 16.55 0 1
    endloop
  endfacet
  facet normal 0 0 -1
    outer loop
      vertex 16.55 14 11.5
      vertex 16.55 0 11.5
      vertex 1 14 11.5
    endloop
  endfacet
  facet normal 0 0 -1
    outer loop
      vertex 1 14 11.5
      vertex 16.55 0 11.5
      vertex 1 0 11.5
    endloop
  endfacet
  facet normal -0.998027 0.0627899 0
    outer loop
      vertex 4.175 10.1 -6
      vertex 4.175 10.1 0
      vertex 4.21127 10.6765 -6
    endloop
  endfacet
  facet normal -0.998027 0.0627899 0
    outer loop
      vertex 4.21127 10.6765 -6
      vertex 4.175 10.1 0
      vertex 4.21127 10.6765 0
    endloop
  endfacet
  facet normal -0.998027 -0.0627899 0
    outer loop
      vertex 4.175 10.1 -6
      vertex 4.21127 9.52347 -6
      vertex 4.175 10.1 0
    endloop
  endfacet
  facet normal -0.998027 -0.0627899 0
    outer loop
      vertex 4.175 10.1 0
      vertex 4.21127 9.52347 -6
      vertex 4.21127 9.52347 0
    endloop
  endfacet
  facet normal -0.982287 0.187381 0
    outer loop
      vertex 4.21127 10.6765 -6
      vertex 4.21127 10.6765 0
      vertex 4.31952 11.244 -6
    endloop
  endfacet
  facet normal -0.982287 0.187381 0
    outer loop
      vertex 4.31952 11.244 -6
      vertex 4.21127 10.6765 0
      vertex 4.31952 11.244 0
    endloop
  endfacet
  facet normal -0.951056 0.309017 0
    outer loop
      vertex 4.31952 11.244 -6
      vertex 4.31952 11.244 0
      vertex 4.49803 11.7934 -6
    endloop
  endfacet
  facet normal -0.951056 0.309017 0
    outer loop
      vertex 4.49803 11.7934 -6
      vertex 4.31952 11.244 0
      vertex 4.49803 11.7934 0
    endloop
  endfacet
  facet normal -0.904827 0.425779 0
    outer loop
      vertex 4.49803 11.7934 -6
      vertex 4.49803 11.7934 0
      vertex 4.74399 12.3161 -6
    endloop
  endfacet
  facet normal -0.904827 0.425779 0
    outer loop
      vertex 4.74399 12.3161 -6
      vertex 4.49803 11.7934 0
      vertex 4.74399 12.3161 0
    endloop
  endfacet
  facet normal -0.844327 0.535828 0
    outer loop
      vertex 4.74399 12.3161 -6
      vertex 4.74399 12.3161 0
      vertex 5.05352 12.8038 -6
    endloop
  endfacet
  facet normal -0.844327 0.535828 0
    outer loop
      vertex 5.05352 12.8038 -6
      vertex 4.74399 12.3161 0
      vertex 5.05352 12.8038 0
    endloop
  endfacet
  facet normal -0.770514 0.637423 0
    outer loop
      vertex 5.05352 12.8038 -6
      vertex 5.05352 12.8038 0
      vertex 5.42174 13.2489 -6
    endloop
  endfacet
  facet normal -0.770514 0.637423 0
    outer loop
      vertex 5.42174 13.2489 -6
      vertex 5.05352 12.8038 0
      vertex 5.42174 13.2489 0
    endloop
  endfacet
  facet normal -0.684546 0.728969 0
    outer loop
      vertex 5.42174 13.2489 -6
      vertex 5.42174 13.2489 0
      vertex 5.84285 13.6444 -6
    endloop
  endfacet
  facet normal -0.684546 0.728969 0
    outer loop
      vertex 5.84285 13.6444 -6
      vertex 5.42174 13.2489 0
      vertex 5.84285 13.6444 0
    endloop
  endfacet
  facet normal -0.587785 0.809017 0
    outer loop
      vertex 5.84285 13.6444 -6
      vertex 5.84285 13.6444 0
      vertex 6.3102 13.9839 -6
    endloop
  endfacet
  facet normal -0.587785 0.809017 0
    outer loop
      vertex 6.3102 13.9839 -6
      vertex 5.84285 13.6444 0
      vertex 6.3102 13.9839 0
    endloop
  endfacet
  facet normal -0.481754 0.876306 0
    outer loop
      vertex 6.3102 13.9839 -6
      vertex 6.3102 13.9839 0
      vertex 6.81642 14.2622 -6
    endloop
  endfacet
  facet normal -0.481754 0.876306 0
    outer loop
      vertex 6.81642 14.2622 -6
      vertex 6.3102 13.9839 0
      vertex 6.81642 14.2622 0
    endloop
  endfacet
  facet normal -0.368125 0.929776 0
    outer loop
      vertex 6.81642 14.2622 -6
      vertex 6.81642 14.2622 0
      vertex 7.35352 14.4749 -6
    endloop
  endfacet
  facet normal -0.368125 0.929776 0
    outer loop
      vertex 7.35352 14.4749 -6
      vertex 6.81642 14.2622 0
      vertex 7.35352 14.4749 0
    endloop
  endfacet
  facet normal -0.248689 0.968583 0
    outer loop
      vertex 7.35352 14.4749 -6
      vertex 7.35352 14.4749 0
      vertex 7.91305 14.6185 -6
    endloop
  endfacet
  facet normal -0.248689 0.968583 0
    outer loop
      vertex 7.91305 14.6185 -6
      vertex 7.35352 14.4749 0
      vertex 7.91305 14.6185 0
    endloop
  endfacet
  facet normal -0.125334 0.992115 0
    outer loop
      vertex 7.91305 14.6185 -6
      vertex 7.91305 14.6185 0
      vertex 8.48616 14.6909 -6
    endloop
  endfacet
  facet normal -0.125334 0.992115 0
    outer loop
      vertex 8.48616 14.6909 -6
      vertex 7.91305 14.6185 0
      vertex 8.48616 14.6909 0
    endloop
  endfacet
  facet normal 0 1 0
    outer loop
      vertex 8.48616 14.6909 -6
      vertex 8.48616 14.6909 0
      vertex 9.06384 14.6909 -6
    endloop
  endfacet
  facet normal 0 1 0
    outer loop
      vertex 9.06384 14.6909 -6
      vertex 8.48616 14.6909 0
      vertex 9.06384 14.6909 0
    endloop
  endfacet
  facet normal 0.125334 0.992115 0
    outer loop
      vertex 9.06384 14.6909 -6
      vertex 9.06384 14.6909 0
      vertex 9.63695 14.6185 -6
    endloop
  endfacet
  facet normal 0.125334 0.992115 0
    outer loop
      vertex 9.63695 14.6185 -6
      vertex 9.06384 14.6909 0
      vertex 9.63695 14.6185 0
    endloop
  endfacet
  facet normal 0.248689 0.968583 0
    outer loop
      vertex 9.63695 14.6185 -6
      vertex 9.63695 14.6185 0
      vertex 10.1965 14.4749 -6
    endloop
  endfacet
  facet normal 0.248689 0.968583 0
    outer loop
      vertex 10.1965 14.4749 -6
      vertex 9.63695 14.6185 0
      vertex 10.1965 14.4749 0
    endloop
  endfacet
  facet normal 0.368125 0.929776 0
    outer loop
      vertex 10.1965 14.4749 -6
      vertex 10.1965 14.4749 0
      vertex 10.7336 14.2622 -6
    endloop
  endfacet
  facet normal 0.368125 0.929776 0
    outer loop
      vertex 10.7336 14.2622 -6
      vertex 10.1965 14.4749 0
      vertex 10.7336 14.2622 0
    endloop
  endfacet
  facet normal 0.481754 0.876306 0
    outer loop
      vertex 10.7336 14.2622 -6
      vertex 10.7336 14.2622 0
      vertex 11.2398 13.9839 -6
    endloop
  endfacet
  facet normal 0.481754 0.876306 0
    outer loop
      vertex 11.2398 13.9839 -6
      vertex 10.7336 14.2622 0
      vertex 11.2398 13.9839 0
    endloop
  endfacet
  facet normal 0.587785 0.809017 0
    outer loop
      vertex 11.2398 13.9839 -6
      vertex 11.2398 13.9839 0
      vertex 11.7072 13.6444 -6
    endloop
  endfacet
  facet normal 0.587785 0.809017 0
    outer loop
      vertex 11.7072 13.6444 -6
      vertex 11.2398 13.9839 0
      vertex 11.7072 13.6444 0
    endloop
  endfacet
  facet normal 0.684546 0.728969 0
    outer loop
      vertex 11.7072 13.6444 -6
      vertex 11.7072 13.6444 0
      vertex 12.1283 13.2489 -6
    endloop
  endfacet
  facet normal 0.684546 0.728969 0
    outer loop
      vertex 12.1283 13.2489 -6
      vertex 11.7072 13.6444 0
      vertex 12.1283 13.2489 0
    endloop
  endfacet
  facet normal 0.770514 0.637423 0
    outer loop
      vertex 12.4965 12.8038 -6
      vertex 12.1283 13.2489 -6
      vertex 12.1283 13.2489 0
    endloop
  endfacet
  facet normal 0.770514 0.637423 0
    outer loop
      vertex 12.4965 12.8038 0
      vertex 12.4965 12.8038 -6
      vertex 12.1283 13.2489 0
    endloop
  endfacet
  facet normal 0.844327 0.535828 0
    outer loop
      vertex 12.806 12.3161 -6
      vertex 12.4965 12.8038 -6
      vertex 12.4965 12.8038 0
    endloop
  endfacet
  facet normal 0.844327 0.535828 0
    outer loop
      vertex 12.806 12.3161 0
      vertex 12.806 12.3161 -6
      vertex 12.4965 12.8038 0
    endloop
  endfacet
  facet normal 0.904827 0.425779 0
    outer loop
      vertex 13.052 11.7934 -6
      vertex 12.806 12.3161 -6
      vertex 12.806 12.3161 0
    endloop
  endfacet
  facet normal 0.904827 0.425779 0
    outer loop
      vertex 13.052 11.7934 0
      vertex 13.052 11.7934 -6
      vertex 12.806 12.3161 0
    endloop
  endfacet
  facet normal 0.951056 0.309017 0
    outer loop
      vertex 13.2305 11.244 -6
      vertex 13.052 11.7934 -6
      vertex 13.052 11.7934 0
    endloop
  endfacet
  facet normal 0.951056 0.309017 0
    outer loop
      vertex 13.2305 11.244 0
      vertex 13.2305 11.244 -6
      vertex 13.052 11.7934 0
    endloop
  endfacet
  facet normal 0.982287 0.187381 0
    outer loop
      vertex 13.3387 10.6765 -6
      vertex 13.2305 11.244 -6
      vertex 13.2305 11.244 0
    endloop
  endfacet
  facet normal 0.982287 0.187381 0
    outer loop
      vertex 13.3387 10.6765 0
      vertex 13.3387 10.6765 -6
      vertex 13.2305 11.244 0
    endloop
  endfacet
  facet normal 0.998027 0.0627899 0
    outer loop
      vertex 13.375 10.1 -6
      vertex 13.3387 10.6765 -6
      vertex 13.3387 10.6765 0
    endloop
  endfacet
  facet normal 0.998027 0.0627899 0
    outer loop
      vertex 13.375 10.1 0
      vertex 13.375 10.1 -6
      vertex 13.3387 10.6765 0
    endloop
  endfacet
  facet normal 0.998027 -0.0627899 0
    outer loop
      vertex 13.3387 9.52347 0
      vertex 13.3387 9.52347 -6
      vertex 13.375 10.1 -6
    endloop
  endfacet
  facet normal 0.998027 -0.0627899 0
    outer loop
      vertex 13.375 10.1 0
      vertex 13.3387 9.52347 0
      vertex 13.375 10.1 -6
    endloop
  endfacet
  facet normal 0.982287 -0.187381 0
    outer loop
      vertex 13.2305 8.95603 0
      vertex 13.2305 8.95603 -6
      vertex 13.3387 9.52347 -6
    endloop
  endfacet
  facet normal 0.982287 -0.187381 0
    outer loop
      vertex 13.3387 9.52347 0
      vertex 13.2305 8.95603 0
      vertex 13.3387 9.52347 -6
    endloop
  endfacet
  facet normal 0.951056 -0.309017 0
    outer loop
      vertex 13.052 8.40663 0
      vertex 13.052 8.40663 -6
      vertex 13.2305 8.95603 -6
    endloop
  endfacet
  facet normal 0.951056 -0.309017 0
    outer loop
      vertex 13.2305 8.95603 0
      vertex 13.052 8.40663 0
      vertex 13.2305 8.95603 -6
    endloop
  endfacet
  facet normal 0.904827 -0.425779 0
    outer loop
      vertex 12.806 7.88393 0
      vertex 12.806 7.88393 -6
      vertex 13.052 8.40663 -6
    endloop
  endfacet
  facet normal 0.904827 -0.425779 0
    outer loop
      vertex 13.052 8.40663 0
      vertex 12.806 7.88393 0
      vertex 13.052 8.40663 -6
    endloop
  endfacet
  facet normal 0.844327 -0.535828 0
    outer loop
      vertex 12.4965 7.39619 0
      vertex 12.4965 7.39619 -6
      vertex 12.806 7.88393 -6
    endloop
  endfacet
  facet normal 0.844327 -0.535828 0
    outer loop
      vertex 12.806 7.88393 0
      vertex 12.4965 7.39619 0
      vertex 12.806 7.88393 -6
    endloop
  endfacet
  facet normal 0.770514 -0.637423 0
    outer loop
      vertex 12.1283 6.95108 0
      vertex 12.1283 6.95108 -6
      vertex 12.4965 7.39619 -6
    endloop
  endfacet
  facet normal 0.770514 -0.637423 0
    outer loop
      vertex 12.4965 7.39619 0
      vertex 12.1283 6.95108 0
      vertex 12.4965 7.39619 -6
    endloop
  endfacet
  facet normal 0.684546 -0.728969 0
    outer loop
      vertex 11.7072 6.55564 0
      vertex 11.7072 6.55564 -6
      vertex 12.1283 6.95108 -6
    endloop
  endfacet
  facet normal 0.684546 -0.728969 0
    outer loop
      vertex 12.1283 6.95108 0
      vertex 11.7072 6.55564 0
      vertex 12.1283 6.95108 -6
    endloop
  endfacet
  facet normal 0.587785 -0.809017 0
    outer loop
      vertex 11.2398 6.21609 0
      vertex 11.2398 6.21609 -6
      vertex 11.7072 6.55564 -6
    endloop
  endfacet
  facet normal 0.587785 -0.809017 0
    outer loop
      vertex 11.7072 6.55564 0
      vertex 11.2398 6.21609 0
      vertex 11.7072 6.55564 -6
    endloop
  endfacet
  facet normal 0.481754 -0.876306 0
    outer loop
      vertex 10.7336 5.9378 0
      vertex 10.7336 5.9378 -6
      vertex 11.2398 6.21609 -6
    endloop
  endfacet
  facet normal 0.481754 -0.876306 0
    outer loop
      vertex 11.2398 6.21609 0
      vertex 10.7336 5.9378 0
      vertex 11.2398 6.21609 -6
    endloop
  endfacet
  facet normal 0.368125 -0.929776 0
    outer loop
      vertex 10.1965 5.72514 0
      vertex 10.1965 5.72514 -6
      vertex 10.7336 5.9378 -6
    endloop
  endfacet
  facet normal 0.368125 -0.929776 0
    outer loop
      vertex 10.7336 5.9378 0
      vertex 10.1965 5.72514 0
      vertex 10.7336 5.9378 -6
    endloop
  endfacet
  facet normal 0.248689 -0.968583 0
    outer loop
      vertex 9.63695 5.58148 0
      vertex 9.63695 5.58148 -6
      vertex 10.1965 5.72514 -6
    endloop
  endfacet
  facet normal 0.248689 -0.968583 0
    outer loop
      vertex 10.1965 5.72514 0
      vertex 9.63695 5.58148 0
      vertex 10.1965 5.72514 -6
    endloop
  endfacet
  facet normal 0.125334 -0.992115 0
    outer loop
      vertex 9.06384 5.50908 0
      vertex 9.06384 5.50908 -6
      vertex 9.63695 5.58148 -6
    endloop
  endfacet
  facet normal 0.125334 -0.992115 0
    outer loop
      vertex 9.63695 5.58148 0
      vertex 9.06384 5.50908 0
      vertex 9.63695 5.58148 -6
    endloop
  endfacet
  facet normal 0 -1 0
    outer loop
      vertex 8.48616 5.50908 0
      vertex 8.48616 5.50908 -6
      vertex 9.06384 5.50908 -6
    endloop
  endfacet
  facet normal 0 -1 0
    outer loop
      vertex 9.06384 5.50908 0
      vertex 8.48616 5.50908 0
      vertex 9.06384 5.50908 -6
    endloop
  endfacet
  facet normal -0.125334 -0.992115 0
    outer loop
      vertex 7.91305 5.58148 0
      vertex 7.91305 5.58148 -6
      vertex 8.48616 5.50908 -6
    endloop
  endfacet
  facet normal -0.125334 -0.992115 0
    outer loop
      vertex 8.48616 5.50908 0
      vertex 7.91305 5.58148 0
      vertex 8.48616 5.50908 -6
    endloop
  endfacet
  facet normal -0.248689 -0.968583 0
    outer loop
      vertex 7.35352 5.72514 0
      vertex 7.35352 5.72514 -6
      vertex 7.91305 5.58148 -6
    endloop
  endfacet
  facet normal -0.248689 -0.968583 0
    outer loop
      vertex 7.91305 5.58148 0
      vertex 7.35352 5.72514 0
      vertex 7.91305 5.58148 -6
    endloop
  endfacet
  facet normal -0.368125 -0.929776 0
    outer loop
      vertex 6.81642 5.9378 0
      vertex 6.81642 5.9378 -6
      vertex 7.35352 5.72514 -6
    endloop
  endfacet
  facet normal -0.368125 -0.929776 0
    outer loop
      vertex 7.35352 5.72514 0
      vertex 6.81642 5.9378 0
      vertex 7.35352 5.72514 -6
    endloop
  endfacet
  facet normal -0.481754 -0.876306 0
    outer loop
      vertex 6.3102 6.21609 0
      vertex 6.3102 6.21609 -6
      vertex 6.81642 5.9378 -6
    endloop
  endfacet
  facet normal -0.481754 -0.876306 0
    outer loop
      vertex 6.81642 5.9378 0
      vertex 6.3102 6.21609 0
      vertex 6.81642 5.9378 -6
    endloop
  endfacet
  facet normal -0.587785 -0.809017 0
    outer loop
      vertex 5.84285 6.55564 0
      vertex 5.84285 6.55564 -6
      vertex 6.3102 6.21609 -6
    endloop
  endfacet
  facet normal -0.587785 -0.809017 0
    outer loop
      vertex 6.3102 6.21609 0
      vertex 5.84285 6.55564 0
      vertex 6.3102 6.21609 -6
    endloop
  endfacet
  facet normal -0.684546 -0.728969 0
    outer loop
      vertex 5.42174 6.95108 0
      vertex 5.42174 6.95108 -6
      vertex 5.84285 6.55564 -6
    endloop
  endfacet
  facet normal -0.684546 -0.728969 0
    outer loop
      vertex 5.84285 6.55564 0
      vertex 5.42174 6.95108 0
      vertex 5.84285 6.55564 -6
    endloop
  endfacet
  facet normal -0.770514 -0.637423 0
    outer loop
      vertex 5.05352 7.39619 -6
      vertex 5.42174 6.95108 -6
      vertex 5.05352 7.39619 0
    endloop
  endfacet
  facet normal -0.770514 -0.637423 0
    outer loop
      vertex 5.05352 7.39619 0
      vertex 5.42174 6.95108 -6
      vertex 5.42174 6.95108 0
    endloop
  endfacet
  facet normal -0.844327 -0.535828 0
    outer loop
      vertex 4.74399 7.88393 -6
      vertex 5.05352 7.39619 -6
      vertex 4.74399 7.88393 0
    endloop
  endfacet
  facet normal -0.844327 -0.535828 0
    outer loop
      vertex 4.74399 7.88393 0
      vertex 5.05352 7.39619 -6
      vertex 5.05352 7.39619 0
    endloop
  endfacet
  facet normal -0.904827 -0.425779 0
    outer loop
      vertex 4.49803 8.40663 -6
      vertex 4.74399 7.88393 -6
      vertex 4.49803 8.40663 0
    endloop
  endfacet
  facet normal -0.904827 -0.425779 0
    outer loop
      vertex 4.49803 8.40663 0
      vertex 4.74399 7.88393 -6
      vertex 4.74399 7.88393 0
    endloop
  endfacet
  facet normal -0.951056 -0.309017 0
    outer loop
      vertex 4.31952 8.95603 -6
      vertex 4.49803 8.40663 -6
      vertex 4.31952 8.95603 0
    endloop
  endfacet
  facet normal -0.951056 -0.309017 0
    outer loop
      vertex 4.31952 8.95603 0
      vertex 4.49803 8.40663 -6
      vertex 4.49803 8.40663 0
    endloop
  endfacet
  facet normal -0.982287 -0.187381 0
    outer loop
      vertex 4.21127 9.52347 -6
      vertex 4.31952 8.95603 -6
      vertex 4.21127 9.52347 0
    endloop
  endfacet
  facet normal -0.982287 -0.187381 0
    outer loop
      vertex 4.21127 9.52347 0
      vertex 4.31952 8.95603 -6
      vertex 4.31952 8.95603 0
    endloop
  endfacet
  facet normal 0 -1 0
    outer loop
      vertex 16.55 14 1
      vertex 16.55 14 11.5
      vertex 1 14 11.5
    endloop
  endfacet
  facet normal 0 -1 0
    outer loop
      vertex 1 14 1
      vertex 16.55 14 1
      vertex 1 14 11.5
    endloop
  endfacet
  facet normal 0.998027 0.0627913 0
    outer loop
      vertex 6.175 10.1 1
      vertex 6.1955 9.77413 1
      vertex 6.1955 9.77413 -6
    endloop
  endfacet
  facet normal 0.998027 0.0627913 0
    outer loop
      vertex 6.175 10.1 -6
      vertex 6.175 10.1 1
      vertex 6.1955 9.77413 -6
    endloop
  endfacet
  facet normal 0.998027 -0.0627913 0
    outer loop
      vertex 6.1955 10.4259 -6
      vertex 6.1955 10.4259 1
      vertex 6.175 10.1 1
    endloop
  endfacet
  facet normal 0.998027 -0.0627913 0
    outer loop
      vertex 6.175 10.1 -6
      vertex 6.1955 10.4259 -6
      vertex 6.175 10.1 1
    endloop
  endfacet
  facet normal 0.982287 0.187381 0
    outer loop
      vertex 6.1955 9.77413 1
      vertex 6.25668 9.45341 1
      vertex 6.25668 9.45341 -6
    endloop
  endfacet
  facet normal 0.982287 0.187381 0
    outer loop
      vertex 6.1955 9.77413 -6
      vertex 6.1955 9.77413 1
      vertex 6.25668 9.45341 -6
    endloop
  endfacet
  facet normal 0.951057 0.309016 0
    outer loop
      vertex 6.25668 9.45341 1
      vertex 6.35758 9.14288 1
      vertex 6.35758 9.14288 -6
    endloop
  endfacet
  facet normal 0.951057 0.309016 0
    outer loop
      vertex 6.25668 9.45341 -6
      vertex 6.25668 9.45341 1
      vertex 6.35758 9.14288 -6
    endloop
  endfacet
  facet normal 0.904827 0.42578 0
    outer loop
      vertex 6.35758 9.14288 1
      vertex 6.4966 8.84744 1
      vertex 6.4966 8.84744 -6
    endloop
  endfacet
  facet normal 0.904827 0.42578 0
    outer loop
      vertex 6.35758 9.14288 -6
      vertex 6.35758 9.14288 1
      vertex 6.4966 8.84744 -6
    endloop
  endfacet
  facet normal 0.844328 0.535827 0
    outer loop
      vertex 6.4966 8.84744 1
      vertex 6.67156 8.57176 1
      vertex 6.67156 8.57176 -6
    endloop
  endfacet
  facet normal 0.844328 0.535827 0
    outer loop
      vertex 6.4966 8.84744 -6
      vertex 6.4966 8.84744 1
      vertex 6.67156 8.57176 -6
    endloop
  endfacet
  facet normal 0.770512 0.637426 0
    outer loop
      vertex 6.67156 8.57176 1
      vertex 6.87968 8.32018 1
      vertex 6.87968 8.32018 -6
    endloop
  endfacet
  facet normal 0.770512 0.637426 0
    outer loop
      vertex 6.67156 8.57176 -6
      vertex 6.67156 8.57176 1
      vertex 6.87968 8.32018 -6
    endloop
  endfacet
  facet normal 0.684547 0.728968 0
    outer loop
      vertex 7.1177 8.09667 1
      vertex 7.1177 8.09667 -6
      vertex 6.87968 8.32018 1
    endloop
  endfacet
  facet normal 0.684547 0.728968 0
    outer loop
      vertex 6.87968 8.32018 1
      vertex 7.1177 8.09667 -6
      vertex 6.87968 8.32018 -6
    endloop
  endfacet
  facet normal 0.587788 0.809015 0
    outer loop
      vertex 7.38185 7.90475 1
      vertex 7.38185 7.90475 -6
      vertex 7.1177 8.09667 1
    endloop
  endfacet
  facet normal 0.587788 0.809015 0
    outer loop
      vertex 7.1177 8.09667 1
      vertex 7.38185 7.90475 -6
      vertex 7.1177 8.09667 -6
    endloop
  endfacet
  facet normal 0.481751 0.876308 0
    outer loop
      vertex 7.66797 7.74745 1
      vertex 7.66797 7.74745 -6
      vertex 7.38185 7.90475 1
    endloop
  endfacet
  facet normal 0.481751 0.876308 0
    outer loop
      vertex 7.38185 7.90475 1
      vertex 7.66797 7.74745 -6
      vertex 7.38185 7.90475 -6
    endloop
  endfacet
  facet normal 0.368126 0.929776 0
    outer loop
      vertex 7.97156 7.62725 1
      vertex 7.97156 7.62725 -6
      vertex 7.66797 7.74745 1
    endloop
  endfacet
  facet normal 0.368126 0.929776 0
    outer loop
      vertex 7.66797 7.74745 1
      vertex 7.97156 7.62725 -6
      vertex 7.66797 7.74745 -6
    endloop
  endfacet
  facet normal 0.24869 0.968583 0
    outer loop
      vertex 8.28781 7.54605 1
      vertex 8.28781 7.54605 -6
      vertex 7.97156 7.62725 1
    endloop
  endfacet
  facet normal 0.24869 0.968583 0
    outer loop
      vertex 7.97156 7.62725 1
      vertex 8.28781 7.54605 -6
      vertex 7.97156 7.62725 -6
    endloop
  endfacet
  facet normal 0.125331 0.992115 0
    outer loop
      vertex 8.61174 7.50513 1
      vertex 8.61174 7.50513 -6
      vertex 8.28781 7.54605 1
    endloop
  endfacet
  facet normal 0.125331 0.992115 0
    outer loop
      vertex 8.28781 7.54605 1
      vertex 8.61174 7.50513 -6
      vertex 8.28781 7.54605 -6
    endloop
  endfacet
  facet normal 0 1 0
    outer loop
      vertex 8.93825 7.50513 1
      vertex 8.93825 7.50513 -6
      vertex 8.61174 7.50513 1
    endloop
  endfacet
  facet normal 0 1 0
    outer loop
      vertex 8.61174 7.50513 1
      vertex 8.93825 7.50513 -6
      vertex 8.61174 7.50513 -6
    endloop
  endfacet
  facet normal -0.125331 0.992115 0
    outer loop
      vertex 9.26219 7.54605 1
      vertex 9.26219 7.54605 -6
      vertex 8.93825 7.50513 1
    endloop
  endfacet
  facet normal -0.125331 0.992115 0
    outer loop
      vertex 8.93825 7.50513 1
      vertex 9.26219 7.54605 -6
      vertex 8.93825 7.50513 -6
    endloop
  endfacet
  facet normal -0.24869 0.968583 0
    outer loop
      vertex 9.57844 7.62725 1
      vertex 9.57844 7.62725 -6
      vertex 9.26219 7.54605 1
    endloop
  endfacet
  facet normal -0.24869 0.968583 0
    outer loop
      vertex 9.26219 7.54605 1
      vertex 9.57844 7.62725 -6
      vertex 9.26219 7.54605 -6
    endloop
  endfacet
  facet normal -0.368126 0.929776 0
    outer loop
      vertex 9.88203 7.74745 1
      vertex 9.88203 7.74745 -6
      vertex 9.57844 7.62725 1
    endloop
  endfacet
  facet normal -0.368126 0.929776 0
    outer loop
      vertex 9.57844 7.62725 1
      vertex 9.88203 7.74745 -6
      vertex 9.57844 7.62725 -6
    endloop
  endfacet
  facet normal -0.481751 0.876308 0
    outer loop
      vertex 10.1681 7.90475 1
      vertex 10.1681 7.90475 -6
      vertex 9.88203 7.74745 1
    endloop
  endfacet
  facet normal -0.481751 0.876308 0
    outer loop
      vertex 9.88203 7.74745 1
      vertex 10.1681 7.90475 -6
      vertex 9.88203 7.74745 -6
    endloop
  endfacet
  facet normal -0.587788 0.809015 0
    outer loop
      vertex 10.4323 8.09667 1
      vertex 10.4323 8.09667 -6
      vertex 10.1681 7.90475 1
    endloop
  endfacet
  facet normal -0.587788 0.809015 0
    outer loop
      vertex 10.1681 7.90475 1
      vertex 10.4323 8.09667 -6
      vertex 10.1681 7.90475 -6
    endloop
  endfacet
  facet normal -0.684547 0.728968 0
    outer loop
      vertex 10.6703 8.32018 1
      vertex 10.6703 8.32018 -6
      vertex 10.4323 8.09667 1
    endloop
  endfacet
  facet normal -0.684547 0.728968 0
    outer loop
      vertex 10.4323 8.09667 1
      vertex 10.6703 8.32018 -6
      vertex 10.4323 8.09667 -6
    endloop
  endfacet
  facet normal -0.770512 0.637426 0
    outer loop
      vertex 10.8784 8.57176 1
      vertex 10.8784 8.57176 -6
      vertex 10.6703 8.32018 1
    endloop
  endfacet
  facet normal -0.770512 0.637426 0
    outer loop
      vertex 10.6703 8.32018 1
      vertex 10.8784 8.57176 -6
      vertex 10.6703 8.32018 -6
    endloop
  endfacet
  facet normal -0.844328 0.535827 0
    outer loop
      vertex 11.0534 8.84744 1
      vertex 11.0534 8.84744 -6
      vertex 10.8784 8.57176 1
    endloop
  endfacet
  facet normal -0.844328 0.535827 0
    outer loop
      vertex 10.8784 8.57176 1
      vertex 11.0534 8.84744 -6
      vertex 10.8784 8.57176 -6
    endloop
  endfacet
  facet normal -0.904827 0.42578 0
    outer loop
      vertex 11.1924 9.14288 1
      vertex 11.1924 9.14288 -6
      vertex 11.0534 8.84744 1
    endloop
  endfacet
  facet normal -0.904827 0.42578 0
    outer loop
      vertex 11.0534 8.84744 1
      vertex 11.1924 9.14288 -6
      vertex 11.0534 8.84744 -6
    endloop
  endfacet
  facet normal -0.951057 0.309016 0
    outer loop
      vertex 11.2933 9.45341 1
      vertex 11.2933 9.45341 -6
      vertex 11.1924 9.14288 1
    endloop
  endfacet
  facet normal -0.951057 0.309016 0
    outer loop
      vertex 11.1924 9.14288 1
      vertex 11.2933 9.45341 -6
      vertex 11.1924 9.14288 -6
    endloop
  endfacet
  facet normal -0.982287 0.187381 0
    outer loop
      vertex 11.3545 9.77413 1
      vertex 11.3545 9.77413 -6
      vertex 11.2933 9.45341 1
    endloop
  endfacet
  facet normal -0.982287 0.187381 0
    outer loop
      vertex 11.2933 9.45341 1
      vertex 11.3545 9.77413 -6
      vertex 11.2933 9.45341 -6
    endloop
  endfacet
  facet normal -0.998027 0.0627913 0
    outer loop
      vertex 11.375 10.1 1
      vertex 11.375 10.1 -6
      vertex 11.3545 9.77413 1
    endloop
  endfacet
  facet normal -0.998027 0.0627913 0
    outer loop
      vertex 11.3545 9.77413 1
      vertex 11.375 10.1 -6
      vertex 11.3545 9.77413 -6
    endloop
  endfacet
  facet normal -0.998027 -0.0627913 0
    outer loop
      vertex 11.375 10.1 1
      vertex 11.3545 10.4259 1
      vertex 11.375 10.1 -6
    endloop
  endfacet
  facet normal -0.998027 -0.0627913 0
    outer loop
      vertex 11.375 10.1 -6
      vertex 11.3545 10.4259 1
      vertex 11.3545 10.4259 -6
    endloop
  endfacet
  facet normal -0.982287 -0.187381 0
    outer loop
      vertex 11.3545 10.4259 1
      vertex 11.2933 10.7466 1
      vertex 11.3545 10.4259 -6
    endloop
  endfacet
  facet normal -0.982287 -0.187381 0
    outer loop
      vertex 11.3545 10.4259 -6
      vertex 11.2933 10.7466 1
      vertex 11.2933 10.7466 -6
    endloop
  endfacet
  facet normal -0.951057 -0.309016 0
    outer loop
      vertex 11.2933 10.7466 1
      vertex 11.1924 11.0571 1
      vertex 11.2933 10.7466 -6
    endloop
  endfacet
  facet normal -0.951057 -0.309016 0
    outer loop
      vertex 11.2933 10.7466 -6
      vertex 11.1924 11.0571 1
      vertex 11.1924 11.0571 -6
    endloop
  endfacet
  facet normal -0.904827 -0.42578 0
    outer loop
      vertex 11.1924 11.0571 1
      vertex 11.0534 11.3526 1
      vertex 11.1924 11.0571 -6
    endloop
  endfacet
  facet normal -0.904827 -0.42578 0
    outer loop
      vertex 11.1924 11.0571 -6
      vertex 11.0534 11.3526 1
      vertex 11.0534 11.3526 -6
    endloop
  endfacet
  facet normal -0.844328 -0.535827 0
    outer loop
      vertex 11.0534 11.3526 1
      vertex 10.8784 11.6282 1
      vertex 11.0534 11.3526 -6
    endloop
  endfacet
  facet normal -0.844328 -0.535827 0
    outer loop
      vertex 11.0534 11.3526 -6
      vertex 10.8784 11.6282 1
      vertex 10.8784 11.6282 -6
    endloop
  endfacet
  facet normal -0.770512 -0.637426 0
    outer loop
      vertex 10.8784 11.6282 1
      vertex 10.6703 11.8798 1
      vertex 10.8784 11.6282 -6
    endloop
  endfacet
  facet normal -0.770512 -0.637426 0
    outer loop
      vertex 10.8784 11.6282 -6
      vertex 10.6703 11.8798 1
      vertex 10.6703 11.8798 -6
    endloop
  endfacet
  facet normal -0.684547 -0.728968 0
    outer loop
      vertex 10.6703 11.8798 -6
      vertex 10.6703 11.8798 1
      vertex 10.4323 12.1033 1
    endloop
  endfacet
  facet normal -0.684547 -0.728968 0
    outer loop
      vertex 10.4323 12.1033 -6
      vertex 10.6703 11.8798 -6
      vertex 10.4323 12.1033 1
    endloop
  endfacet
  facet normal -0.587788 -0.809015 0
    outer loop
      vertex 10.4323 12.1033 -6
      vertex 10.4323 12.1033 1
      vertex 10.1681 12.2953 1
    endloop
  endfacet
  facet normal -0.587788 -0.809015 0
    outer loop
      vertex 10.1681 12.2953 -6
      vertex 10.4323 12.1033 -6
      vertex 10.1681 12.2953 1
    endloop
  endfacet
  facet normal -0.481751 -0.876308 0
    outer loop
      vertex 10.1681 12.2953 -6
      vertex 10.1681 12.2953 1
      vertex 9.88203 12.4525 1
    endloop
  endfacet
  facet normal -0.481751 -0.876308 0
    outer loop
      vertex 9.88203 12.4525 -6
      vertex 10.1681 12.2953 -6
      vertex 9.88203 12.4525 1
    endloop
  endfacet
  facet normal -0.368126 -0.929776 0
    outer loop
      vertex 9.88203 12.4525 -6
      vertex 9.88203 12.4525 1
      vertex 9.57844 12.5727 1
    endloop
  endfacet
  facet normal -0.368126 -0.929776 0
    outer loop
      vertex 9.57844 12.5727 -6
      vertex 9.88203 12.4525 -6
      vertex 9.57844 12.5727 1
    endloop
  endfacet
  facet normal -0.24869 -0.968583 0
    outer loop
      vertex 9.57844 12.5727 -6
      vertex 9.57844 12.5727 1
      vertex 9.26219 12.6539 1
    endloop
  endfacet
  facet normal -0.24869 -0.968583 0
    outer loop
      vertex 9.26219 12.6539 -6
      vertex 9.57844 12.5727 -6
      vertex 9.26219 12.6539 1
    endloop
  endfacet
  facet normal -0.125331 -0.992115 0
    outer loop
      vertex 9.26219 12.6539 -6
      vertex 9.26219 12.6539 1
      vertex 8.93825 12.6949 1
    endloop
  endfacet
  facet normal -0.125331 -0.992115 0
    outer loop
      vertex 8.93825 12.6949 -6
      vertex 9.26219 12.6539 -6
      vertex 8.93825 12.6949 1
    endloop
  endfacet
  facet normal 0 -1 0
    outer loop
      vertex 8.93825 12.6949 -6
      vertex 8.93825 12.6949 1
      vertex 8.61174 12.6949 1
    endloop
  endfacet
  facet normal 0 -1 0
    outer loop
      vertex 8.61174 12.6949 -6
      vertex 8.93825 12.6949 -6
      vertex 8.61174 12.6949 1
    endloop
  endfacet
  facet normal 0.125331 -0.992115 0
    outer loop
      vertex 8.61174 12.6949 -6
      vertex 8.61174 12.6949 1
      vertex 8.28781 12.6539 1
    endloop
  endfacet
  facet normal 0.125331 -0.992115 0
    outer loop
      vertex 8.28781 12.6539 -6
      vertex 8.61174 12.6949 -6
      vertex 8.28781 12.6539 1
    endloop
  endfacet
  facet normal 0.24869 -0.968583 0
    outer loop
      vertex 8.28781 12.6539 -6
      vertex 8.28781 12.6539 1
      vertex 7.97156 12.5727 1
    endloop
  endfacet
  facet normal 0.24869 -0.968583 0
    outer loop
      vertex 7.97156 12.5727 -6
      vertex 8.28781 12.6539 -6
      vertex 7.97156 12.5727 1
    endloop
  endfacet
  facet normal 0.368126 -0.929776 0
    outer loop
      vertex 7.97156 12.5727 -6
      vertex 7.97156 12.5727 1
      vertex 7.66797 12.4525 1
    endloop
  endfacet
  facet normal 0.368126 -0.929776 0
    outer loop
      vertex 7.66797 12.4525 -6
      vertex 7.97156 12.5727 -6
      vertex 7.66797 12.4525 1
    endloop
  endfacet
  facet normal 0.481751 -0.876308 0
    outer loop
      vertex 7.66797 12.4525 -6
      vertex 7.66797 12.4525 1
      vertex 7.38185 12.2953 1
    endloop
  endfacet
  facet normal 0.481751 -0.876308 0
    outer loop
      vertex 7.38185 12.2953 -6
      vertex 7.66797 12.4525 -6
      vertex 7.38185 12.2953 1
    endloop
  endfacet
  facet normal 0.587788 -0.809015 0
    outer loop
      vertex 7.38185 12.2953 -6
      vertex 7.38185 12.2953 1
      vertex 7.1177 12.1033 1
    endloop
  endfacet
  facet normal 0.587788 -0.809015 0
    outer loop
      vertex 7.1177 12.1033 -6
      vertex 7.38185 12.2953 -6
      vertex 7.1177 12.1033 1
    endloop
  endfacet
  facet normal 0.684547 -0.728968 0
    outer loop
      vertex 7.1177 12.1033 -6
      vertex 7.1177 12.1033 1
      vertex 6.87968 11.8798 1
    endloop
  endfacet
  facet normal 0.684547 -0.728968 0
    outer loop
      vertex 6.87968 11.8798 -6
      vertex 7.1177 12.1033 -6
      vertex 6.87968 11.8798 1
    endloop
  endfacet
  facet normal 0.770512 -0.637426 0
    outer loop
      vertex 6.87968 11.8798 -6
      vertex 6.87968 11.8798 1
      vertex 6.67156 11.6282 1
    endloop
  endfacet
  facet normal 0.770512 -0.637426 0
    outer loop
      vertex 6.67156 11.6282 -6
      vertex 6.87968 11.8798 -6
      vertex 6.67156 11.6282 1
    endloop
  endfacet
  facet normal 0.844328 -0.535827 0
    outer loop
      vertex 6.67156 11.6282 -6
      vertex 6.67156 11.6282 1
      vertex 6.4966 11.3526 1
    endloop
  endfacet
  facet normal 0.844328 -0.535827 0
    outer loop
      vertex 6.4966 11.3526 -6
      vertex 6.67156 11.6282 -6
      vertex 6.4966 11.3526 1
    endloop
  endfacet
  facet normal 0.904827 -0.42578 0
    outer loop
      vertex 6.4966 11.3526 -6
      vertex 6.4966 11.3526 1
      vertex 6.35758 11.0571 1
    endloop
  endfacet
  facet normal 0.904827 -0.42578 0
    outer loop
      vertex 6.35758 11.0571 -6
      vertex 6.4966 11.3526 -6
      vertex 6.35758 11.0571 1
    endloop
  endfacet
  facet normal 0.951057 -0.309016 0
    outer loop
      vertex 6.35758 11.0571 -6
      vertex 6.35758 11.0571 1
      vertex 6.25668 10.7466 1
    endloop
  endfacet
  facet normal 0.951057 -0.309016 0
    outer loop
      vertex 6.25668 10.7466 -6
      vertex 6.35758 11.0571 -6
      vertex 6.25668 10.7466 1
    endloop
  endfacet
  facet normal 0.982287 -0.187381 0
    outer loop
      vertex 6.25668 10.7466 -6
      vertex 6.25668 10.7466 1
      vertex 6.1955 10.4259 1
    endloop
  endfacet
  facet normal 0.982287 -0.187381 0
    outer loop
      vertex 6.1955 10.4259 -6
      vertex 6.25668 10.7466 -6
      vertex 6.1955 10.4259 1
    endloop
  endfacet
  facet normal 0 0 -1
    outer loop
      vertex 4.175 10.1 -6
      vertex 4.21127 10.6765 -6
      vertex 4.21127 9.52347 -6
    endloop
  endfacet
  facet normal 0 0 -1
    outer loop
      vertex 4.21127 9.52347 -6
      vertex 4.21127 10.6765 -6
      vertex 4.31952 11.244 -6
    endloop
  endfacet
  facet normal 0 0 -1
    outer loop
      vertex 4.21127 9.52347 -6
      vertex 4.31952 11.244 -6
      vertex 4.49803 11.7934 -6
    endloop
  endfacet
  facet normal 0 0 -1
    outer loop
      vertex 4.21127 9.52347 -6
      vertex 4.49803 11.7934 -6
      vertex 4.74399 12.3161 -6
    endloop
  endfacet
  facet normal 0 0 -1
    outer loop
      vertex 4.21127 9.52347 -6
      vertex 4.74399 12.3161 -6
      vertex 5.05352 12.8038 -6
    endloop
  endfacet
  facet normal 0 0 -1
    outer loop
      vertex 4.21127 9.52347 -6
      vertex 5.05352 12.8038 -6
      vertex 5.42174 13.2489 -6
    endloop
  endfacet
  facet normal 0 0 -1
    outer loop
      vertex 4.21127 9.52347 -6
      vertex 5.42174 13.2489 -6
      vertex 5.84285 13.6444 -6
    endloop
  endfacet
  facet normal 0 0 -1
    outer loop
      vertex 4.21127 9.52347 -6
      vertex 5.84285 13.6444 -6
      vertex 6.3102 13.9839 -6
    endloop
  endfacet
  facet normal 0 0 -1
    outer loop
      vertex 4.21127 9.52347 -6
      vertex 6.3102 13.9839 -6
      vertex 6.81642 14.2622 -6
    endloop
  endfacet
  facet normal 0 0 -1
    outer loop
      vertex 4.21127 9.52347 -6
      vertex 6.81642 14.2622 -6
      vertex 7.35352 14.4749 -6
    endloop
  endfacet
  facet normal 0 0 -1
    outer loop
      vertex 4.21127 9.52347 -6
      vertex 7.35352 14.4749 -6
      vertex 7.91305 14.6185 -6
    endloop
  endfacet
  facet normal 0 0 -1
    outer loop
      vertex 4.21127 9.52347 -6
      vertex 7.91305 14.6185 -6
      vertex 8.48616 14.6909 -6
    endloop
  endfacet
  facet normal 0 0 -1
    outer loop
      vertex 4.21127 9.52347 -6
      vertex 8.48616 14.6909 -6
      vertex 9.06384 14.6909 -6
    endloop
  endfacet
  facet normal 0 0 -1
    outer loop
      vertex 4.21127 9.52347 -6
      vertex 9.06384 14.6909 -6
      vertex 9.63695 14.6185 -6
    endloop
  endfacet
  facet normal 0 0 -1
    outer loop
      vertex 7.66797 12.4525 -6
      vertex 9.63695 14.6185 -6
      vertex 10.1965 14.4749 -6
    endloop
  endfacet
  facet normal 0 0 -1
    outer loop
      vertex 8.28781 12.6539 -6
      vertex 10.1965 14.4749 -6
      vertex 10.7336 14.2622 -6
    endloop
  endfacet
  facet normal 0 0 -1
    outer loop
      vertex 8.93825 12.6949 -6
      vertex 10.7336 14.2622 -6
      vertex 11.2398 13.9839 -6
    endloop
  endfacet
  facet normal 0 0 -1
    outer loop
      vertex 9.57844 12.5727 -6
      vertex 11.2398 13.9839 -6
      vertex 11.7072 13.6444 -6
    endloop
  endfacet
  facet normal 0 0 -1
    outer loop
      vertex 9.88203 12.4525 -6
      vertex 11.7072 13.6444 -6
      vertex 12.1283 13.2489 -6
    endloop
  endfacet
  facet normal 0 0 -1
    outer loop
      vertex 10.4323 12.1033 -6
      vertex 12.1283 13.2489 -6
      vertex 12.4965 12.8038 -6
    endloop
  endfacet
  facet normal 0 0 -1
    outer loop
      vertex 10.6703 11.8798 -6
      vertex 12.4965 12.8038 -6
      vertex 12.806 12.3161 -6
    endloop
  endfacet
  facet normal 0 0 -1
    outer loop
      vertex 11.0534 11.3526 -6
      vertex 12.806 12.3161 -6
      vertex 13.052 11.7934 -6
    endloop
  endfacet
  facet normal 0 0 -1
    outer loop
      vertex 11.1924 11.0571 -6
      vertex 13.052 11.7934 -6
      vertex 13.2305 11.244 -6
    endloop
  endfacet
  facet normal 0 0 -1
    outer loop
      vertex 11.2933 10.7466 -6
      vertex 13.2305 11.244 -6
      vertex 13.3387 10.6765 -6
    endloop
  endfacet
  facet normal 0 0 -1
    outer loop
      vertex 11.375 10.1 -6
      vertex 13.3387 10.6765 -6
      vertex 13.375 10.1 -6
    endloop
  endfacet
  facet normal 0 0 -1
    outer loop
      vertex 11.3545 9.77413 -6
      vertex 13.375 10.1 -6
      vertex 13.3387 9.52347 -6
    endloop
  endfacet
  facet normal 0 0 -1
    outer loop
      vertex 11.1924 9.14288 -6
      vertex 13.3387 9.52347 -6
      vertex 13.2305 8.95603 -6
    endloop
  endfacet
  facet normal 0 0 -1
    outer loop
      vertex 11.0534 8.84744 -6
      vertex 13.2305 8.95603 -6
      vertex 13.052 8.40663 -6
    endloop
  endfacet
  facet normal 0 0 -1
    outer loop
      vertex 10.6703 8.32018 -6
      vertex 13.052 8.40663 -6
      vertex 12.806 7.88393 -6
    endloop
  endfacet
  facet normal 0 0 -1
    outer loop
      vertex 10.4323 8.09667 -6
      vertex 12.806 7.88393 -6
      vertex 12.4965 7.39619 -6
    endloop
  endfacet
  facet normal 0 0 -1
    outer loop
      vertex 9.88203 7.74745 -6
      vertex 12.4965 7.39619 -6
      vertex 12.1283 6.95108 -6
    endloop
  endfacet
  facet normal 0 0 -1
    outer loop
      vertex 9.26219 7.54605 -6
      vertex 12.1283 6.95108 -6
      vertex 11.7072 6.55564 -6
    endloop
  endfacet
  facet normal 0 0 -1
    outer loop
      vertex 8.61174 7.50513 -6
      vertex 11.7072 6.55564 -6
      vertex 11.2398 6.21609 -6
    endloop
  endfacet
  facet normal 0 0 -1
    outer loop
      vertex 7.97156 7.62725 -6
      vertex 11.2398 6.21609 -6
      vertex 10.7336 5.9378 -6
    endloop
  endfacet
  facet normal 0 0 -1
    outer loop
      vertex 4.21127 9.52347 -6
      vertex 10.7336 5.9378 -6
      vertex 10.1965 5.72514 -6
    endloop
  endfacet
  facet normal 0 0 -1
    outer loop
      vertex 4.21127 9.52347 -6
      vertex 10.1965 5.72514 -6
      vertex 9.63695 5.58148 -6
    endloop
  endfacet
  facet normal 0 0 -1
    outer loop
      vertex 4.21127 9.52347 -6
      vertex 9.63695 5.58148 -6
      vertex 9.06384 5.50908 -6
    endloop
  endfacet
  facet normal 0 0 -1
    outer loop
      vertex 4.21127 9.52347 -6
      vertex 9.06384 5.50908 -6
      vertex 8.48616 5.50908 -6
    endloop
  endfacet
  facet normal 0 0 -1
    outer loop
      vertex 4.21127 9.52347 -6
      vertex 8.48616 5.50908 -6
      vertex 7.91305 5.58148 -6
    endloop
  endfacet
  facet normal 0 0 -1
    outer loop
      vertex 4.21127 9.52347 -6
      vertex 7.91305 5.58148 -6
      vertex 7.35352 5.72514 -6
    endloop
  endfacet
  facet normal 0 0 -1
    outer loop
      vertex 4.21127 9.52347 -6
      vertex 7.35352 5.72514 -6
      vertex 6.81642 5.9378 -6
    endloop
  endfacet
  facet normal 0 0 -1
    outer loop
      vertex 4.21127 9.52347 -6
      vertex 6.81642 5.9378 -6
      vertex 6.3102 6.21609 -6
    endloop
  endfacet
  facet normal 0 0 -1
    outer loop
      vertex 4.21127 9.52347 -6
      vertex 6.3102 6.21609 -6
      vertex 5.84285 6.55564 -6
    endloop
  endfacet
  facet normal 0 0 -1
    outer loop
      vertex 4.21127 9.52347 -6
      vertex 5.84285 6.55564 -6
      vertex 5.42174 6.95108 -6
    endloop
  endfacet
  facet normal 0 0 -1
    outer loop
      vertex 4.21127 9.52347 -6
      vertex 5.42174 6.95108 -6
      vertex 5.05352 7.39619 -6
    endloop
  endfacet
  facet normal 0 0 -1
    outer loop
      vertex 4.21127 9.52347 -6
      vertex 5.05352 7.39619 -6
      vertex 4.74399 7.88393 -6
    endloop
  endfacet
  facet normal 0 0 -1
    outer loop
      vertex 4.21127 9.52347 -6
      vertex 4.74399 7.88393 -6
      vertex 4.49803 8.40663 -6
    endloop
  endfacet
  facet normal 0 0 -1
    outer loop
      vertex 4.21127 9.52347 -6
      vertex 4.49803 8.40663 -6
      vertex 4.31952 8.95603 -6
    endloop
  endfacet
  facet normal 0 0 -1
    outer loop
      vertex 6.1955 9.77413 -6
      vertex 4.21127 9.52347 -6
      vertex 6.175 10.1 -6
    endloop
  endfacet
  facet normal 0 0 -1
    outer loop
      vertex 11.2933 10.7466 -6
      vertex 13.3387 10.6765 -6
      vertex 11.3545 10.4259 -6
    endloop
  endfacet
  facet normal 0 0 -1
    outer loop
      vertex 6.25668 9.45341 -6
      vertex 4.21127 9.52347 -6
      vertex 6.1955 9.77413 -6
    endloop
  endfacet
  facet normal 0 0 -1
    outer loop
      vertex 6.35758 9.14288 -6
      vertex 4.21127 9.52347 -6
      vertex 6.25668 9.45341 -6
    endloop
  endfacet
  facet normal 0 0 -1
    outer loop
      vertex 6.4966 8.84744 -6
      vertex 4.21127 9.52347 -6
      vertex 6.35758 9.14288 -6
    endloop
  endfacet
  facet normal 0 0 -1
    outer loop
      vertex 6.67156 8.57176 -6
      vertex 4.21127 9.52347 -6
      vertex 6.4966 8.84744 -6
    endloop
  endfacet
  facet normal 0 0 -1
    outer loop
      vertex 6.87968 8.32018 -6
      vertex 4.21127 9.52347 -6
      vertex 6.67156 8.57176 -6
    endloop
  endfacet
  facet normal 0 0 -1
    outer loop
      vertex 7.1177 8.09667 -6
      vertex 4.21127 9.52347 -6
      vertex 6.87968 8.32018 -6
    endloop
  endfacet
  facet normal 0 0 -1
    outer loop
      vertex 7.97156 7.62725 -6
      vertex 10.7336 5.9378 -6
      vertex 7.66797 7.74745 -6
    endloop
  endfacet
  facet normal 0 0 -1
    outer loop
      vertex 4.21127 9.52347 -6
      vertex 7.1177 8.09667 -6
      vertex 7.38185 7.90475 -6
    endloop
  endfacet
  facet normal 0 0 -1
    outer loop
      vertex 4.21127 9.52347 -6
      vertex 7.38185 7.90475 -6
      vertex 10.7336 5.9378 -6
    endloop
  endfacet
  facet normal 0 0 -1
    outer loop
      vertex 7.38185 7.90475 -6
      vertex 7.66797 7.74745 -6
      vertex 10.7336 5.9378 -6
    endloop
  endfacet
  facet normal 0 0 -1
    outer loop
      vertex 8.28781 7.54605 -6
      vertex 11.2398 6.21609 -6
      vertex 7.97156 7.62725 -6
    endloop
  endfacet
  facet normal 0 0 -1
    outer loop
      vertex 8.61174 7.50513 -6
      vertex 11.2398 6.21609 -6
      vertex 8.28781 7.54605 -6
    endloop
  endfacet
  facet normal 0 0 -1
    outer loop
      vertex 8.93825 7.50513 -6
      vertex 11.7072 6.55564 -6
      vertex 8.61174 7.50513 -6
    endloop
  endfacet
  facet normal 0 0 -1
    outer loop
      vertex 9.26219 7.54605 -6
      vertex 11.7072 6.55564 -6
      vertex 8.93825 7.50513 -6
    endloop
  endfacet
  facet normal 0 0 -1
    outer loop
      vertex 9.57844 7.62725 -6
      vertex 12.1283 6.95108 -6
      vertex 9.26219 7.54605 -6
    endloop
  endfacet
  facet normal 0 0 -1
    outer loop
      vertex 9.88203 7.74745 -6
      vertex 12.1283 6.95108 -6
      vertex 9.57844 7.62725 -6
    endloop
  endfacet
  facet normal 0 0 -1
    outer loop
      vertex 10.1681 7.90475 -6
      vertex 12.4965 7.39619 -6
      vertex 9.88203 7.74745 -6
    endloop
  endfacet
  facet normal 0 0 -1
    outer loop
      vertex 10.4323 8.09667 -6
      vertex 12.4965 7.39619 -6
      vertex 10.1681 7.90475 -6
    endloop
  endfacet
  facet normal 0 0 -1
    outer loop
      vertex 10.8784 8.57176 -6
      vertex 13.052 8.40663 -6
      vertex 10.6703 8.32018 -6
    endloop
  endfacet
  facet normal 0 0 -1
    outer loop
      vertex 11.0534 8.84744 -6
      vertex 13.052 8.40663 -6
      vertex 10.8784 8.57176 -6
    endloop
  endfacet
  facet normal 0 0 -1
    outer loop
      vertex 10.6703 8.32018 -6
      vertex 12.806 7.88393 -6
      vertex 10.4323 8.09667 -6
    endloop
  endfacet
  facet normal 0 0 -1
    outer loop
      vertex 11.2933 9.45341 -6
      vertex 13.3387 9.52347 -6
      vertex 11.1924 9.14288 -6
    endloop
  endfacet
  facet normal 0 0 -1
    outer loop
      vertex 11.3545 9.77413 -6
      vertex 13.3387 9.52347 -6
      vertex 11.2933 9.45341 -6
    endloop
  endfacet
  facet normal 0 0 -1
    outer loop
      vertex 11.1924 9.14288 -6
      vertex 13.2305 8.95603 -6
      vertex 11.0534 8.84744 -6
    endloop
  endfacet
  facet normal 0 0 -1
    outer loop
      vertex 11.3545 10.4259 -6
      vertex 13.3387 10.6765 -6
      vertex 11.375 10.1 -6
    endloop
  endfacet
  facet normal 0 0 -1
    outer loop
      vertex 11.1924 11.0571 -6
      vertex 13.2305 11.244 -6
      vertex 11.2933 10.7466 -6
    endloop
  endfacet
  facet normal 0 0 -1
    outer loop
      vertex 10.8784 11.6282 -6
      vertex 12.806 12.3161 -6
      vertex 11.0534 11.3526 -6
    endloop
  endfacet
  facet normal 0 0 -1
    outer loop
      vertex 10.6703 11.8798 -6
      vertex 12.806 12.3161 -6
      vertex 10.8784 11.6282 -6
    endloop
  endfacet
  facet normal 0 0 -1
    outer loop
      vertex 11.0534 11.3526 -6
      vertex 13.052 11.7934 -6
      vertex 11.1924 11.0571 -6
    endloop
  endfacet
  facet normal 0 0 -1
    outer loop
      vertex 10.1681 12.2953 -6
      vertex 12.1283 13.2489 -6
      vertex 10.4323 12.1033 -6
    endloop
  endfacet
  facet normal 0 0 -1
    outer loop
      vertex 9.57844 12.5727 -6
      vertex 11.7072 13.6444 -6
      vertex 9.88203 12.4525 -6
    endloop
  endfacet
  facet normal 0 0 -1
    outer loop
      vertex 9.26219 12.6539 -6
      vertex 11.2398 13.9839 -6
      vertex 9.57844 12.5727 -6
    endloop
  endfacet
  facet normal 0 0 -1
    outer loop
      vertex 8.93825 12.6949 -6
      vertex 11.2398 13.9839 -6
      vertex 9.26219 12.6539 -6
    endloop
  endfacet
  facet normal 0 0 -1
    outer loop
      vertex 8.61174 12.6949 -6
      vertex 10.7336 14.2622 -6
      vertex 8.93825 12.6949 -6
    endloop
  endfacet
  facet normal 0 0 -1
    outer loop
      vertex 8.28781 12.6539 -6
      vertex 10.7336 14.2622 -6
      vertex 8.61174 12.6949 -6
    endloop
  endfacet
  facet normal 0 0 -1
    outer loop
      vertex 7.97156 12.5727 -6
      vertex 10.1965 14.4749 -6
      vertex 8.28781 12.6539 -6
    endloop
  endfacet
  facet normal 0 0 -1
    outer loop
      vertex 7.66797 12.4525 -6
      vertex 10.1965 14.4749 -6
      vertex 7.97156 12.5727 -6
    endloop
  endfacet
  facet normal 0 0 -1
    outer loop
      vertex 7.38185 12.2953 -6
      vertex 9.63695 14.6185 -6
      vertex 7.66797 12.4525 -6
    endloop
  endfacet
  facet normal 0 0 -1
    outer loop
      vertex 6.67156 11.6282 -6
      vertex 4.21127 9.52347 -6
      vertex 6.87968 11.8798 -6
    endloop
  endfacet
  facet normal 0 0 -1
    outer loop
      vertex 7.1177 12.1033 -6
      vertex 9.63695 14.6185 -6
      vertex 7.38185 12.2953 -6
    endloop
  endfacet
  facet normal 0 0 -1
    outer loop
      vertex 4.21127 9.52347 -6
      vertex 9.63695 14.6185 -6
      vertex 7.1177 12.1033 -6
    endloop
  endfacet
  facet normal 0 0 -1
    outer loop
      vertex 4.21127 9.52347 -6
      vertex 7.1177 12.1033 -6
      vertex 6.87968 11.8798 -6
    endloop
  endfacet
  facet normal 0 0 -1
    outer loop
      vertex 6.4966 11.3526 -6
      vertex 4.21127 9.52347 -6
      vertex 6.67156 11.6282 -6
    endloop
  endfacet
  facet normal 0 0 -1
    outer loop
      vertex 6.35758 11.0571 -6
      vertex 4.21127 9.52347 -6
      vertex 6.4966 11.3526 -6
    endloop
  endfacet
  facet normal 0 0 -1
    outer loop
      vertex 6.25668 10.7466 -6
      vertex 4.21127 9.52347 -6
      vertex 6.35758 11.0571 -6
    endloop
  endfacet
  facet normal 0 0 -1
    outer loop
      vertex 6.1955 10.4259 -6
      vertex 4.21127 9.52347 -6
      vertex 6.25668 10.7466 -6
    endloop
  endfacet
  facet normal 0 0 -1
    outer loop
      vertex 6.175 10.1 -6
      vertex 4.21127 9.52347 -6
      vertex 6.1955 10.4259 -6
    endloop
  endfacet
  facet normal 0 0 -1
    outer loop
      vertex 9.88203 12.4525 -6
      vertex 12.1283 13.2489 -6
      vertex 10.1681 12.2953 -6
    endloop
  endfacet
  facet normal 0 0 -1
    outer loop
      vertex 10.4323 12.1033 -6
      vertex 12.4965 12.8038 -6
      vertex 10.6703 11.8798 -6
    endloop
  endfacet
  facet normal 0 0 -1
    outer loop
      vertex 11.375 10.1 -6
      vertex 13.375 10.1 -6
      vertex 11.3545 9.77413 -6
    endloop
  endfacet
endsolid OpenSCAD_Model
