solid OpenSCAD_Model
  facet normal -1 0 0
    outer loop
      vertex 0 0 0
      vertex 0 0 7
      vertex 0 15 0
    endloop
  endfacet
  facet normal -1 0 0
    outer loop
      vertex 0 15 0
      vertex 0 0 7
      vertex 0 15 7
    endloop
  endfacet
  facet normal 0 -1 0
    outer loop
      vertex 1 0 1
      vertex 0 0 0
      vertex 30 0 0
    endloop
  endfacet
  facet normal 0 -1 0
    outer loop
      vertex 0 0 7
      vertex 0 0 0
      vertex 1 0 1
    endloop
  endfacet
  facet normal 0 -1 0
    outer loop
      vertex 1 0 6
      vertex 29 0 6
      vertex 0 0 7
    endloop
  endfacet
  facet normal 0 -1 0
    outer loop
      vertex 0 0 7
      vertex 1 0 1
      vertex 1 0 6
    endloop
  endfacet
  facet normal 0 -1 0
    outer loop
      vertex 30 0 7
      vertex 29 0 6
      vertex 30 0 0
    endloop
  endfacet
  facet normal 0 -1 0
    outer loop
      vertex 30 0 7
      vertex 0 0 7
      vertex 29 0 6
    endloop
  endfacet
  facet normal 0 -1 0
    outer loop
      vertex 29 0 6
      vertex 29 0 1
      vertex 30 0 0
    endloop
  endfacet
  facet normal 0 -1 0
    outer loop
      vertex 29 0 1
      vertex 1 0 1
      vertex 30 0 0
    endloop
  endfacet
  facet normal 0 0 -1
    outer loop
      vertex 15.2826 14.4911 0
      vertex 0 15 0
      vertex 30 15 0
    endloop
  endfacet
  facet normal 0 0 -1
    outer loop
      vertex 0 0 0
      vertex 0 15 0
      vertex 10.5355 9.436 0
    endloop
  endfacet
  facet normal 0 0 -1
    outer loop
      vertex 0 0 0
      vertex 10.5355 9.436 0
      vertex 10.6414 8.8809 0
    endloop
  endfacet
  facet normal 0 0 -1
    outer loop
      vertex 0 0 0
      vertex 10.6414 8.8809 0
      vertex 10.816 8.34344 0
    endloop
  endfacet
  facet normal 0 0 -1
    outer loop
      vertex 0 0 0
      vertex 10.816 8.34344 0
      vertex 11.0566 7.83211 0
    endloop
  endfacet
  facet normal 0 0 -1
    outer loop
      vertex 0 0 0
      vertex 11.0566 7.83211 0
      vertex 11.3594 7.35497 0
    endloop
  endfacet
  facet normal 0 0 -1
    outer loop
      vertex 0 0 0
      vertex 11.3594 7.35497 0
      vertex 11.7196 6.91954 0
    endloop
  endfacet
  facet normal 0 0 -1
    outer loop
      vertex 0 0 0
      vertex 11.7196 6.91954 0
      vertex 12.1316 6.53269 0
    endloop
  endfacet
  facet normal 0 0 -1
    outer loop
      vertex 0 0 0
      vertex 12.1316 6.53269 0
      vertex 12.5888 6.20052 0
    endloop
  endfacet
  facet normal 0 0 -1
    outer loop
      vertex 0 0 0
      vertex 12.5888 6.20052 0
      vertex 13.084 5.92828 0
    endloop
  endfacet
  facet normal 0 0 -1
    outer loop
      vertex 0 0 0
      vertex 13.084 5.92828 0
      vertex 13.6094 5.72025 0
    endloop
  endfacet
  facet normal 0 0 -1
    outer loop
      vertex 0 0 0
      vertex 13.6094 5.72025 0
      vertex 30 0 0
    endloop
  endfacet
  facet normal 0 0 -1
    outer loop
      vertex 14.7174 5.50888 0
      vertex 30 0 0
      vertex 14.1568 5.57971 0
    endloop
  endfacet
  facet normal 0 0 -1
    outer loop
      vertex 15.2826 5.50888 0
      vertex 30 0 0
      vertex 14.7174 5.50888 0
    endloop
  endfacet
  facet normal 0 0 -1
    outer loop
      vertex 15.8432 5.57971 0
      vertex 30 0 0
      vertex 15.2826 5.50888 0
    endloop
  endfacet
  facet normal 0 0 -1
    outer loop
      vertex 16.3906 5.72025 0
      vertex 30 0 0
      vertex 15.8432 5.57971 0
    endloop
  endfacet
  facet normal 0 0 -1
    outer loop
      vertex 16.916 5.92828 0
      vertex 30 0 0
      vertex 16.3906 5.72025 0
    endloop
  endfacet
  facet normal 0 0 -1
    outer loop
      vertex 17.4112 6.20052 0
      vertex 30 0 0
      vertex 16.916 5.92828 0
    endloop
  endfacet
  facet normal 0 0 -1
    outer loop
      vertex 14.1568 5.57971 0
      vertex 30 0 0
      vertex 13.6094 5.72025 0
    endloop
  endfacet
  facet normal 0 0 -1
    outer loop
      vertex 17.8684 6.53269 0
      vertex 30 0 0
      vertex 17.4112 6.20052 0
    endloop
  endfacet
  facet normal 0 0 -1
    outer loop
      vertex 18.9434 12.1679 0
      vertex 30 15 0
      vertex 19.184 11.6566 0
    endloop
  endfacet
  facet normal 0 0 -1
    outer loop
      vertex 30 0 0
      vertex 17.8684 6.53269 0
      vertex 30 15 0
    endloop
  endfacet
  facet normal 0 0 -1
    outer loop
      vertex 17.8684 6.53269 0
      vertex 18.2804 6.91954 0
      vertex 30 15 0
    endloop
  endfacet
  facet normal 0 0 -1
    outer loop
      vertex 18.2804 6.91954 0
      vertex 18.6406 7.35497 0
      vertex 30 15 0
    endloop
  endfacet
  facet normal 0 0 -1
    outer loop
      vertex 18.6406 7.35497 0
      vertex 18.9434 7.83211 0
      vertex 30 15 0
    endloop
  endfacet
  facet normal 0 0 -1
    outer loop
      vertex 18.9434 7.83211 0
      vertex 19.184 8.34344 0
      vertex 30 15 0
    endloop
  endfacet
  facet normal 0 0 -1
    outer loop
      vertex 19.184 8.34344 0
      vertex 19.3586 8.8809 0
      vertex 30 15 0
    endloop
  endfacet
  facet normal 0 0 -1
    outer loop
      vertex 19.3586 8.8809 0
      vertex 19.4645 9.436 0
      vertex 30 15 0
    endloop
  endfacet
  facet normal 0 0 -1
    outer loop
      vertex 19.4645 9.436 0
      vertex 19.5 10 0
      vertex 30 15 0
    endloop
  endfacet
  facet normal 0 0 -1
    outer loop
      vertex 19.5 10 0
      vertex 19.4645 10.564 0
      vertex 30 15 0
    endloop
  endfacet
  facet normal 0 0 -1
    outer loop
      vertex 19.4645 10.564 0
      vertex 19.3586 11.1191 0
      vertex 30 15 0
    endloop
  endfacet
  facet normal 0 0 -1
    outer loop
      vertex 19.3586 11.1191 0
      vertex 19.184 11.6566 0
      vertex 30 15 0
    endloop
  endfacet
  facet normal 0 0 -1
    outer loop
      vertex 14.1568 14.4203 0
      vertex 0 15 0
      vertex 14.7174 14.4911 0
    endloop
  endfacet
  facet normal 0 0 -1
    outer loop
      vertex 11.7196 13.0805 0
      vertex 0 15 0
      vertex 12.1316 13.4673 0
    endloop
  endfacet
  facet normal 0 0 -1
    outer loop
      vertex 18.9434 12.1679 0
      vertex 18.6406 12.645 0
      vertex 30 15 0
    endloop
  endfacet
  facet normal 0 0 -1
    outer loop
      vertex 18.6406 12.645 0
      vertex 18.2804 13.0805 0
      vertex 30 15 0
    endloop
  endfacet
  facet normal 0 0 -1
    outer loop
      vertex 12.1316 13.4673 0
      vertex 0 15 0
      vertex 12.5888 13.7995 0
    endloop
  endfacet
  facet normal 0 0 -1
    outer loop
      vertex 18.2804 13.0805 0
      vertex 17.8684 13.4673 0
      vertex 30 15 0
    endloop
  endfacet
  facet normal 0 0 -1
    outer loop
      vertex 12.5888 13.7995 0
      vertex 0 15 0
      vertex 13.084 14.0717 0
    endloop
  endfacet
  facet normal 0 0 -1
    outer loop
      vertex 17.8684 13.4673 0
      vertex 17.4112 13.7995 0
      vertex 30 15 0
    endloop
  endfacet
  facet normal 0 0 -1
    outer loop
      vertex 17.4112 13.7995 0
      vertex 16.916 14.0717 0
      vertex 30 15 0
    endloop
  endfacet
  facet normal 0 0 -1
    outer loop
      vertex 13.084 14.0717 0
      vertex 0 15 0
      vertex 13.6094 14.2798 0
    endloop
  endfacet
  facet normal 0 0 -1
    outer loop
      vertex 16.916 14.0717 0
      vertex 16.3906 14.2798 0
      vertex 30 15 0
    endloop
  endfacet
  facet normal 0 0 -1
    outer loop
      vertex 13.6094 14.2798 0
      vertex 0 15 0
      vertex 14.1568 14.4203 0
    endloop
  endfacet
  facet normal 0 0 -1
    outer loop
      vertex 16.3906 14.2798 0
      vertex 15.8432 14.4203 0
      vertex 30 15 0
    endloop
  endfacet
  facet normal 0 0 -1
    outer loop
      vertex 14.7174 14.4911 0
      vertex 0 15 0
      vertex 15.2826 14.4911 0
    endloop
  endfacet
  facet normal 0 0 -1
    outer loop
      vertex 15.8432 14.4203 0
      vertex 15.2826 14.4911 0
      vertex 30 15 0
    endloop
  endfacet
  facet normal 0 0 -1
    outer loop
      vertex 11.3594 12.645 0
      vertex 0 15 0
      vertex 11.7196 13.0805 0
    endloop
  endfacet
  facet normal 0 0 -1
    outer loop
      vertex 11.0566 12.1679 0
      vertex 0 15 0
      vertex 11.3594 12.645 0
    endloop
  endfacet
  facet normal 0 0 -1
    outer loop
      vertex 10.816 11.6566 0
      vertex 0 15 0
      vertex 11.0566 12.1679 0
    endloop
  endfacet
  facet normal 0 0 -1
    outer loop
      vertex 10.6414 11.1191 0
      vertex 0 15 0
      vertex 10.816 11.6566 0
    endloop
  endfacet
  facet normal 0 0 -1
    outer loop
      vertex 10.5355 10.564 0
      vertex 0 15 0
      vertex 10.6414 11.1191 0
    endloop
  endfacet
  facet normal 0 0 -1
    outer loop
      vertex 10.5 10 0
      vertex 0 15 0
      vertex 10.5355 10.564 0
    endloop
  endfacet
  facet normal 0 0 -1
    outer loop
      vertex 10.5355 9.436 0
      vertex 0 15 0
      vertex 10.5 10 0
    endloop
  endfacet
  facet normal 0 1 0
    outer loop
      vertex 0 15 0
      vertex 0 15 7
      vertex 30 15 0
    endloop
  endfacet
  facet normal 0 1 0
    outer loop
      vertex 30 15 0
      vertex 0 15 7
      vertex 30 15 7
    endloop
  endfacet
  facet normal 0 0 1
    outer loop
      vertex 0 15 7
      vertex 0 0 7
      vertex 30 0 7
    endloop
  endfacet
  facet normal 0 0 1
    outer loop
      vertex 30 15 7
      vertex 0 15 7
      vertex 30 0 7
    endloop
  endfacet
  facet normal 1 0 0
    outer loop
      vertex 30 0 7
      vertex 30 0 0
      vertex 30 15 0
    endloop
  endfacet
  facet normal 1 0 0
    outer loop
      vertex 30 15 7
      vertex 30 0 7
      vertex 30 15 0
    endloop
  endfacet
  facet normal 1 0 0
    outer loop
      vertex 1 14 1
      vertex 1 14 6
      vertex 1 0 6
    endloop
  endfacet
  facet normal 1 0 0
    outer loop
      vertex 1 0 1
      vertex 1 14 1
      vertex 1 0 6
    endloop
  endfacet
  facet normal 0 0 1
    outer loop
      vertex 14.843 12.4951 1
      vertex 29 14 1
      vertex 1 14 1
    endloop
  endfacet
  facet normal 0 0 1
    outer loop
      vertex 1 0 1
      vertex 29 0 1
      vertex 1 14 1
    endloop
  endfacet
  facet normal 0 0 1
    outer loop
      vertex 12.5197 9.68667 1
      vertex 12.5 10 1
      vertex 1 14 1
    endloop
  endfacet
  facet normal 0 0 1
    outer loop
      vertex 12.5 10 1
      vertex 12.5197 10.3133 1
      vertex 1 14 1
    endloop
  endfacet
  facet normal 0 0 1
    outer loop
      vertex 12.5197 10.3133 1
      vertex 12.5785 10.6217 1
      vertex 1 14 1
    endloop
  endfacet
  facet normal 0 0 1
    outer loop
      vertex 12.5785 10.6217 1
      vertex 12.6756 10.9203 1
      vertex 1 14 1
    endloop
  endfacet
  facet normal 0 0 1
    outer loop
      vertex 17.0225 11.4695 1
      vertex 17.1908 11.2044 1
      vertex 29 14 1
    endloop
  endfacet
  facet normal 0 0 1
    outer loop
      vertex 12.6756 10.9203 1
      vertex 12.8092 11.2044 1
      vertex 1 14 1
    endloop
  endfacet
  facet normal 0 0 1
    outer loop
      vertex 12.8092 11.2044 1
      vertex 12.9775 11.4695 1
      vertex 1 14 1
    endloop
  endfacet
  facet normal 0 0 1
    outer loop
      vertex 12.9775 11.4695 1
      vertex 13.1776 11.7114 1
      vertex 1 14 1
    endloop
  endfacet
  facet normal 0 0 1
    outer loop
      vertex 13.1776 11.7114 1
      vertex 13.4064 11.9263 1
      vertex 1 14 1
    endloop
  endfacet
  facet normal 0 0 1
    outer loop
      vertex 13.4064 11.9263 1
      vertex 13.6604 12.1108 1
      vertex 1 14 1
    endloop
  endfacet
  facet normal 0 0 1
    outer loop
      vertex 16.0644 12.2621 1
      vertex 16.3396 12.1108 1
      vertex 29 14 1
    endloop
  endfacet
  facet normal 0 0 1
    outer loop
      vertex 13.6604 12.1108 1
      vertex 13.9356 12.2621 1
      vertex 1 14 1
    endloop
  endfacet
  facet normal 0 0 1
    outer loop
      vertex 13.9356 12.2621 1
      vertex 14.2275 12.3776 1
      vertex 1 14 1
    endloop
  endfacet
  facet normal 0 0 1
    outer loop
      vertex 14.2275 12.3776 1
      vertex 14.5315 12.4557 1
      vertex 1 14 1
    endloop
  endfacet
  facet normal 0 0 1
    outer loop
      vertex 14.5315 12.4557 1
      vertex 14.843 12.4951 1
      vertex 1 14 1
    endloop
  endfacet
  facet normal 0 0 1
    outer loop
      vertex 15.157 12.4951 1
      vertex 15.4685 12.4557 1
      vertex 29 14 1
    endloop
  endfacet
  facet normal 0 0 1
    outer loop
      vertex 15.4685 12.4557 1
      vertex 15.7725 12.3776 1
      vertex 29 14 1
    endloop
  endfacet
  facet normal 0 0 1
    outer loop
      vertex 16.8224 11.7114 1
      vertex 17.0225 11.4695 1
      vertex 29 14 1
    endloop
  endfacet
  facet normal 0 0 1
    outer loop
      vertex 16.3396 12.1108 1
      vertex 16.5936 11.9263 1
      vertex 29 14 1
    endloop
  endfacet
  facet normal 0 0 1
    outer loop
      vertex 16.5936 11.9263 1
      vertex 16.8224 11.7114 1
      vertex 29 14 1
    endloop
  endfacet
  facet normal 0 0 1
    outer loop
      vertex 13.4064 8.07372 1
      vertex 13.1776 8.28863 1
      vertex 1 14 1
    endloop
  endfacet
  facet normal 0 0 1
    outer loop
      vertex 17.1908 11.2044 1
      vertex 17.3244 10.9203 1
      vertex 29 14 1
    endloop
  endfacet
  facet normal 0 0 1
    outer loop
      vertex 16.3396 7.88918 1
      vertex 16.0644 7.73793 1
      vertex 29 0 1
    endloop
  endfacet
  facet normal 0 0 1
    outer loop
      vertex 29 0 1
      vertex 29 14 1
      vertex 17.3244 10.9203 1
    endloop
  endfacet
  facet normal 0 0 1
    outer loop
      vertex 29 0 1
      vertex 17.3244 10.9203 1
      vertex 17.4215 10.6217 1
    endloop
  endfacet
  facet normal 0 0 1
    outer loop
      vertex 29 0 1
      vertex 17.4215 10.6217 1
      vertex 17.4803 10.3133 1
    endloop
  endfacet
  facet normal 0 0 1
    outer loop
      vertex 29 0 1
      vertex 17.4803 10.3133 1
      vertex 17.5 10 1
    endloop
  endfacet
  facet normal 0 0 1
    outer loop
      vertex 29 0 1
      vertex 17.5 10 1
      vertex 17.4803 9.68667 1
    endloop
  endfacet
  facet normal 0 0 1
    outer loop
      vertex 29 0 1
      vertex 17.4803 9.68667 1
      vertex 17.4215 9.37827 1
    endloop
  endfacet
  facet normal 0 0 1
    outer loop
      vertex 29 0 1
      vertex 17.4215 9.37827 1
      vertex 17.3244 9.07969 1
    endloop
  endfacet
  facet normal 0 0 1
    outer loop
      vertex 29 0 1
      vertex 17.3244 9.07969 1
      vertex 17.1908 8.79562 1
    endloop
  endfacet
  facet normal 0 0 1
    outer loop
      vertex 29 0 1
      vertex 17.1908 8.79562 1
      vertex 17.0225 8.53054 1
    endloop
  endfacet
  facet normal 0 0 1
    outer loop
      vertex 29 0 1
      vertex 17.0225 8.53054 1
      vertex 16.8224 8.28863 1
    endloop
  endfacet
  facet normal 0 0 1
    outer loop
      vertex 29 0 1
      vertex 16.8224 8.28863 1
      vertex 16.5936 8.07372 1
    endloop
  endfacet
  facet normal 0 0 1
    outer loop
      vertex 13.6604 7.88918 1
      vertex 13.4064 8.07372 1
      vertex 1 14 1
    endloop
  endfacet
  facet normal 0 0 1
    outer loop
      vertex 29 0 1
      vertex 16.5936 8.07372 1
      vertex 16.3396 7.88918 1
    endloop
  endfacet
  facet normal 0 0 1
    outer loop
      vertex 12.6756 9.07969 1
      vertex 12.5785 9.37827 1
      vertex 1 14 1
    endloop
  endfacet
  facet normal 0 0 1
    outer loop
      vertex 29 0 1
      vertex 16.0644 7.73793 1
      vertex 15.7725 7.62236 1
    endloop
  endfacet
  facet normal 0 0 1
    outer loop
      vertex 12.8092 8.79562 1
      vertex 12.6756 9.07969 1
      vertex 1 14 1
    endloop
  endfacet
  facet normal 0 0 1
    outer loop
      vertex 29 0 1
      vertex 15.7725 7.62236 1
      vertex 15.4685 7.54428 1
    endloop
  endfacet
  facet normal 0 0 1
    outer loop
      vertex 12.9775 8.53054 1
      vertex 12.8092 8.79562 1
      vertex 1 14 1
    endloop
  endfacet
  facet normal 0 0 1
    outer loop
      vertex 29 0 1
      vertex 15.4685 7.54428 1
      vertex 15.157 7.50493 1
    endloop
  endfacet
  facet normal 0 0 1
    outer loop
      vertex 13.1776 8.28863 1
      vertex 12.9775 8.53054 1
      vertex 1 14 1
    endloop
  endfacet
  facet normal 0 0 1
    outer loop
      vertex 29 0 1
      vertex 15.157 7.50493 1
      vertex 14.843 7.50493 1
    endloop
  endfacet
  facet normal 0 0 1
    outer loop
      vertex 29 0 1
      vertex 14.843 7.50493 1
      vertex 14.5315 7.54428 1
    endloop
  endfacet
  facet normal 0 0 1
    outer loop
      vertex 29 0 1
      vertex 14.5315 7.54428 1
      vertex 14.2275 7.62236 1
    endloop
  endfacet
  facet normal 0 0 1
    outer loop
      vertex 29 0 1
      vertex 13.9356 7.73793 1
      vertex 1 14 1
    endloop
  endfacet
  facet normal 0 0 1
    outer loop
      vertex 29 0 1
      vertex 14.2275 7.62236 1
      vertex 13.9356 7.73793 1
    endloop
  endfacet
  facet normal 0 0 1
    outer loop
      vertex 13.9356 7.73793 1
      vertex 13.6604 7.88918 1
      vertex 1 14 1
    endloop
  endfacet
  facet normal 0 0 1
    outer loop
      vertex 12.5785 9.37827 1
      vertex 12.5197 9.68667 1
      vertex 1 14 1
    endloop
  endfacet
  facet normal 0 0 1
    outer loop
      vertex 14.843 12.4951 1
      vertex 15.157 12.4951 1
      vertex 29 14 1
    endloop
  endfacet
  facet normal 0 0 1
    outer loop
      vertex 15.7725 12.3776 1
      vertex 16.0644 12.2621 1
      vertex 29 14 1
    endloop
  endfacet
  facet normal -1 0 0
    outer loop
      vertex 29 14 6
      vertex 29 14 1
      vertex 29 0 6
    endloop
  endfacet
  facet normal -1 0 0
    outer loop
      vertex 29 0 6
      vertex 29 14 1
      vertex 29 0 1
    endloop
  endfacet
  facet normal 0 0 -1
    outer loop
      vertex 29 14 6
      vertex 29 0 6
      vertex 1 14 6
    endloop
  endfacet
  facet normal 0 0 -1
    outer loop
      vertex 1 14 6
      vertex 29 0 6
      vertex 1 0 6
    endloop
  endfacet
  facet normal -0.998027 -0.0627907 0
    outer loop
      vertex 10.5 10 -6
      vertex 10.5355 9.436 -6
      vertex 10.5 10 0
    endloop
  endfacet
  facet normal -0.998027 -0.0627907 0
    outer loop
      vertex 10.5 10 0
      vertex 10.5355 9.436 -6
      vertex 10.5355 9.436 0
    endloop
  endfacet
  facet normal -0.998027 0.0627907 0
    outer loop
      vertex 10.5 10 -6
      vertex 10.5 10 0
      vertex 10.5355 10.564 -6
    endloop
  endfacet
  facet normal -0.998027 0.0627907 0
    outer loop
      vertex 10.5355 10.564 -6
      vertex 10.5 10 0
      vertex 10.5355 10.564 0
    endloop
  endfacet
  facet normal -0.982287 0.187382 0
    outer loop
      vertex 10.5355 10.564 -6
      vertex 10.5355 10.564 0
      vertex 10.6414 11.1191 -6
    endloop
  endfacet
  facet normal -0.982287 0.187382 0
    outer loop
      vertex 10.6414 11.1191 -6
      vertex 10.5355 10.564 0
      vertex 10.6414 11.1191 0
    endloop
  endfacet
  facet normal -0.951057 0.309017 0
    outer loop
      vertex 10.6414 11.1191 -6
      vertex 10.6414 11.1191 0
      vertex 10.816 11.6566 -6
    endloop
  endfacet
  facet normal -0.951057 0.309017 0
    outer loop
      vertex 10.816 11.6566 -6
      vertex 10.6414 11.1191 0
      vertex 10.816 11.6566 0
    endloop
  endfacet
  facet normal -0.904827 0.425778 0
    outer loop
      vertex 10.816 11.6566 -6
      vertex 10.816 11.6566 0
      vertex 11.0566 12.1679 -6
    endloop
  endfacet
  facet normal -0.904827 0.425778 0
    outer loop
      vertex 11.0566 12.1679 -6
      vertex 10.816 11.6566 0
      vertex 11.0566 12.1679 0
    endloop
  endfacet
  facet normal -0.844328 0.535827 0
    outer loop
      vertex 11.0566 12.1679 -6
      vertex 11.0566 12.1679 0
      vertex 11.3594 12.645 -6
    endloop
  endfacet
  facet normal -0.844328 0.535827 0
    outer loop
      vertex 11.3594 12.645 -6
      vertex 11.0566 12.1679 0
      vertex 11.3594 12.645 0
    endloop
  endfacet
  facet normal -0.770514 0.637424 0
    outer loop
      vertex 11.3594 12.645 -6
      vertex 11.3594 12.645 0
      vertex 11.7196 13.0805 -6
    endloop
  endfacet
  facet normal -0.770514 0.637424 0
    outer loop
      vertex 11.7196 13.0805 -6
      vertex 11.3594 12.645 0
      vertex 11.7196 13.0805 0
    endloop
  endfacet
  facet normal -0.684547 0.728968 0
    outer loop
      vertex 11.7196 13.0805 -6
      vertex 11.7196 13.0805 0
      vertex 12.1316 13.4673 -6
    endloop
  endfacet
  facet normal -0.684547 0.728968 0
    outer loop
      vertex 12.1316 13.4673 -6
      vertex 11.7196 13.0805 0
      vertex 12.1316 13.4673 0
    endloop
  endfacet
  facet normal -0.587785 0.809017 0
    outer loop
      vertex 12.1316 13.4673 -6
      vertex 12.1316 13.4673 0
      vertex 12.5888 13.7995 -6
    endloop
  endfacet
  facet normal -0.587785 0.809017 0
    outer loop
      vertex 12.5888 13.7995 -6
      vertex 12.1316 13.4673 0
      vertex 12.5888 13.7995 0
    endloop
  endfacet
  facet normal -0.481753 0.876307 0
    outer loop
      vertex 12.5888 13.7995 -6
      vertex 12.5888 13.7995 0
      vertex 13.084 14.0717 -6
    endloop
  endfacet
  facet normal -0.481753 0.876307 0
    outer loop
      vertex 13.084 14.0717 -6
      vertex 12.5888 13.7995 0
      vertex 13.084 14.0717 0
    endloop
  endfacet
  facet normal -0.368123 0.929777 0
    outer loop
      vertex 13.084 14.0717 -6
      vertex 13.084 14.0717 0
      vertex 13.6094 14.2798 -6
    endloop
  endfacet
  facet normal -0.368123 0.929777 0
    outer loop
      vertex 13.6094 14.2798 -6
      vertex 13.084 14.0717 0
      vertex 13.6094 14.2798 0
    endloop
  endfacet
  facet normal -0.248691 0.968583 0
    outer loop
      vertex 13.6094 14.2798 -6
      vertex 13.6094 14.2798 0
      vertex 14.1568 14.4203 -6
    endloop
  endfacet
  facet normal -0.248691 0.968583 0
    outer loop
      vertex 14.1568 14.4203 -6
      vertex 13.6094 14.2798 0
      vertex 14.1568 14.4203 0
    endloop
  endfacet
  facet normal -0.125332 0.992115 0
    outer loop
      vertex 14.1568 14.4203 -6
      vertex 14.1568 14.4203 0
      vertex 14.7174 14.4911 -6
    endloop
  endfacet
  facet normal -0.125332 0.992115 0
    outer loop
      vertex 14.7174 14.4911 -6
      vertex 14.1568 14.4203 0
      vertex 14.7174 14.4911 0
    endloop
  endfacet
  facet normal 0 1 0
    outer loop
      vertex 14.7174 14.4911 -6
      vertex 14.7174 14.4911 0
      vertex 15.2826 14.4911 -6
    endloop
  endfacet
  facet normal 0 1 0
    outer loop
      vertex 15.2826 14.4911 -6
      vertex 14.7174 14.4911 0
      vertex 15.2826 14.4911 0
    endloop
  endfacet
  facet normal 0.125332 0.992115 0
    outer loop
      vertex 15.2826 14.4911 -6
      vertex 15.2826 14.4911 0
      vertex 15.8432 14.4203 -6
    endloop
  endfacet
  facet normal 0.125332 0.992115 0
    outer loop
      vertex 15.8432 14.4203 -6
      vertex 15.2826 14.4911 0
      vertex 15.8432 14.4203 0
    endloop
  endfacet
  facet normal 0.248691 0.968583 0
    outer loop
      vertex 15.8432 14.4203 -6
      vertex 15.8432 14.4203 0
      vertex 16.3906 14.2798 -6
    endloop
  endfacet
  facet normal 0.248691 0.968583 0
    outer loop
      vertex 16.3906 14.2798 -6
      vertex 15.8432 14.4203 0
      vertex 16.3906 14.2798 0
    endloop
  endfacet
  facet normal 0.368123 0.929777 0
    outer loop
      vertex 16.3906 14.2798 -6
      vertex 16.3906 14.2798 0
      vertex 16.916 14.0717 -6
    endloop
  endfacet
  facet normal 0.368123 0.929777 0
    outer loop
      vertex 16.916 14.0717 -6
      vertex 16.3906 14.2798 0
      vertex 16.916 14.0717 0
    endloop
  endfacet
  facet normal 0.481753 0.876307 0
    outer loop
      vertex 16.916 14.0717 -6
      vertex 16.916 14.0717 0
      vertex 17.4112 13.7995 -6
    endloop
  endfacet
  facet normal 0.481753 0.876307 0
    outer loop
      vertex 17.4112 13.7995 -6
      vertex 16.916 14.0717 0
      vertex 17.4112 13.7995 0
    endloop
  endfacet
  facet normal 0.587785 0.809017 0
    outer loop
      vertex 17.4112 13.7995 -6
      vertex 17.4112 13.7995 0
      vertex 17.8684 13.4673 -6
    endloop
  endfacet
  facet normal 0.587785 0.809017 0
    outer loop
      vertex 17.8684 13.4673 -6
      vertex 17.4112 13.7995 0
      vertex 17.8684 13.4673 0
    endloop
  endfacet
  facet normal 0.684547 0.728968 0
    outer loop
      vertex 17.8684 13.4673 -6
      vertex 17.8684 13.4673 0
      vertex 18.2804 13.0805 -6
    endloop
  endfacet
  facet normal 0.684547 0.728968 0
    outer loop
      vertex 18.2804 13.0805 -6
      vertex 17.8684 13.4673 0
      vertex 18.2804 13.0805 0
    endloop
  endfacet
  facet normal 0.770514 0.637424 0
    outer loop
      vertex 18.6406 12.645 -6
      vertex 18.2804 13.0805 -6
      vertex 18.2804 13.0805 0
    endloop
  endfacet
  facet normal 0.770514 0.637424 0
    outer loop
      vertex 18.6406 12.645 0
      vertex 18.6406 12.645 -6
      vertex 18.2804 13.0805 0
    endloop
  endfacet
  facet normal 0.844328 0.535827 0
    outer loop
      vertex 18.9434 12.1679 -6
      vertex 18.6406 12.645 -6
      vertex 18.6406 12.645 0
    endloop
  endfacet
  facet normal 0.844328 0.535827 0
    outer loop
      vertex 18.9434 12.1679 0
      vertex 18.9434 12.1679 -6
      vertex 18.6406 12.645 0
    endloop
  endfacet
  facet normal 0.904827 0.425778 0
    outer loop
      vertex 19.184 11.6566 -6
      vertex 18.9434 12.1679 -6
      vertex 18.9434 12.1679 0
    endloop
  endfacet
  facet normal 0.904827 0.425778 0
    outer loop
      vertex 19.184 11.6566 0
      vertex 19.184 11.6566 -6
      vertex 18.9434 12.1679 0
    endloop
  endfacet
  facet normal 0.951057 0.309017 0
    outer loop
      vertex 19.3586 11.1191 -6
      vertex 19.184 11.6566 -6
      vertex 19.184 11.6566 0
    endloop
  endfacet
  facet normal 0.951057 0.309017 0
    outer loop
      vertex 19.3586 11.1191 0
      vertex 19.3586 11.1191 -6
      vertex 19.184 11.6566 0
    endloop
  endfacet
  facet normal 0.982287 0.187382 0
    outer loop
      vertex 19.4645 10.564 -6
      vertex 19.3586 11.1191 -6
      vertex 19.3586 11.1191 0
    endloop
  endfacet
  facet normal 0.982287 0.187382 0
    outer loop
      vertex 19.4645 10.564 0
      vertex 19.4645 10.564 -6
      vertex 19.3586 11.1191 0
    endloop
  endfacet
  facet normal 0.998027 0.0627907 0
    outer loop
      vertex 19.5 10 -6
      vertex 19.4645 10.564 -6
      vertex 19.4645 10.564 0
    endloop
  endfacet
  facet normal 0.998027 0.0627907 0
    outer loop
      vertex 19.5 10 0
      vertex 19.5 10 -6
      vertex 19.4645 10.564 0
    endloop
  endfacet
  facet normal 0.998027 -0.0627907 0
    outer loop
      vertex 19.4645 9.436 0
      vertex 19.4645 9.436 -6
      vertex 19.5 10 -6
    endloop
  endfacet
  facet normal 0.998027 -0.0627907 0
    outer loop
      vertex 19.5 10 0
      vertex 19.4645 9.436 0
      vertex 19.5 10 -6
    endloop
  endfacet
  facet normal 0.982287 -0.187382 0
    outer loop
      vertex 19.3586 8.8809 0
      vertex 19.3586 8.8809 -6
      vertex 19.4645 9.436 -6
    endloop
  endfacet
  facet normal 0.982287 -0.187382 0
    outer loop
      vertex 19.4645 9.436 0
      vertex 19.3586 8.8809 0
      vertex 19.4645 9.436 -6
    endloop
  endfacet
  facet normal 0.951057 -0.309017 0
    outer loop
      vertex 19.184 8.34344 0
      vertex 19.184 8.34344 -6
      vertex 19.3586 8.8809 -6
    endloop
  endfacet
  facet normal 0.951057 -0.309017 0
    outer loop
      vertex 19.3586 8.8809 0
      vertex 19.184 8.34344 0
      vertex 19.3586 8.8809 -6
    endloop
  endfacet
  facet normal 0.904827 -0.425778 0
    outer loop
      vertex 18.9434 7.83211 0
      vertex 18.9434 7.83211 -6
      vertex 19.184 8.34344 -6
    endloop
  endfacet
  facet normal 0.904827 -0.425778 0
    outer loop
      vertex 19.184 8.34344 0
      vertex 18.9434 7.83211 0
      vertex 19.184 8.34344 -6
    endloop
  endfacet
  facet normal 0.844328 -0.535827 0
    outer loop
      vertex 18.6406 7.35497 0
      vertex 18.6406 7.35497 -6
      vertex 18.9434 7.83211 -6
    endloop
  endfacet
  facet normal 0.844328 -0.535827 0
    outer loop
      vertex 18.9434 7.83211 0
      vertex 18.6406 7.35497 0
      vertex 18.9434 7.83211 -6
    endloop
  endfacet
  facet normal 0.770514 -0.637424 0
    outer loop
      vertex 18.2804 6.91954 0
      vertex 18.2804 6.91954 -6
      vertex 18.6406 7.35497 -6
    endloop
  endfacet
  facet normal 0.770514 -0.637424 0
    outer loop
      vertex 18.6406 7.35497 0
      vertex 18.2804 6.91954 0
      vertex 18.6406 7.35497 -6
    endloop
  endfacet
  facet normal 0.684547 -0.728968 0
    outer loop
      vertex 17.8684 6.53269 0
      vertex 17.8684 6.53269 -6
      vertex 18.2804 6.91954 -6
    endloop
  endfacet
  facet normal 0.684547 -0.728968 0
    outer loop
      vertex 18.2804 6.91954 0
      vertex 17.8684 6.53269 0
      vertex 18.2804 6.91954 -6
    endloop
  endfacet
  facet normal 0.587785 -0.809017 0
    outer loop
      vertex 17.4112 6.20052 0
      vertex 17.4112 6.20052 -6
      vertex 17.8684 6.53269 -6
    endloop
  endfacet
  facet normal 0.587785 -0.809017 0
    outer loop
      vertex 17.8684 6.53269 0
      vertex 17.4112 6.20052 0
      vertex 17.8684 6.53269 -6
    endloop
  endfacet
  facet normal 0.481753 -0.876307 0
    outer loop
      vertex 16.916 5.92828 0
      vertex 16.916 5.92828 -6
      vertex 17.4112 6.20052 -6
    endloop
  endfacet
  facet normal 0.481753 -0.876307 0
    outer loop
      vertex 17.4112 6.20052 0
      vertex 16.916 5.92828 0
      vertex 17.4112 6.20052 -6
    endloop
  endfacet
  facet normal 0.368123 -0.929777 0
    outer loop
      vertex 16.3906 5.72025 0
      vertex 16.3906 5.72025 -6
      vertex 16.916 5.92828 -6
    endloop
  endfacet
  facet normal 0.368123 -0.929777 0
    outer loop
      vertex 16.916 5.92828 0
      vertex 16.3906 5.72025 0
      vertex 16.916 5.92828 -6
    endloop
  endfacet
  facet normal 0.248691 -0.968583 0
    outer loop
      vertex 15.8432 5.57971 0
      vertex 15.8432 5.57971 -6
      vertex 16.3906 5.72025 -6
    endloop
  endfacet
  facet normal 0.248691 -0.968583 0
    outer loop
      vertex 16.3906 5.72025 0
      vertex 15.8432 5.57971 0
      vertex 16.3906 5.72025 -6
    endloop
  endfacet
  facet normal 0.125332 -0.992115 0
    outer loop
      vertex 15.2826 5.50888 0
      vertex 15.2826 5.50888 -6
      vertex 15.8432 5.57971 -6
    endloop
  endfacet
  facet normal 0.125332 -0.992115 0
    outer loop
      vertex 15.8432 5.57971 0
      vertex 15.2826 5.50888 0
      vertex 15.8432 5.57971 -6
    endloop
  endfacet
  facet normal 0 -1 0
    outer loop
      vertex 14.7174 5.50888 0
      vertex 14.7174 5.50888 -6
      vertex 15.2826 5.50888 -6
    endloop
  endfacet
  facet normal 0 -1 0
    outer loop
      vertex 15.2826 5.50888 0
      vertex 14.7174 5.50888 0
      vertex 15.2826 5.50888 -6
    endloop
  endfacet
  facet normal -0.125332 -0.992115 0
    outer loop
      vertex 14.1568 5.57971 0
      vertex 14.1568 5.57971 -6
      vertex 14.7174 5.50888 -6
    endloop
  endfacet
  facet normal -0.125332 -0.992115 0
    outer loop
      vertex 14.7174 5.50888 0
      vertex 14.1568 5.57971 0
      vertex 14.7174 5.50888 -6
    endloop
  endfacet
  facet normal -0.248691 -0.968583 0
    outer loop
      vertex 13.6094 5.72025 0
      vertex 13.6094 5.72025 -6
      vertex 14.1568 5.57971 -6
    endloop
  endfacet
  facet normal -0.248691 -0.968583 0
    outer loop
      vertex 14.1568 5.57971 0
      vertex 13.6094 5.72025 0
      vertex 14.1568 5.57971 -6
    endloop
  endfacet
  facet normal -0.368123 -0.929777 0
    outer loop
      vertex 13.084 5.92828 0
      vertex 13.084 5.92828 -6
      vertex 13.6094 5.72025 -6
    endloop
  endfacet
  facet normal -0.368123 -0.929777 0
    outer loop
      vertex 13.6094 5.72025 0
      vertex 13.084 5.92828 0
      vertex 13.6094 5.72025 -6
    endloop
  endfacet
  facet normal -0.481753 -0.876307 0
    outer loop
      vertex 12.5888 6.20052 0
      vertex 12.5888 6.20052 -6
      vertex 13.084 5.92828 -6
    endloop
  endfacet
  facet normal -0.481753 -0.876307 0
    outer loop
      vertex 13.084 5.92828 0
      vertex 12.5888 6.20052 0
      vertex 13.084 5.92828 -6
    endloop
  endfacet
  facet normal -0.587785 -0.809017 0
    outer loop
      vertex 12.1316 6.53269 0
      vertex 12.1316 6.53269 -6
      vertex 12.5888 6.20052 -6
    endloop
  endfacet
  facet normal -0.587785 -0.809017 0
    outer loop
      vertex 12.5888 6.20052 0
      vertex 12.1316 6.53269 0
      vertex 12.5888 6.20052 -6
    endloop
  endfacet
  facet normal -0.684547 -0.728968 0
    outer loop
      vertex 11.7196 6.91954 0
      vertex 11.7196 6.91954 -6
      vertex 12.1316 6.53269 -6
    endloop
  endfacet
  facet normal -0.684547 -0.728968 0
    outer loop
      vertex 12.1316 6.53269 0
      vertex 11.7196 6.91954 0
      vertex 12.1316 6.53269 -6
    endloop
  endfacet
  facet normal -0.770514 -0.637424 0
    outer loop
      vertex 11.3594 7.35497 -6
      vertex 11.7196 6.91954 -6
      vertex 11.3594 7.35497 0
    endloop
  endfacet
  facet normal -0.770514 -0.637424 0
    outer loop
      vertex 11.3594 7.35497 0
      vertex 11.7196 6.91954 -6
      vertex 11.7196 6.91954 0
    endloop
  endfacet
  facet normal -0.844328 -0.535827 0
    outer loop
      vertex 11.0566 7.83211 -6
      vertex 11.3594 7.35497 -6
      vertex 11.0566 7.83211 0
    endloop
  endfacet
  facet normal -0.844328 -0.535827 0
    outer loop
      vertex 11.0566 7.83211 0
      vertex 11.3594 7.35497 -6
      vertex 11.3594 7.35497 0
    endloop
  endfacet
  facet normal -0.904827 -0.425778 0
    outer loop
      vertex 10.816 8.34344 -6
      vertex 11.0566 7.83211 -6
      vertex 10.816 8.34344 0
    endloop
  endfacet
  facet normal -0.904827 -0.425778 0
    outer loop
      vertex 10.816 8.34344 0
      vertex 11.0566 7.83211 -6
      vertex 11.0566 7.83211 0
    endloop
  endfacet
  facet normal -0.951057 -0.309017 0
    outer loop
      vertex 10.6414 8.8809 -6
      vertex 10.816 8.34344 -6
      vertex 10.6414 8.8809 0
    endloop
  endfacet
  facet normal -0.951057 -0.309017 0
    outer loop
      vertex 10.6414 8.8809 0
      vertex 10.816 8.34344 -6
      vertex 10.816 8.34344 0
    endloop
  endfacet
  facet normal -0.982287 -0.187382 0
    outer loop
      vertex 10.5355 9.436 -6
      vertex 10.6414 8.8809 -6
      vertex 10.5355 9.436 0
    endloop
  endfacet
  facet normal -0.982287 -0.187382 0
    outer loop
      vertex 10.5355 9.436 0
      vertex 10.6414 8.8809 -6
      vertex 10.6414 8.8809 0
    endloop
  endfacet
  facet normal 0 -1 0
    outer loop
      vertex 29 14 1
      vertex 29 14 6
      vertex 1 14 6
    endloop
  endfacet
  facet normal 0 -1 0
    outer loop
      vertex 1 14 1
      vertex 29 14 1
      vertex 1 14 6
    endloop
  endfacet
  facet normal 0.998027 0.0627898 0
    outer loop
      vertex 12.5 10 1
      vertex 12.5197 9.68667 1
      vertex 12.5197 9.68667 -6
    endloop
  endfacet
  facet normal 0.998027 0.0627898 0
    outer loop
      vertex 12.5 10 -6
      vertex 12.5 10 1
      vertex 12.5197 9.68667 -6
    endloop
  endfacet
  facet normal 0.998027 -0.0627898 0
    outer loop
      vertex 12.5197 10.3133 -6
      vertex 12.5197 10.3133 1
      vertex 12.5 10 1
    endloop
  endfacet
  facet normal 0.998027 -0.0627898 0
    outer loop
      vertex 12.5 10 -6
      vertex 12.5197 10.3133 -6
      vertex 12.5 10 1
    endloop
  endfacet
  facet normal 0.982287 0.187382 0
    outer loop
      vertex 12.5197 9.68667 1
      vertex 12.5785 9.37827 1
      vertex 12.5785 9.37827 -6
    endloop
  endfacet
  facet normal 0.982287 0.187382 0
    outer loop
      vertex 12.5197 9.68667 -6
      vertex 12.5197 9.68667 1
      vertex 12.5785 9.37827 -6
    endloop
  endfacet
  facet normal 0.951056 0.309019 0
    outer loop
      vertex 12.5785 9.37827 1
      vertex 12.6756 9.07969 1
      vertex 12.6756 9.07969 -6
    endloop
  endfacet
  facet normal 0.951056 0.309019 0
    outer loop
      vertex 12.5785 9.37827 -6
      vertex 12.5785 9.37827 1
      vertex 12.6756 9.07969 -6
    endloop
  endfacet
  facet normal 0.904828 0.425778 0
    outer loop
      vertex 12.6756 9.07969 1
      vertex 12.8092 8.79562 1
      vertex 12.8092 8.79562 -6
    endloop
  endfacet
  facet normal 0.904828 0.425778 0
    outer loop
      vertex 12.6756 9.07969 -6
      vertex 12.6756 9.07969 1
      vertex 12.8092 8.79562 -6
    endloop
  endfacet
  facet normal 0.844327 0.535829 0
    outer loop
      vertex 12.8092 8.79562 1
      vertex 12.9775 8.53054 1
      vertex 12.9775 8.53054 -6
    endloop
  endfacet
  facet normal 0.844327 0.535829 0
    outer loop
      vertex 12.8092 8.79562 -6
      vertex 12.8092 8.79562 1
      vertex 12.9775 8.53054 -6
    endloop
  endfacet
  facet normal 0.770515 0.637422 0
    outer loop
      vertex 12.9775 8.53054 1
      vertex 13.1776 8.28863 1
      vertex 13.1776 8.28863 -6
    endloop
  endfacet
  facet normal 0.770515 0.637422 0
    outer loop
      vertex 12.9775 8.53054 -6
      vertex 12.9775 8.53054 1
      vertex 13.1776 8.28863 -6
    endloop
  endfacet
  facet normal 0.684546 0.72897 0
    outer loop
      vertex 13.4064 8.07372 1
      vertex 13.4064 8.07372 -6
      vertex 13.1776 8.28863 1
    endloop
  endfacet
  facet normal 0.684546 0.72897 0
    outer loop
      vertex 13.1776 8.28863 1
      vertex 13.4064 8.07372 -6
      vertex 13.1776 8.28863 -6
    endloop
  endfacet
  facet normal 0.587786 0.809017 0
    outer loop
      vertex 13.6604 7.88918 1
      vertex 13.6604 7.88918 -6
      vertex 13.4064 8.07372 1
    endloop
  endfacet
  facet normal 0.587786 0.809017 0
    outer loop
      vertex 13.4064 8.07372 1
      vertex 13.6604 7.88918 -6
      vertex 13.4064 8.07372 -6
    endloop
  endfacet
  facet normal 0.481754 0.876307 0
    outer loop
      vertex 13.9356 7.73793 1
      vertex 13.9356 7.73793 -6
      vertex 13.6604 7.88918 1
    endloop
  endfacet
  facet normal 0.481754 0.876307 0
    outer loop
      vertex 13.6604 7.88918 1
      vertex 13.9356 7.73793 -6
      vertex 13.6604 7.88918 -6
    endloop
  endfacet
  facet normal 0.368122 0.929777 0
    outer loop
      vertex 14.2275 7.62236 1
      vertex 14.2275 7.62236 -6
      vertex 13.9356 7.73793 1
    endloop
  endfacet
  facet normal 0.368122 0.929777 0
    outer loop
      vertex 13.9356 7.73793 1
      vertex 14.2275 7.62236 -6
      vertex 13.9356 7.73793 -6
    endloop
  endfacet
  facet normal 0.248691 0.968583 0
    outer loop
      vertex 14.5315 7.54428 1
      vertex 14.5315 7.54428 -6
      vertex 14.2275 7.62236 1
    endloop
  endfacet
  facet normal 0.248691 0.968583 0
    outer loop
      vertex 14.2275 7.62236 1
      vertex 14.5315 7.54428 -6
      vertex 14.2275 7.62236 -6
    endloop
  endfacet
  facet normal 0.125334 0.992115 0
    outer loop
      vertex 14.843 7.50493 1
      vertex 14.843 7.50493 -6
      vertex 14.5315 7.54428 1
    endloop
  endfacet
  facet normal 0.125334 0.992115 0
    outer loop
      vertex 14.5315 7.54428 1
      vertex 14.843 7.50493 -6
      vertex 14.5315 7.54428 -6
    endloop
  endfacet
  facet normal 0 1 0
    outer loop
      vertex 15.157 7.50493 1
      vertex 15.157 7.50493 -6
      vertex 14.843 7.50493 1
    endloop
  endfacet
  facet normal 0 1 0
    outer loop
      vertex 14.843 7.50493 1
      vertex 15.157 7.50493 -6
      vertex 14.843 7.50493 -6
    endloop
  endfacet
  facet normal -0.125334 0.992115 0
    outer loop
      vertex 15.4685 7.54428 1
      vertex 15.4685 7.54428 -6
      vertex 15.157 7.50493 1
    endloop
  endfacet
  facet normal -0.125334 0.992115 0
    outer loop
      vertex 15.157 7.50493 1
      vertex 15.4685 7.54428 -6
      vertex 15.157 7.50493 -6
    endloop
  endfacet
  facet normal -0.248691 0.968583 0
    outer loop
      vertex 15.7725 7.62236 1
      vertex 15.7725 7.62236 -6
      vertex 15.4685 7.54428 1
    endloop
  endfacet
  facet normal -0.248691 0.968583 0
    outer loop
      vertex 15.4685 7.54428 1
      vertex 15.7725 7.62236 -6
      vertex 15.4685 7.54428 -6
    endloop
  endfacet
  facet normal -0.368122 0.929777 0
    outer loop
      vertex 16.0644 7.73793 1
      vertex 16.0644 7.73793 -6
      vertex 15.7725 7.62236 1
    endloop
  endfacet
  facet normal -0.368122 0.929777 0
    outer loop
      vertex 15.7725 7.62236 1
      vertex 16.0644 7.73793 -6
      vertex 15.7725 7.62236 -6
    endloop
  endfacet
  facet normal -0.481754 0.876307 0
    outer loop
      vertex 16.3396 7.88918 1
      vertex 16.3396 7.88918 -6
      vertex 16.0644 7.73793 1
    endloop
  endfacet
  facet normal -0.481754 0.876307 0
    outer loop
      vertex 16.0644 7.73793 1
      vertex 16.3396 7.88918 -6
      vertex 16.0644 7.73793 -6
    endloop
  endfacet
  facet normal -0.587786 0.809017 0
    outer loop
      vertex 16.5936 8.07372 1
      vertex 16.5936 8.07372 -6
      vertex 16.3396 7.88918 1
    endloop
  endfacet
  facet normal -0.587786 0.809017 0
    outer loop
      vertex 16.3396 7.88918 1
      vertex 16.5936 8.07372 -6
      vertex 16.3396 7.88918 -6
    endloop
  endfacet
  facet normal -0.684546 0.72897 0
    outer loop
      vertex 16.8224 8.28863 1
      vertex 16.8224 8.28863 -6
      vertex 16.5936 8.07372 1
    endloop
  endfacet
  facet normal -0.684546 0.72897 0
    outer loop
      vertex 16.5936 8.07372 1
      vertex 16.8224 8.28863 -6
      vertex 16.5936 8.07372 -6
    endloop
  endfacet
  facet normal -0.770515 0.637422 0
    outer loop
      vertex 17.0225 8.53054 1
      vertex 17.0225 8.53054 -6
      vertex 16.8224 8.28863 1
    endloop
  endfacet
  facet normal -0.770515 0.637422 0
    outer loop
      vertex 16.8224 8.28863 1
      vertex 17.0225 8.53054 -6
      vertex 16.8224 8.28863 -6
    endloop
  endfacet
  facet normal -0.844327 0.535829 0
    outer loop
      vertex 17.1908 8.79562 1
      vertex 17.1908 8.79562 -6
      vertex 17.0225 8.53054 1
    endloop
  endfacet
  facet normal -0.844327 0.535829 0
    outer loop
      vertex 17.0225 8.53054 1
      vertex 17.1908 8.79562 -6
      vertex 17.0225 8.53054 -6
    endloop
  endfacet
  facet normal -0.904828 0.425778 0
    outer loop
      vertex 17.3244 9.07969 1
      vertex 17.3244 9.07969 -6
      vertex 17.1908 8.79562 1
    endloop
  endfacet
  facet normal -0.904828 0.425778 0
    outer loop
      vertex 17.1908 8.79562 1
      vertex 17.3244 9.07969 -6
      vertex 17.1908 8.79562 -6
    endloop
  endfacet
  facet normal -0.951056 0.309019 0
    outer loop
      vertex 17.4215 9.37827 1
      vertex 17.4215 9.37827 -6
      vertex 17.3244 9.07969 1
    endloop
  endfacet
  facet normal -0.951056 0.309019 0
    outer loop
      vertex 17.3244 9.07969 1
      vertex 17.4215 9.37827 -6
      vertex 17.3244 9.07969 -6
    endloop
  endfacet
  facet normal -0.982287 0.187382 0
    outer loop
      vertex 17.4803 9.68667 1
      vertex 17.4803 9.68667 -6
      vertex 17.4215 9.37827 1
    endloop
  endfacet
  facet normal -0.982287 0.187382 0
    outer loop
      vertex 17.4215 9.37827 1
      vertex 17.4803 9.68667 -6
      vertex 17.4215 9.37827 -6
    endloop
  endfacet
  facet normal -0.998027 0.0627898 0
    outer loop
      vertex 17.5 10 1
      vertex 17.5 10 -6
      vertex 17.4803 9.68667 1
    endloop
  endfacet
  facet normal -0.998027 0.0627898 0
    outer loop
      vertex 17.4803 9.68667 1
      vertex 17.5 10 -6
      vertex 17.4803 9.68667 -6
    endloop
  endfacet
  facet normal -0.998027 -0.0627898 0
    outer loop
      vertex 17.5 10 1
      vertex 17.4803 10.3133 1
      vertex 17.5 10 -6
    endloop
  endfacet
  facet normal -0.998027 -0.0627898 0
    outer loop
      vertex 17.5 10 -6
      vertex 17.4803 10.3133 1
      vertex 17.4803 10.3133 -6
    endloop
  endfacet
  facet normal -0.982287 -0.187382 0
    outer loop
      vertex 17.4803 10.3133 1
      vertex 17.4215 10.6217 1
      vertex 17.4803 10.3133 -6
    endloop
  endfacet
  facet normal -0.982287 -0.187382 0
    outer loop
      vertex 17.4803 10.3133 -6
      vertex 17.4215 10.6217 1
      vertex 17.4215 10.6217 -6
    endloop
  endfacet
  facet normal -0.951056 -0.309019 0
    outer loop
      vertex 17.4215 10.6217 1
      vertex 17.3244 10.9203 1
      vertex 17.4215 10.6217 -6
    endloop
  endfacet
  facet normal -0.951056 -0.309019 0
    outer loop
      vertex 17.4215 10.6217 -6
      vertex 17.3244 10.9203 1
      vertex 17.3244 10.9203 -6
    endloop
  endfacet
  facet normal -0.904828 -0.425778 0
    outer loop
      vertex 17.3244 10.9203 1
      vertex 17.1908 11.2044 1
      vertex 17.3244 10.9203 -6
    endloop
  endfacet
  facet normal -0.904828 -0.425778 0
    outer loop
      vertex 17.3244 10.9203 -6
      vertex 17.1908 11.2044 1
      vertex 17.1908 11.2044 -6
    endloop
  endfacet
  facet normal -0.844327 -0.535829 0
    outer loop
      vertex 17.1908 11.2044 1
      vertex 17.0225 11.4695 1
      vertex 17.1908 11.2044 -6
    endloop
  endfacet
  facet normal -0.844327 -0.535829 0
    outer loop
      vertex 17.1908 11.2044 -6
      vertex 17.0225 11.4695 1
      vertex 17.0225 11.4695 -6
    endloop
  endfacet
  facet normal -0.770515 -0.637422 0
    outer loop
      vertex 17.0225 11.4695 1
      vertex 16.8224 11.7114 1
      vertex 17.0225 11.4695 -6
    endloop
  endfacet
  facet normal -0.770515 -0.637422 0
    outer loop
      vertex 17.0225 11.4695 -6
      vertex 16.8224 11.7114 1
      vertex 16.8224 11.7114 -6
    endloop
  endfacet
  facet normal -0.684546 -0.72897 0
    outer loop
      vertex 16.8224 11.7114 -6
      vertex 16.8224 11.7114 1
      vertex 16.5936 11.9263 1
    endloop
  endfacet
  facet normal -0.684546 -0.72897 0
    outer loop
      vertex 16.5936 11.9263 -6
      vertex 16.8224 11.7114 -6
      vertex 16.5936 11.9263 1
    endloop
  endfacet
  facet normal -0.587786 -0.809017 0
    outer loop
      vertex 16.5936 11.9263 -6
      vertex 16.5936 11.9263 1
      vertex 16.3396 12.1108 1
    endloop
  endfacet
  facet normal -0.587786 -0.809017 0
    outer loop
      vertex 16.3396 12.1108 -6
      vertex 16.5936 11.9263 -6
      vertex 16.3396 12.1108 1
    endloop
  endfacet
  facet normal -0.481754 -0.876307 0
    outer loop
      vertex 16.3396 12.1108 -6
      vertex 16.3396 12.1108 1
      vertex 16.0644 12.2621 1
    endloop
  endfacet
  facet normal -0.481754 -0.876307 0
    outer loop
      vertex 16.0644 12.2621 -6
      vertex 16.3396 12.1108 -6
      vertex 16.0644 12.2621 1
    endloop
  endfacet
  facet normal -0.368122 -0.929777 0
    outer loop
      vertex 16.0644 12.2621 -6
      vertex 16.0644 12.2621 1
      vertex 15.7725 12.3776 1
    endloop
  endfacet
  facet normal -0.368122 -0.929777 0
    outer loop
      vertex 15.7725 12.3776 -6
      vertex 16.0644 12.2621 -6
      vertex 15.7725 12.3776 1
    endloop
  endfacet
  facet normal -0.248691 -0.968583 0
    outer loop
      vertex 15.7725 12.3776 -6
      vertex 15.7725 12.3776 1
      vertex 15.4685 12.4557 1
    endloop
  endfacet
  facet normal -0.248691 -0.968583 0
    outer loop
      vertex 15.4685 12.4557 -6
      vertex 15.7725 12.3776 -6
      vertex 15.4685 12.4557 1
    endloop
  endfacet
  facet normal -0.125334 -0.992115 0
    outer loop
      vertex 15.4685 12.4557 -6
      vertex 15.4685 12.4557 1
      vertex 15.157 12.4951 1
    endloop
  endfacet
  facet normal -0.125334 -0.992115 0
    outer loop
      vertex 15.157 12.4951 -6
      vertex 15.4685 12.4557 -6
      vertex 15.157 12.4951 1
    endloop
  endfacet
  facet normal 0 -1 0
    outer loop
      vertex 15.157 12.4951 -6
      vertex 15.157 12.4951 1
      vertex 14.843 12.4951 1
    endloop
  endfacet
  facet normal 0 -1 0
    outer loop
      vertex 14.843 12.4951 -6
      vertex 15.157 12.4951 -6
      vertex 14.843 12.4951 1
    endloop
  endfacet
  facet normal 0.125334 -0.992115 0
    outer loop
      vertex 14.843 12.4951 -6
      vertex 14.843 12.4951 1
      vertex 14.5315 12.4557 1
    endloop
  endfacet
  facet normal 0.125334 -0.992115 0
    outer loop
      vertex 14.5315 12.4557 -6
      vertex 14.843 12.4951 -6
      vertex 14.5315 12.4557 1
    endloop
  endfacet
  facet normal 0.248691 -0.968583 0
    outer loop
      vertex 14.5315 12.4557 -6
      vertex 14.5315 12.4557 1
      vertex 14.2275 12.3776 1
    endloop
  endfacet
  facet normal 0.248691 -0.968583 0
    outer loop
      vertex 14.2275 12.3776 -6
      vertex 14.5315 12.4557 -6
      vertex 14.2275 12.3776 1
    endloop
  endfacet
  facet normal 0.368122 -0.929777 0
    outer loop
      vertex 14.2275 12.3776 -6
      vertex 14.2275 12.3776 1
      vertex 13.9356 12.2621 1
    endloop
  endfacet
  facet normal 0.368122 -0.929777 0
    outer loop
      vertex 13.9356 12.2621 -6
      vertex 14.2275 12.3776 -6
      vertex 13.9356 12.2621 1
    endloop
  endfacet
  facet normal 0.481754 -0.876307 0
    outer loop
      vertex 13.9356 12.2621 -6
      vertex 13.9356 12.2621 1
      vertex 13.6604 12.1108 1
    endloop
  endfacet
  facet normal 0.481754 -0.876307 0
    outer loop
      vertex 13.6604 12.1108 -6
      vertex 13.9356 12.2621 -6
      vertex 13.6604 12.1108 1
    endloop
  endfacet
  facet normal 0.587786 -0.809017 0
    outer loop
      vertex 13.6604 12.1108 -6
      vertex 13.6604 12.1108 1
      vertex 13.4064 11.9263 1
    endloop
  endfacet
  facet normal 0.587786 -0.809017 0
    outer loop
      vertex 13.4064 11.9263 -6
      vertex 13.6604 12.1108 -6
      vertex 13.4064 11.9263 1
    endloop
  endfacet
  facet normal 0.684546 -0.72897 0
    outer loop
      vertex 13.4064 11.9263 -6
      vertex 13.4064 11.9263 1
      vertex 13.1776 11.7114 1
    endloop
  endfacet
  facet normal 0.684546 -0.72897 0
    outer loop
      vertex 13.1776 11.7114 -6
      vertex 13.4064 11.9263 -6
      vertex 13.1776 11.7114 1
    endloop
  endfacet
  facet normal 0.770515 -0.637422 0
    outer loop
      vertex 13.1776 11.7114 -6
      vertex 13.1776 11.7114 1
      vertex 12.9775 11.4695 1
    endloop
  endfacet
  facet normal 0.770515 -0.637422 0
    outer loop
      vertex 12.9775 11.4695 -6
      vertex 13.1776 11.7114 -6
      vertex 12.9775 11.4695 1
    endloop
  endfacet
  facet normal 0.844327 -0.535829 0
    outer loop
      vertex 12.9775 11.4695 -6
      vertex 12.9775 11.4695 1
      vertex 12.8092 11.2044 1
    endloop
  endfacet
  facet normal 0.844327 -0.535829 0
    outer loop
      vertex 12.8092 11.2044 -6
      vertex 12.9775 11.4695 -6
      vertex 12.8092 11.2044 1
    endloop
  endfacet
  facet normal 0.904828 -0.425778 0
    outer loop
      vertex 12.8092 11.2044 -6
      vertex 12.8092 11.2044 1
      vertex 12.6756 10.9203 1
    endloop
  endfacet
  facet normal 0.904828 -0.425778 0
    outer loop
      vertex 12.6756 10.9203 -6
      vertex 12.8092 11.2044 -6
      vertex 12.6756 10.9203 1
    endloop
  endfacet
  facet normal 0.951056 -0.309019 0
    outer loop
      vertex 12.6756 10.9203 -6
      vertex 12.6756 10.9203 1
      vertex 12.5785 10.6217 1
    endloop
  endfacet
  facet normal 0.951056 -0.309019 0
    outer loop
      vertex 12.5785 10.6217 -6
      vertex 12.6756 10.9203 -6
      vertex 12.5785 10.6217 1
    endloop
  endfacet
  facet normal 0.982287 -0.187382 0
    outer loop
      vertex 12.5785 10.6217 -6
      vertex 12.5785 10.6217 1
      vertex 12.5197 10.3133 1
    endloop
  endfacet
  facet normal 0.982287 -0.187382 0
    outer loop
      vertex 12.5197 10.3133 -6
      vertex 12.5785 10.6217 -6
      vertex 12.5197 10.3133 1
    endloop
  endfacet
  facet normal 0 0 -1
    outer loop
      vertex 10.5 10 -6
      vertex 10.5355 10.564 -6
      vertex 10.5355 9.436 -6
    endloop
  endfacet
  facet normal 0 0 -1
    outer loop
      vertex 10.5355 9.436 -6
      vertex 10.5355 10.564 -6
      vertex 10.6414 11.1191 -6
    endloop
  endfacet
  facet normal 0 0 -1
    outer loop
      vertex 10.5355 9.436 -6
      vertex 10.6414 11.1191 -6
      vertex 10.816 11.6566 -6
    endloop
  endfacet
  facet normal 0 0 -1
    outer loop
      vertex 10.5355 9.436 -6
      vertex 10.816 11.6566 -6
      vertex 11.0566 12.1679 -6
    endloop
  endfacet
  facet normal 0 0 -1
    outer loop
      vertex 10.5355 9.436 -6
      vertex 11.0566 12.1679 -6
      vertex 11.3594 12.645 -6
    endloop
  endfacet
  facet normal 0 0 -1
    outer loop
      vertex 10.5355 9.436 -6
      vertex 11.3594 12.645 -6
      vertex 11.7196 13.0805 -6
    endloop
  endfacet
  facet normal 0 0 -1
    outer loop
      vertex 10.5355 9.436 -6
      vertex 11.7196 13.0805 -6
      vertex 12.1316 13.4673 -6
    endloop
  endfacet
  facet normal 0 0 -1
    outer loop
      vertex 10.5355 9.436 -6
      vertex 12.1316 13.4673 -6
      vertex 12.5888 13.7995 -6
    endloop
  endfacet
  facet normal 0 0 -1
    outer loop
      vertex 10.5355 9.436 -6
      vertex 12.5888 13.7995 -6
      vertex 13.084 14.0717 -6
    endloop
  endfacet
  facet normal 0 0 -1
    outer loop
      vertex 10.5355 9.436 -6
      vertex 13.084 14.0717 -6
      vertex 13.6094 14.2798 -6
    endloop
  endfacet
  facet normal 0 0 -1
    outer loop
      vertex 10.5355 9.436 -6
      vertex 13.6094 14.2798 -6
      vertex 14.1568 14.4203 -6
    endloop
  endfacet
  facet normal 0 0 -1
    outer loop
      vertex 10.5355 9.436 -6
      vertex 14.1568 14.4203 -6
      vertex 14.7174 14.4911 -6
    endloop
  endfacet
  facet normal 0 0 -1
    outer loop
      vertex 10.5355 9.436 -6
      vertex 14.7174 14.4911 -6
      vertex 15.2826 14.4911 -6
    endloop
  endfacet
  facet normal 0 0 -1
    outer loop
      vertex 10.5355 9.436 -6
      vertex 15.2826 14.4911 -6
      vertex 15.8432 14.4203 -6
    endloop
  endfacet
  facet normal 0 0 -1
    outer loop
      vertex 13.9356 12.2621 -6
      vertex 15.8432 14.4203 -6
      vertex 16.3906 14.2798 -6
    endloop
  endfacet
  facet normal 0 0 -1
    outer loop
      vertex 14.5315 12.4557 -6
      vertex 16.3906 14.2798 -6
      vertex 16.916 14.0717 -6
    endloop
  endfacet
  facet normal 0 0 -1
    outer loop
      vertex 15.157 12.4951 -6
      vertex 16.916 14.0717 -6
      vertex 17.4112 13.7995 -6
    endloop
  endfacet
  facet normal 0 0 -1
    outer loop
      vertex 15.7725 12.3776 -6
      vertex 17.4112 13.7995 -6
      vertex 17.8684 13.4673 -6
    endloop
  endfacet
  facet normal 0 0 -1
    outer loop
      vertex 16.0644 12.2621 -6
      vertex 17.8684 13.4673 -6
      vertex 18.2804 13.0805 -6
    endloop
  endfacet
  facet normal 0 0 -1
    outer loop
      vertex 16.5936 11.9263 -6
      vertex 18.2804 13.0805 -6
      vertex 18.6406 12.645 -6
    endloop
  endfacet
  facet normal 0 0 -1
    outer loop
      vertex 16.8224 11.7114 -6
      vertex 18.6406 12.645 -6
      vertex 18.9434 12.1679 -6
    endloop
  endfacet
  facet normal 0 0 -1
    outer loop
      vertex 17.1908 11.2044 -6
      vertex 18.9434 12.1679 -6
      vertex 19.184 11.6566 -6
    endloop
  endfacet
  facet normal 0 0 -1
    outer loop
      vertex 17.3244 10.9203 -6
      vertex 19.184 11.6566 -6
      vertex 19.3586 11.1191 -6
    endloop
  endfacet
  facet normal 0 0 -1
    outer loop
      vertex 17.4215 10.6217 -6
      vertex 19.3586 11.1191 -6
      vertex 19.4645 10.564 -6
    endloop
  endfacet
  facet normal 0 0 -1
    outer loop
      vertex 17.5 10 -6
      vertex 19.4645 10.564 -6
      vertex 19.5 10 -6
    endloop
  endfacet
  facet normal 0 0 -1
    outer loop
      vertex 17.4803 9.68667 -6
      vertex 19.5 10 -6
      vertex 19.4645 9.436 -6
    endloop
  endfacet
  facet normal 0 0 -1
    outer loop
      vertex 17.3244 9.07969 -6
      vertex 19.4645 9.436 -6
      vertex 19.3586 8.8809 -6
    endloop
  endfacet
  facet normal 0 0 -1
    outer loop
      vertex 17.1908 8.79562 -6
      vertex 19.3586 8.8809 -6
      vertex 19.184 8.34344 -6
    endloop
  endfacet
  facet normal 0 0 -1
    outer loop
      vertex 16.8224 8.28863 -6
      vertex 19.184 8.34344 -6
      vertex 18.9434 7.83211 -6
    endloop
  endfacet
  facet normal 0 0 -1
    outer loop
      vertex 16.5936 8.07372 -6
      vertex 18.9434 7.83211 -6
      vertex 18.6406 7.35497 -6
    endloop
  endfacet
  facet normal 0 0 -1
    outer loop
      vertex 16.0644 7.73793 -6
      vertex 18.6406 7.35497 -6
      vertex 18.2804 6.91954 -6
    endloop
  endfacet
  facet normal 0 0 -1
    outer loop
      vertex 15.4685 7.54428 -6
      vertex 18.2804 6.91954 -6
      vertex 17.8684 6.53269 -6
    endloop
  endfacet
  facet normal 0 0 -1
    outer loop
      vertex 14.843 7.50493 -6
      vertex 17.8684 6.53269 -6
      vertex 17.4112 6.20052 -6
    endloop
  endfacet
  facet normal 0 0 -1
    outer loop
      vertex 14.2275 7.62236 -6
      vertex 17.4112 6.20052 -6
      vertex 16.916 5.92828 -6
    endloop
  endfacet
  facet normal 0 0 -1
    outer loop
      vertex 10.5355 9.436 -6
      vertex 16.916 5.92828 -6
      vertex 16.3906 5.72025 -6
    endloop
  endfacet
  facet normal 0 0 -1
    outer loop
      vertex 10.5355 9.436 -6
      vertex 16.3906 5.72025 -6
      vertex 15.8432 5.57971 -6
    endloop
  endfacet
  facet normal 0 0 -1
    outer loop
      vertex 10.5355 9.436 -6
      vertex 15.8432 5.57971 -6
      vertex 15.2826 5.50888 -6
    endloop
  endfacet
  facet normal 0 0 -1
    outer loop
      vertex 10.5355 9.436 -6
      vertex 15.2826 5.50888 -6
      vertex 14.7174 5.50888 -6
    endloop
  endfacet
  facet normal 0 0 -1
    outer loop
      vertex 10.5355 9.436 -6
      vertex 14.7174 5.50888 -6
      vertex 14.1568 5.57971 -6
    endloop
  endfacet
  facet normal 0 0 -1
    outer loop
      vertex 10.5355 9.436 -6
      vertex 14.1568 5.57971 -6
      vertex 13.6094 5.72025 -6
    endloop
  endfacet
  facet normal 0 0 -1
    outer loop
      vertex 10.5355 9.436 -6
      vertex 13.6094 5.72025 -6
      vertex 13.084 5.92828 -6
    endloop
  endfacet
  facet normal 0 0 -1
    outer loop
      vertex 10.5355 9.436 -6
      vertex 13.084 5.92828 -6
      vertex 12.5888 6.20052 -6
    endloop
  endfacet
  facet normal 0 0 -1
    outer loop
      vertex 10.5355 9.436 -6
      vertex 12.5888 6.20052 -6
      vertex 12.1316 6.53269 -6
    endloop
  endfacet
  facet normal 0 0 -1
    outer loop
      vertex 10.5355 9.436 -6
      vertex 12.1316 6.53269 -6
      vertex 11.7196 6.91954 -6
    endloop
  endfacet
  facet normal 0 0 -1
    outer loop
      vertex 10.5355 9.436 -6
      vertex 11.7196 6.91954 -6
      vertex 11.3594 7.35497 -6
    endloop
  endfacet
  facet normal 0 0 -1
    outer loop
      vertex 10.5355 9.436 -6
      vertex 11.3594 7.35497 -6
      vertex 11.0566 7.83211 -6
    endloop
  endfacet
  facet normal 0 0 -1
    outer loop
      vertex 10.5355 9.436 -6
      vertex 11.0566 7.83211 -6
      vertex 10.816 8.34344 -6
    endloop
  endfacet
  facet normal 0 0 -1
    outer loop
      vertex 10.5355 9.436 -6
      vertex 10.816 8.34344 -6
      vertex 10.6414 8.8809 -6
    endloop
  endfacet
  facet normal 0 0 -1
    outer loop
      vertex 12.5197 9.68667 -6
      vertex 10.5355 9.436 -6
      vertex 12.5 10 -6
    endloop
  endfacet
  facet normal 0 0 -1
    outer loop
      vertex 17.4215 10.6217 -6
      vertex 19.4645 10.564 -6
      vertex 17.4803 10.3133 -6
    endloop
  endfacet
  facet normal 0 0 -1
    outer loop
      vertex 12.5785 9.37827 -6
      vertex 10.5355 9.436 -6
      vertex 12.5197 9.68667 -6
    endloop
  endfacet
  facet normal 0 0 -1
    outer loop
      vertex 12.6756 9.07969 -6
      vertex 10.5355 9.436 -6
      vertex 12.5785 9.37827 -6
    endloop
  endfacet
  facet normal 0 0 -1
    outer loop
      vertex 12.8092 8.79562 -6
      vertex 10.5355 9.436 -6
      vertex 12.6756 9.07969 -6
    endloop
  endfacet
  facet normal 0 0 -1
    outer loop
      vertex 12.9775 8.53054 -6
      vertex 10.5355 9.436 -6
      vertex 12.8092 8.79562 -6
    endloop
  endfacet
  facet normal 0 0 -1
    outer loop
      vertex 13.1776 8.28863 -6
      vertex 10.5355 9.436 -6
      vertex 12.9775 8.53054 -6
    endloop
  endfacet
  facet normal 0 0 -1
    outer loop
      vertex 13.4064 8.07372 -6
      vertex 10.5355 9.436 -6
      vertex 13.1776 8.28863 -6
    endloop
  endfacet
  facet normal 0 0 -1
    outer loop
      vertex 14.2275 7.62236 -6
      vertex 16.916 5.92828 -6
      vertex 13.9356 7.73793 -6
    endloop
  endfacet
  facet normal 0 0 -1
    outer loop
      vertex 10.5355 9.436 -6
      vertex 13.4064 8.07372 -6
      vertex 13.6604 7.88918 -6
    endloop
  endfacet
  facet normal 0 0 -1
    outer loop
      vertex 10.5355 9.436 -6
      vertex 13.6604 7.88918 -6
      vertex 16.916 5.92828 -6
    endloop
  endfacet
  facet normal 0 0 -1
    outer loop
      vertex 13.6604 7.88918 -6
      vertex 13.9356 7.73793 -6
      vertex 16.916 5.92828 -6
    endloop
  endfacet
  facet normal 0 0 -1
    outer loop
      vertex 14.5315 7.54428 -6
      vertex 17.4112 6.20052 -6
      vertex 14.2275 7.62236 -6
    endloop
  endfacet
  facet normal 0 0 -1
    outer loop
      vertex 14.843 7.50493 -6
      vertex 17.4112 6.20052 -6
      vertex 14.5315 7.54428 -6
    endloop
  endfacet
  facet normal 0 0 -1
    outer loop
      vertex 15.157 7.50493 -6
      vertex 17.8684 6.53269 -6
      vertex 14.843 7.50493 -6
    endloop
  endfacet
  facet normal 0 0 -1
    outer loop
      vertex 15.4685 7.54428 -6
      vertex 17.8684 6.53269 -6
      vertex 15.157 7.50493 -6
    endloop
  endfacet
  facet normal 0 0 -1
    outer loop
      vertex 15.7725 7.62236 -6
      vertex 18.2804 6.91954 -6
      vertex 15.4685 7.54428 -6
    endloop
  endfacet
  facet normal 0 0 -1
    outer loop
      vertex 16.0644 7.73793 -6
      vertex 18.2804 6.91954 -6
      vertex 15.7725 7.62236 -6
    endloop
  endfacet
  facet normal 0 0 -1
    outer loop
      vertex 16.3396 7.88918 -6
      vertex 18.6406 7.35497 -6
      vertex 16.0644 7.73793 -6
    endloop
  endfacet
  facet normal 0 0 -1
    outer loop
      vertex 16.5936 8.07372 -6
      vertex 18.6406 7.35497 -6
      vertex 16.3396 7.88918 -6
    endloop
  endfacet
  facet normal 0 0 -1
    outer loop
      vertex 17.0225 8.53054 -6
      vertex 19.184 8.34344 -6
      vertex 16.8224 8.28863 -6
    endloop
  endfacet
  facet normal 0 0 -1
    outer loop
      vertex 17.1908 8.79562 -6
      vertex 19.184 8.34344 -6
      vertex 17.0225 8.53054 -6
    endloop
  endfacet
  facet normal 0 0 -1
    outer loop
      vertex 16.8224 8.28863 -6
      vertex 18.9434 7.83211 -6
      vertex 16.5936 8.07372 -6
    endloop
  endfacet
  facet normal 0 0 -1
    outer loop
      vertex 17.4215 9.37827 -6
      vertex 19.4645 9.436 -6
      vertex 17.3244 9.07969 -6
    endloop
  endfacet
  facet normal 0 0 -1
    outer loop
      vertex 17.4803 9.68667 -6
      vertex 19.4645 9.436 -6
      vertex 17.4215 9.37827 -6
    endloop
  endfacet
  facet normal 0 0 -1
    outer loop
      vertex 17.3244 9.07969 -6
      vertex 19.3586 8.8809 -6
      vertex 17.1908 8.79562 -6
    endloop
  endfacet
  facet normal 0 0 -1
    outer loop
      vertex 17.4803 10.3133 -6
      vertex 19.4645 10.564 -6
      vertex 17.5 10 -6
    endloop
  endfacet
  facet normal 0 0 -1
    outer loop
      vertex 17.3244 10.9203 -6
      vertex 19.3586 11.1191 -6
      vertex 17.4215 10.6217 -6
    endloop
  endfacet
  facet normal 0 0 -1
    outer loop
      vertex 17.0225 11.4695 -6
      vertex 18.9434 12.1679 -6
      vertex 17.1908 11.2044 -6
    endloop
  endfacet
  facet normal 0 0 -1
    outer loop
      vertex 16.8224 11.7114 -6
      vertex 18.9434 12.1679 -6
      vertex 17.0225 11.4695 -6
    endloop
  endfacet
  facet normal 0 0 -1
    outer loop
      vertex 17.1908 11.2044 -6
      vertex 19.184 11.6566 -6
      vertex 17.3244 10.9203 -6
    endloop
  endfacet
  facet normal 0 0 -1
    outer loop
      vertex 16.3396 12.1108 -6
      vertex 18.2804 13.0805 -6
      vertex 16.5936 11.9263 -6
    endloop
  endfacet
  facet normal 0 0 -1
    outer loop
      vertex 15.7725 12.3776 -6
      vertex 17.8684 13.4673 -6
      vertex 16.0644 12.2621 -6
    endloop
  endfacet
  facet normal 0 0 -1
    outer loop
      vertex 15.4685 12.4557 -6
      vertex 17.4112 13.7995 -6
      vertex 15.7725 12.3776 -6
    endloop
  endfacet
  facet normal 0 0 -1
    outer loop
      vertex 15.157 12.4951 -6
      vertex 17.4112 13.7995 -6
      vertex 15.4685 12.4557 -6
    endloop
  endfacet
  facet normal 0 0 -1
    outer loop
      vertex 14.843 12.4951 -6
      vertex 16.916 14.0717 -6
      vertex 15.157 12.4951 -6
    endloop
  endfacet
  facet normal 0 0 -1
    outer loop
      vertex 14.5315 12.4557 -6
      vertex 16.916 14.0717 -6
      vertex 14.843 12.4951 -6
    endloop
  endfacet
  facet normal 0 0 -1
    outer loop
      vertex 14.2275 12.3776 -6
      vertex 16.3906 14.2798 -6
      vertex 14.5315 12.4557 -6
    endloop
  endfacet
  facet normal 0 0 -1
    outer loop
      vertex 13.9356 12.2621 -6
      vertex 16.3906 14.2798 -6
      vertex 14.2275 12.3776 -6
    endloop
  endfacet
  facet normal 0 0 -1
    outer loop
      vertex 13.6604 12.1108 -6
      vertex 15.8432 14.4203 -6
      vertex 13.9356 12.2621 -6
    endloop
  endfacet
  facet normal 0 0 -1
    outer loop
      vertex 12.9775 11.4695 -6
      vertex 10.5355 9.436 -6
      vertex 13.1776 11.7114 -6
    endloop
  endfacet
  facet normal 0 0 -1
    outer loop
      vertex 13.4064 11.9263 -6
      vertex 15.8432 14.4203 -6
      vertex 13.6604 12.1108 -6
    endloop
  endfacet
  facet normal 0 0 -1
    outer loop
      vertex 10.5355 9.436 -6
      vertex 15.8432 14.4203 -6
      vertex 13.4064 11.9263 -6
    endloop
  endfacet
  facet normal 0 0 -1
    outer loop
      vertex 10.5355 9.436 -6
      vertex 13.4064 11.9263 -6
      vertex 13.1776 11.7114 -6
    endloop
  endfacet
  facet normal 0 0 -1
    outer loop
      vertex 12.8092 11.2044 -6
      vertex 10.5355 9.436 -6
      vertex 12.9775 11.4695 -6
    endloop
  endfacet
  facet normal 0 0 -1
    outer loop
      vertex 12.6756 10.9203 -6
      vertex 10.5355 9.436 -6
      vertex 12.8092 11.2044 -6
    endloop
  endfacet
  facet normal 0 0 -1
    outer loop
      vertex 12.5785 10.6217 -6
      vertex 10.5355 9.436 -6
      vertex 12.6756 10.9203 -6
    endloop
  endfacet
  facet normal 0 0 -1
    outer loop
      vertex 12.5197 10.3133 -6
      vertex 10.5355 9.436 -6
      vertex 12.5785 10.6217 -6
    endloop
  endfacet
  facet normal 0 0 -1
    outer loop
      vertex 12.5 10 -6
      vertex 10.5355 9.436 -6
      vertex 12.5197 10.3133 -6
    endloop
  endfacet
  facet normal 0 0 -1
    outer loop
      vertex 16.0644 12.2621 -6
      vertex 18.2804 13.0805 -6
      vertex 16.3396 12.1108 -6
    endloop
  endfacet
  facet normal 0 0 -1
    outer loop
      vertex 16.5936 11.9263 -6
      vertex 18.6406 12.645 -6
      vertex 16.8224 11.7114 -6
    endloop
  endfacet
  facet normal 0 0 -1
    outer loop
      vertex 17.5 10 -6
      vertex 19.5 10 -6
      vertex 17.4803 9.68667 -6
    endloop
  endfacet
endsolid OpenSCAD_Model
