solid OpenSCAD_Model
  facet normal -1 0 0
    outer loop
      vertex 0 0 0
      vertex 0 0 8.6
      vertex 0 15 0
    endloop
  endfacet
  facet normal -1 0 0
    outer loop
      vertex 0 15 0
      vertex 0 0 8.6
      vertex 0 15 8.6
    endloop
  endfacet
  facet normal 0 -1 0
    outer loop
      vertex 1 0 1
      vertex 0 0 0
      vertex 35 0 0
    endloop
  endfacet
  facet normal 0 -1 0
    outer loop
      vertex 0 0 8.6
      vertex 0 0 0
      vertex 1 0 1
    endloop
  endfacet
  facet normal 0 -1 0
    outer loop
      vertex 1 0 7.6
      vertex 34 0 7.6
      vertex 0 0 8.6
    endloop
  endfacet
  facet normal 0 -1 0
    outer loop
      vertex 0 0 8.6
      vertex 1 0 1
      vertex 1 0 7.6
    endloop
  endfacet
  facet normal 0 -1 0
    outer loop
      vertex 35 0 8.6
      vertex 34 0 7.6
      vertex 35 0 0
    endloop
  endfacet
  facet normal 0 -1 0
    outer loop
      vertex 35 0 8.6
      vertex 0 0 8.6
      vertex 34 0 7.6
    endloop
  endfacet
  facet normal 0 -1 0
    outer loop
      vertex 34 0 7.6
      vertex 34 0 1
      vertex 35 0 0
    endloop
  endfacet
  facet normal 0 -1 0
    outer loop
      vertex 34 0 1
      vertex 1 0 1
      vertex 35 0 0
    endloop
  endfacet
  facet normal 0 0 -1
    outer loop
      vertex 17.7888 14.6909 0
      vertex 0 15 0
      vertex 35 15 0
    endloop
  endfacet
  facet normal 0 0 -1
    outer loop
      vertex 12.9363 9.52347 0
      vertex 0 15 0
      vertex 12.9 10.1 0
    endloop
  endfacet
  facet normal 0 0 -1
    outer loop
      vertex 0 0 0
      vertex 0 15 0
      vertex 13.0445 8.95603 0
    endloop
  endfacet
  facet normal 0 0 -1
    outer loop
      vertex 0 0 0
      vertex 13.0445 8.95603 0
      vertex 13.223 8.40663 0
    endloop
  endfacet
  facet normal 0 0 -1
    outer loop
      vertex 0 0 0
      vertex 13.223 8.40663 0
      vertex 13.469 7.88393 0
    endloop
  endfacet
  facet normal 0 0 -1
    outer loop
      vertex 0 0 0
      vertex 13.469 7.88393 0
      vertex 13.7785 7.39619 0
    endloop
  endfacet
  facet normal 0 0 -1
    outer loop
      vertex 0 0 0
      vertex 13.7785 7.39619 0
      vertex 14.1467 6.95108 0
    endloop
  endfacet
  facet normal 0 0 -1
    outer loop
      vertex 0 0 0
      vertex 14.1467 6.95108 0
      vertex 14.5678 6.55564 0
    endloop
  endfacet
  facet normal 0 0 -1
    outer loop
      vertex 0 0 0
      vertex 14.5678 6.55564 0
      vertex 15.0352 6.21609 0
    endloop
  endfacet
  facet normal 0 0 -1
    outer loop
      vertex 0 0 0
      vertex 15.0352 6.21609 0
      vertex 15.5414 5.9378 0
    endloop
  endfacet
  facet normal 0 0 -1
    outer loop
      vertex 0 0 0
      vertex 15.5414 5.9378 0
      vertex 16.0785 5.72514 0
    endloop
  endfacet
  facet normal 0 0 -1
    outer loop
      vertex 0 0 0
      vertex 16.0785 5.72514 0
      vertex 35 0 0
    endloop
  endfacet
  facet normal 0 0 -1
    outer loop
      vertex 16.0785 5.72514 0
      vertex 16.638 5.58148 0
      vertex 35 0 0
    endloop
  endfacet
  facet normal 0 0 -1
    outer loop
      vertex 17.7888 5.50908 0
      vertex 35 0 0
      vertex 17.2112 5.50908 0
    endloop
  endfacet
  facet normal 0 0 -1
    outer loop
      vertex 18.362 5.58148 0
      vertex 35 0 0
      vertex 17.7888 5.50908 0
    endloop
  endfacet
  facet normal 0 0 -1
    outer loop
      vertex 18.9215 5.72514 0
      vertex 35 0 0
      vertex 18.362 5.58148 0
    endloop
  endfacet
  facet normal 0 0 -1
    outer loop
      vertex 19.4586 5.9378 0
      vertex 35 0 0
      vertex 18.9215 5.72514 0
    endloop
  endfacet
  facet normal 0 0 -1
    outer loop
      vertex 19.9648 6.21609 0
      vertex 35 0 0
      vertex 19.4586 5.9378 0
    endloop
  endfacet
  facet normal 0 0 -1
    outer loop
      vertex 17.2112 5.50908 0
      vertex 35 0 0
      vertex 16.638 5.58148 0
    endloop
  endfacet
  facet normal 0 0 -1
    outer loop
      vertex 20.4322 6.55564 0
      vertex 35 0 0
      vertex 19.9648 6.21609 0
    endloop
  endfacet
  facet normal 0 0 -1
    outer loop
      vertex 20.8533 6.95108 0
      vertex 35 0 0
      vertex 20.4322 6.55564 0
    endloop
  endfacet
  facet normal 0 0 -1
    outer loop
      vertex 21.531 12.3161 0
      vertex 35 15 0
      vertex 21.777 11.7934 0
    endloop
  endfacet
  facet normal 0 0 -1
    outer loop
      vertex 35 0 0
      vertex 20.8533 6.95108 0
      vertex 35 15 0
    endloop
  endfacet
  facet normal 0 0 -1
    outer loop
      vertex 20.8533 6.95108 0
      vertex 21.2215 7.39619 0
      vertex 35 15 0
    endloop
  endfacet
  facet normal 0 0 -1
    outer loop
      vertex 21.2215 7.39619 0
      vertex 21.531 7.88393 0
      vertex 35 15 0
    endloop
  endfacet
  facet normal 0 0 -1
    outer loop
      vertex 21.531 7.88393 0
      vertex 21.777 8.40663 0
      vertex 35 15 0
    endloop
  endfacet
  facet normal 0 0 -1
    outer loop
      vertex 21.777 8.40663 0
      vertex 21.9555 8.95603 0
      vertex 35 15 0
    endloop
  endfacet
  facet normal 0 0 -1
    outer loop
      vertex 21.9555 8.95603 0
      vertex 22.0637 9.52347 0
      vertex 35 15 0
    endloop
  endfacet
  facet normal 0 0 -1
    outer loop
      vertex 22.0637 9.52347 0
      vertex 22.1 10.1 0
      vertex 35 15 0
    endloop
  endfacet
  facet normal 0 0 -1
    outer loop
      vertex 22.1 10.1 0
      vertex 22.0637 10.6765 0
      vertex 35 15 0
    endloop
  endfacet
  facet normal 0 0 -1
    outer loop
      vertex 22.0637 10.6765 0
      vertex 21.9555 11.244 0
      vertex 35 15 0
    endloop
  endfacet
  facet normal 0 0 -1
    outer loop
      vertex 21.9555 11.244 0
      vertex 21.777 11.7934 0
      vertex 35 15 0
    endloop
  endfacet
  facet normal 0 0 -1
    outer loop
      vertex 16.638 14.6185 0
      vertex 0 15 0
      vertex 17.2112 14.6909 0
    endloop
  endfacet
  facet normal 0 0 -1
    outer loop
      vertex 13.7785 12.8038 0
      vertex 0 15 0
      vertex 14.1467 13.2489 0
    endloop
  endfacet
  facet normal 0 0 -1
    outer loop
      vertex 21.531 12.3161 0
      vertex 21.2215 12.8038 0
      vertex 35 15 0
    endloop
  endfacet
  facet normal 0 0 -1
    outer loop
      vertex 14.1467 13.2489 0
      vertex 0 15 0
      vertex 14.5678 13.6444 0
    endloop
  endfacet
  facet normal 0 0 -1
    outer loop
      vertex 21.2215 12.8038 0
      vertex 20.8533 13.2489 0
      vertex 35 15 0
    endloop
  endfacet
  facet normal 0 0 -1
    outer loop
      vertex 14.5678 13.6444 0
      vertex 0 15 0
      vertex 15.0352 13.9839 0
    endloop
  endfacet
  facet normal 0 0 -1
    outer loop
      vertex 20.8533 13.2489 0
      vertex 20.4322 13.6444 0
      vertex 35 15 0
    endloop
  endfacet
  facet normal 0 0 -1
    outer loop
      vertex 20.4322 13.6444 0
      vertex 19.9648 13.9839 0
      vertex 35 15 0
    endloop
  endfacet
  facet normal 0 0 -1
    outer loop
      vertex 15.0352 13.9839 0
      vertex 0 15 0
      vertex 15.5414 14.2622 0
    endloop
  endfacet
  facet normal 0 0 -1
    outer loop
      vertex 19.9648 13.9839 0
      vertex 19.4586 14.2622 0
      vertex 35 15 0
    endloop
  endfacet
  facet normal 0 0 -1
    outer loop
      vertex 15.5414 14.2622 0
      vertex 0 15 0
      vertex 16.0785 14.4749 0
    endloop
  endfacet
  facet normal 0 0 -1
    outer loop
      vertex 19.4586 14.2622 0
      vertex 18.9215 14.4749 0
      vertex 35 15 0
    endloop
  endfacet
  facet normal 0 0 -1
    outer loop
      vertex 16.0785 14.4749 0
      vertex 0 15 0
      vertex 16.638 14.6185 0
    endloop
  endfacet
  facet normal 0 0 -1
    outer loop
      vertex 18.9215 14.4749 0
      vertex 18.362 14.6185 0
      vertex 35 15 0
    endloop
  endfacet
  facet normal 0 0 -1
    outer loop
      vertex 17.2112 14.6909 0
      vertex 0 15 0
      vertex 17.7888 14.6909 0
    endloop
  endfacet
  facet normal 0 0 -1
    outer loop
      vertex 18.362 14.6185 0
      vertex 17.7888 14.6909 0
      vertex 35 15 0
    endloop
  endfacet
  facet normal 0 0 -1
    outer loop
      vertex 13.469 12.3161 0
      vertex 0 15 0
      vertex 13.7785 12.8038 0
    endloop
  endfacet
  facet normal 0 0 -1
    outer loop
      vertex 13.223 11.7934 0
      vertex 0 15 0
      vertex 13.469 12.3161 0
    endloop
  endfacet
  facet normal 0 0 -1
    outer loop
      vertex 13.0445 11.244 0
      vertex 0 15 0
      vertex 13.223 11.7934 0
    endloop
  endfacet
  facet normal 0 0 -1
    outer loop
      vertex 12.9363 10.6765 0
      vertex 0 15 0
      vertex 13.0445 11.244 0
    endloop
  endfacet
  facet normal 0 0 -1
    outer loop
      vertex 12.9 10.1 0
      vertex 0 15 0
      vertex 12.9363 10.6765 0
    endloop
  endfacet
  facet normal 0 0 -1
    outer loop
      vertex 13.0445 8.95603 0
      vertex 0 15 0
      vertex 12.9363 9.52347 0
    endloop
  endfacet
  facet normal 0 1 0
    outer loop
      vertex 0 15 0
      vertex 0 15 8.6
      vertex 35 15 0
    endloop
  endfacet
  facet normal 0 1 0
    outer loop
      vertex 35 15 0
      vertex 0 15 8.6
      vertex 35 15 8.6
    endloop
  endfacet
  facet normal 0 0 1
    outer loop
      vertex 0 15 8.6
      vertex 0 0 8.6
      vertex 35 0 8.6
    endloop
  endfacet
  facet normal 0 0 1
    outer loop
      vertex 35 15 8.6
      vertex 0 15 8.6
      vertex 35 0 8.6
    endloop
  endfacet
  facet normal 1 0 0
    outer loop
      vertex 35 0 8.6
      vertex 35 0 0
      vertex 35 15 0
    endloop
  endfacet
  facet normal 1 0 0
    outer loop
      vertex 35 15 8.6
      vertex 35 0 8.6
      vertex 35 15 0
    endloop
  endfacet
  facet normal 1 0 0
    outer loop
      vertex 1 14 1
      vertex 1 14 7.6
      vertex 1 0 7.6
    endloop
  endfacet
  facet normal 1 0 0
    outer loop
      vertex 1 0 1
      vertex 1 14 1
      vertex 1 0 7.6
    endloop
  endfacet
  facet normal 0 0 1
    outer loop
      vertex 17.3367 12.6949 1
      vertex 34 14 1
      vertex 1 14 1
    endloop
  endfacet
  facet normal 0 0 1
    outer loop
      vertex 1 0 1
      vertex 34 0 1
      vertex 1 14 1
    endloop
  endfacet
  facet normal 0 0 1
    outer loop
      vertex 14.9205 9.77413 1
      vertex 14.9 10.1 1
      vertex 1 14 1
    endloop
  endfacet
  facet normal 0 0 1
    outer loop
      vertex 14.9 10.1 1
      vertex 14.9205 10.4259 1
      vertex 1 14 1
    endloop
  endfacet
  facet normal 0 0 1
    outer loop
      vertex 19.1573 8.09667 1
      vertex 18.8931 7.90475 1
      vertex 34 0 1
    endloop
  endfacet
  facet normal 0 0 1
    outer loop
      vertex 14.9205 10.4259 1
      vertex 14.9817 10.7466 1
      vertex 1 14 1
    endloop
  endfacet
  facet normal 0 0 1
    outer loop
      vertex 14.9817 10.7466 1
      vertex 15.0826 11.0571 1
      vertex 1 14 1
    endloop
  endfacet
  facet normal 0 0 1
    outer loop
      vertex 15.0826 11.0571 1
      vertex 15.2216 11.3526 1
      vertex 1 14 1
    endloop
  endfacet
  facet normal 0 0 1
    outer loop
      vertex 15.2216 11.3526 1
      vertex 15.3966 11.6282 1
      vertex 1 14 1
    endloop
  endfacet
  facet normal 0 0 1
    outer loop
      vertex 15.3966 11.6282 1
      vertex 15.6047 11.8798 1
      vertex 1 14 1
    endloop
  endfacet
  facet normal 0 0 1
    outer loop
      vertex 19.1573 12.1033 1
      vertex 19.3953 11.8798 1
      vertex 34 14 1
    endloop
  endfacet
  facet normal 0 0 1
    outer loop
      vertex 15.6047 11.8798 1
      vertex 15.8427 12.1033 1
      vertex 1 14 1
    endloop
  endfacet
  facet normal 0 0 1
    outer loop
      vertex 15.8427 12.1033 1
      vertex 16.1068 12.2953 1
      vertex 1 14 1
    endloop
  endfacet
  facet normal 0 0 1
    outer loop
      vertex 16.1068 12.2953 1
      vertex 16.393 12.4525 1
      vertex 1 14 1
    endloop
  endfacet
  facet normal 0 0 1
    outer loop
      vertex 16.393 12.4525 1
      vertex 16.6966 12.5727 1
      vertex 1 14 1
    endloop
  endfacet
  facet normal 0 0 1
    outer loop
      vertex 16.6966 12.5727 1
      vertex 17.0128 12.6539 1
      vertex 1 14 1
    endloop
  endfacet
  facet normal 0 0 1
    outer loop
      vertex 17.0128 12.6539 1
      vertex 17.3367 12.6949 1
      vertex 1 14 1
    endloop
  endfacet
  facet normal 0 0 1
    outer loop
      vertex 17.6633 12.6949 1
      vertex 17.9872 12.6539 1
      vertex 34 14 1
    endloop
  endfacet
  facet normal 0 0 1
    outer loop
      vertex 17.9872 12.6539 1
      vertex 18.3034 12.5727 1
      vertex 34 14 1
    endloop
  endfacet
  facet normal 0 0 1
    outer loop
      vertex 18.3034 12.5727 1
      vertex 18.607 12.4525 1
      vertex 34 14 1
    endloop
  endfacet
  facet normal 0 0 1
    outer loop
      vertex 18.607 12.4525 1
      vertex 18.8931 12.2953 1
      vertex 34 14 1
    endloop
  endfacet
  facet normal 0 0 1
    outer loop
      vertex 19.7784 11.3526 1
      vertex 19.9174 11.0571 1
      vertex 34 14 1
    endloop
  endfacet
  facet normal 0 0 1
    outer loop
      vertex 19.3953 11.8798 1
      vertex 19.6034 11.6282 1
      vertex 34 14 1
    endloop
  endfacet
  facet normal 0 0 1
    outer loop
      vertex 19.6034 11.6282 1
      vertex 19.7784 11.3526 1
      vertex 34 14 1
    endloop
  endfacet
  facet normal 0 0 1
    outer loop
      vertex 15.8427 8.09667 1
      vertex 15.6047 8.32018 1
      vertex 1 14 1
    endloop
  endfacet
  facet normal 0 0 1
    outer loop
      vertex 34 0 1
      vertex 34 14 1
      vertex 19.9174 11.0571 1
    endloop
  endfacet
  facet normal 0 0 1
    outer loop
      vertex 34 0 1
      vertex 19.9174 11.0571 1
      vertex 20.0183 10.7466 1
    endloop
  endfacet
  facet normal 0 0 1
    outer loop
      vertex 34 0 1
      vertex 20.0183 10.7466 1
      vertex 20.0795 10.4259 1
    endloop
  endfacet
  facet normal 0 0 1
    outer loop
      vertex 34 0 1
      vertex 20.0795 10.4259 1
      vertex 20.1 10.1 1
    endloop
  endfacet
  facet normal 0 0 1
    outer loop
      vertex 34 0 1
      vertex 20.1 10.1 1
      vertex 20.0795 9.77413 1
    endloop
  endfacet
  facet normal 0 0 1
    outer loop
      vertex 34 0 1
      vertex 20.0795 9.77413 1
      vertex 20.0183 9.45341 1
    endloop
  endfacet
  facet normal 0 0 1
    outer loop
      vertex 34 0 1
      vertex 20.0183 9.45341 1
      vertex 19.9174 9.14288 1
    endloop
  endfacet
  facet normal 0 0 1
    outer loop
      vertex 34 0 1
      vertex 19.9174 9.14288 1
      vertex 19.7784 8.84744 1
    endloop
  endfacet
  facet normal 0 0 1
    outer loop
      vertex 34 0 1
      vertex 19.7784 8.84744 1
      vertex 19.6034 8.57176 1
    endloop
  endfacet
  facet normal 0 0 1
    outer loop
      vertex 34 0 1
      vertex 19.6034 8.57176 1
      vertex 19.3953 8.32018 1
    endloop
  endfacet
  facet normal 0 0 1
    outer loop
      vertex 16.393 7.74745 1
      vertex 16.1068 7.90475 1
      vertex 1 14 1
    endloop
  endfacet
  facet normal 0 0 1
    outer loop
      vertex 34 0 1
      vertex 19.3953 8.32018 1
      vertex 19.1573 8.09667 1
    endloop
  endfacet
  facet normal 0 0 1
    outer loop
      vertex 15.0826 9.14288 1
      vertex 14.9817 9.45341 1
      vertex 1 14 1
    endloop
  endfacet
  facet normal 0 0 1
    outer loop
      vertex 34 0 1
      vertex 18.8931 7.90475 1
      vertex 18.607 7.74745 1
    endloop
  endfacet
  facet normal 0 0 1
    outer loop
      vertex 15.2216 8.84744 1
      vertex 15.0826 9.14288 1
      vertex 1 14 1
    endloop
  endfacet
  facet normal 0 0 1
    outer loop
      vertex 34 0 1
      vertex 18.607 7.74745 1
      vertex 18.3034 7.62725 1
    endloop
  endfacet
  facet normal 0 0 1
    outer loop
      vertex 15.3966 8.57176 1
      vertex 15.2216 8.84744 1
      vertex 1 14 1
    endloop
  endfacet
  facet normal 0 0 1
    outer loop
      vertex 34 0 1
      vertex 18.3034 7.62725 1
      vertex 17.9872 7.54605 1
    endloop
  endfacet
  facet normal 0 0 1
    outer loop
      vertex 15.6047 8.32018 1
      vertex 15.3966 8.57176 1
      vertex 1 14 1
    endloop
  endfacet
  facet normal 0 0 1
    outer loop
      vertex 34 0 1
      vertex 17.9872 7.54605 1
      vertex 17.6633 7.50513 1
    endloop
  endfacet
  facet normal 0 0 1
    outer loop
      vertex 34 0 1
      vertex 17.6633 7.50513 1
      vertex 17.3367 7.50513 1
    endloop
  endfacet
  facet normal 0 0 1
    outer loop
      vertex 34 0 1
      vertex 17.3367 7.50513 1
      vertex 17.0128 7.54605 1
    endloop
  endfacet
  facet normal 0 0 1
    outer loop
      vertex 16.1068 7.90475 1
      vertex 15.8427 8.09667 1
      vertex 1 14 1
    endloop
  endfacet
  facet normal 0 0 1
    outer loop
      vertex 34 0 1
      vertex 17.0128 7.54605 1
      vertex 16.6966 7.62725 1
    endloop
  endfacet
  facet normal 0 0 1
    outer loop
      vertex 34 0 1
      vertex 16.393 7.74745 1
      vertex 1 14 1
    endloop
  endfacet
  facet normal 0 0 1
    outer loop
      vertex 34 0 1
      vertex 16.6966 7.62725 1
      vertex 16.393 7.74745 1
    endloop
  endfacet
  facet normal 0 0 1
    outer loop
      vertex 14.9817 9.45341 1
      vertex 14.9205 9.77413 1
      vertex 1 14 1
    endloop
  endfacet
  facet normal 0 0 1
    outer loop
      vertex 17.3367 12.6949 1
      vertex 17.6633 12.6949 1
      vertex 34 14 1
    endloop
  endfacet
  facet normal 0 0 1
    outer loop
      vertex 18.8931 12.2953 1
      vertex 19.1573 12.1033 1
      vertex 34 14 1
    endloop
  endfacet
  facet normal -1 0 0
    outer loop
      vertex 34 14 7.6
      vertex 34 14 1
      vertex 34 0 7.6
    endloop
  endfacet
  facet normal -1 0 0
    outer loop
      vertex 34 0 7.6
      vertex 34 14 1
      vertex 34 0 1
    endloop
  endfacet
  facet normal 0 0 -1
    outer loop
      vertex 34 14 7.6
      vertex 34 0 7.6
      vertex 1 14 7.6
    endloop
  endfacet
  facet normal 0 0 -1
    outer loop
      vertex 1 14 7.6
      vertex 34 0 7.6
      vertex 1 0 7.6
    endloop
  endfacet
  facet normal -0.998027 0.0627899 0
    outer loop
      vertex 12.9 10.1 -6
      vertex 12.9 10.1 0
      vertex 12.9363 10.6765 -6
    endloop
  endfacet
  facet normal -0.998027 0.0627899 0
    outer loop
      vertex 12.9363 10.6765 -6
      vertex 12.9 10.1 0
      vertex 12.9363 10.6765 0
    endloop
  endfacet
  facet normal -0.998027 -0.0627899 0
    outer loop
      vertex 12.9 10.1 -6
      vertex 12.9363 9.52347 -6
      vertex 12.9 10.1 0
    endloop
  endfacet
  facet normal -0.998027 -0.0627899 0
    outer loop
      vertex 12.9 10.1 0
      vertex 12.9363 9.52347 -6
      vertex 12.9363 9.52347 0
    endloop
  endfacet
  facet normal -0.982287 0.187381 0
    outer loop
      vertex 12.9363 10.6765 -6
      vertex 12.9363 10.6765 0
      vertex 13.0445 11.244 -6
    endloop
  endfacet
  facet normal -0.982287 0.187381 0
    outer loop
      vertex 13.0445 11.244 -6
      vertex 12.9363 10.6765 0
      vertex 13.0445 11.244 0
    endloop
  endfacet
  facet normal -0.951056 0.309017 0
    outer loop
      vertex 13.0445 11.244 -6
      vertex 13.0445 11.244 0
      vertex 13.223 11.7934 -6
    endloop
  endfacet
  facet normal -0.951056 0.309017 0
    outer loop
      vertex 13.223 11.7934 -6
      vertex 13.0445 11.244 0
      vertex 13.223 11.7934 0
    endloop
  endfacet
  facet normal -0.904827 0.425779 0
    outer loop
      vertex 13.223 11.7934 -6
      vertex 13.223 11.7934 0
      vertex 13.469 12.3161 -6
    endloop
  endfacet
  facet normal -0.904827 0.425779 0
    outer loop
      vertex 13.469 12.3161 -6
      vertex 13.223 11.7934 0
      vertex 13.469 12.3161 0
    endloop
  endfacet
  facet normal -0.844327 0.535828 0
    outer loop
      vertex 13.469 12.3161 -6
      vertex 13.469 12.3161 0
      vertex 13.7785 12.8038 -6
    endloop
  endfacet
  facet normal -0.844327 0.535828 0
    outer loop
      vertex 13.7785 12.8038 -6
      vertex 13.469 12.3161 0
      vertex 13.7785 12.8038 0
    endloop
  endfacet
  facet normal -0.770514 0.637423 0
    outer loop
      vertex 13.7785 12.8038 -6
      vertex 13.7785 12.8038 0
      vertex 14.1467 13.2489 -6
    endloop
  endfacet
  facet normal -0.770514 0.637423 0
    outer loop
      vertex 14.1467 13.2489 -6
      vertex 13.7785 12.8038 0
      vertex 14.1467 13.2489 0
    endloop
  endfacet
  facet normal -0.684546 0.728969 0
    outer loop
      vertex 14.1467 13.2489 -6
      vertex 14.1467 13.2489 0
      vertex 14.5678 13.6444 -6
    endloop
  endfacet
  facet normal -0.684546 0.728969 0
    outer loop
      vertex 14.5678 13.6444 -6
      vertex 14.1467 13.2489 0
      vertex 14.5678 13.6444 0
    endloop
  endfacet
  facet normal -0.587785 0.809017 0
    outer loop
      vertex 14.5678 13.6444 -6
      vertex 14.5678 13.6444 0
      vertex 15.0352 13.9839 -6
    endloop
  endfacet
  facet normal -0.587785 0.809017 0
    outer loop
      vertex 15.0352 13.9839 -6
      vertex 14.5678 13.6444 0
      vertex 15.0352 13.9839 0
    endloop
  endfacet
  facet normal -0.481754 0.876306 0
    outer loop
      vertex 15.0352 13.9839 -6
      vertex 15.0352 13.9839 0
      vertex 15.5414 14.2622 -6
    endloop
  endfacet
  facet normal -0.481754 0.876306 0
    outer loop
      vertex 15.5414 14.2622 -6
      vertex 15.0352 13.9839 0
      vertex 15.5414 14.2622 0
    endloop
  endfacet
  facet normal -0.368125 0.929776 0
    outer loop
      vertex 15.5414 14.2622 -6
      vertex 15.5414 14.2622 0
      vertex 16.0785 14.4749 -6
    endloop
  endfacet
  facet normal -0.368125 0.929776 0
    outer loop
      vertex 16.0785 14.4749 -6
      vertex 15.5414 14.2622 0
      vertex 16.0785 14.4749 0
    endloop
  endfacet
  facet normal -0.248689 0.968583 0
    outer loop
      vertex 16.0785 14.4749 -6
      vertex 16.0785 14.4749 0
      vertex 16.638 14.6185 -6
    endloop
  endfacet
  facet normal -0.248689 0.968583 0
    outer loop
      vertex 16.638 14.6185 -6
      vertex 16.0785 14.4749 0
      vertex 16.638 14.6185 0
    endloop
  endfacet
  facet normal -0.125334 0.992115 0
    outer loop
      vertex 16.638 14.6185 -6
      vertex 16.638 14.6185 0
      vertex 17.2112 14.6909 -6
    endloop
  endfacet
  facet normal -0.125334 0.992115 0
    outer loop
      vertex 17.2112 14.6909 -6
      vertex 16.638 14.6185 0
      vertex 17.2112 14.6909 0
    endloop
  endfacet
  facet normal 0 1 0
    outer loop
      vertex 17.2112 14.6909 -6
      vertex 17.2112 14.6909 0
      vertex 17.7888 14.6909 -6
    endloop
  endfacet
  facet normal 0 1 0
    outer loop
      vertex 17.7888 14.6909 -6
      vertex 17.2112 14.6909 0
      vertex 17.7888 14.6909 0
    endloop
  endfacet
  facet normal 0.125334 0.992115 0
    outer loop
      vertex 17.7888 14.6909 -6
      vertex 17.7888 14.6909 0
      vertex 18.362 14.6185 -6
    endloop
  endfacet
  facet normal 0.125334 0.992115 0
    outer loop
      vertex 18.362 14.6185 -6
      vertex 17.7888 14.6909 0
      vertex 18.362 14.6185 0
    endloop
  endfacet
  facet normal 0.248689 0.968583 0
    outer loop
      vertex 18.362 14.6185 -6
      vertex 18.362 14.6185 0
      vertex 18.9215 14.4749 -6
    endloop
  endfacet
  facet normal 0.248689 0.968583 0
    outer loop
      vertex 18.9215 14.4749 -6
      vertex 18.362 14.6185 0
      vertex 18.9215 14.4749 0
    endloop
  endfacet
  facet normal 0.368125 0.929776 0
    outer loop
      vertex 18.9215 14.4749 -6
      vertex 18.9215 14.4749 0
      vertex 19.4586 14.2622 -6
    endloop
  endfacet
  facet normal 0.368125 0.929776 0
    outer loop
      vertex 19.4586 14.2622 -6
      vertex 18.9215 14.4749 0
      vertex 19.4586 14.2622 0
    endloop
  endfacet
  facet normal 0.481754 0.876306 0
    outer loop
      vertex 19.4586 14.2622 -6
      vertex 19.4586 14.2622 0
      vertex 19.9648 13.9839 -6
    endloop
  endfacet
  facet normal 0.481754 0.876306 0
    outer loop
      vertex 19.9648 13.9839 -6
      vertex 19.4586 14.2622 0
      vertex 19.9648 13.9839 0
    endloop
  endfacet
  facet normal 0.587785 0.809017 0
    outer loop
      vertex 19.9648 13.9839 -6
      vertex 19.9648 13.9839 0
      vertex 20.4322 13.6444 -6
    endloop
  endfacet
  facet normal 0.587785 0.809017 0
    outer loop
      vertex 20.4322 13.6444 -6
      vertex 19.9648 13.9839 0
      vertex 20.4322 13.6444 0
    endloop
  endfacet
  facet normal 0.684546 0.728969 0
    outer loop
      vertex 20.4322 13.6444 -6
      vertex 20.4322 13.6444 0
      vertex 20.8533 13.2489 -6
    endloop
  endfacet
  facet normal 0.684546 0.728969 0
    outer loop
      vertex 20.8533 13.2489 -6
      vertex 20.4322 13.6444 0
      vertex 20.8533 13.2489 0
    endloop
  endfacet
  facet normal 0.770514 0.637423 0
    outer loop
      vertex 21.2215 12.8038 -6
      vertex 20.8533 13.2489 -6
      vertex 20.8533 13.2489 0
    endloop
  endfacet
  facet normal 0.770514 0.637423 0
    outer loop
      vertex 21.2215 12.8038 0
      vertex 21.2215 12.8038 -6
      vertex 20.8533 13.2489 0
    endloop
  endfacet
  facet normal 0.844327 0.535828 0
    outer loop
      vertex 21.531 12.3161 -6
      vertex 21.2215 12.8038 -6
      vertex 21.2215 12.8038 0
    endloop
  endfacet
  facet normal 0.844327 0.535828 0
    outer loop
      vertex 21.531 12.3161 0
      vertex 21.531 12.3161 -6
      vertex 21.2215 12.8038 0
    endloop
  endfacet
  facet normal 0.904827 0.425779 0
    outer loop
      vertex 21.777 11.7934 -6
      vertex 21.531 12.3161 -6
      vertex 21.531 12.3161 0
    endloop
  endfacet
  facet normal 0.904827 0.425779 0
    outer loop
      vertex 21.777 11.7934 0
      vertex 21.777 11.7934 -6
      vertex 21.531 12.3161 0
    endloop
  endfacet
  facet normal 0.951056 0.309017 0
    outer loop
      vertex 21.9555 11.244 -6
      vertex 21.777 11.7934 -6
      vertex 21.777 11.7934 0
    endloop
  endfacet
  facet normal 0.951056 0.309017 0
    outer loop
      vertex 21.9555 11.244 0
      vertex 21.9555 11.244 -6
      vertex 21.777 11.7934 0
    endloop
  endfacet
  facet normal 0.982287 0.187381 0
    outer loop
      vertex 22.0637 10.6765 -6
      vertex 21.9555 11.244 -6
      vertex 21.9555 11.244 0
    endloop
  endfacet
  facet normal 0.982287 0.187381 0
    outer loop
      vertex 22.0637 10.6765 0
      vertex 22.0637 10.6765 -6
      vertex 21.9555 11.244 0
    endloop
  endfacet
  facet normal 0.998027 0.0627899 0
    outer loop
      vertex 22.1 10.1 -6
      vertex 22.0637 10.6765 -6
      vertex 22.0637 10.6765 0
    endloop
  endfacet
  facet normal 0.998027 0.0627899 0
    outer loop
      vertex 22.1 10.1 0
      vertex 22.1 10.1 -6
      vertex 22.0637 10.6765 0
    endloop
  endfacet
  facet normal 0.998027 -0.0627899 0
    outer loop
      vertex 22.0637 9.52347 0
      vertex 22.0637 9.52347 -6
      vertex 22.1 10.1 -6
    endloop
  endfacet
  facet normal 0.998027 -0.0627899 0
    outer loop
      vertex 22.1 10.1 0
      vertex 22.0637 9.52347 0
      vertex 22.1 10.1 -6
    endloop
  endfacet
  facet normal 0.982287 -0.187381 0
    outer loop
      vertex 21.9555 8.95603 0
      vertex 21.9555 8.95603 -6
      vertex 22.0637 9.52347 -6
    endloop
  endfacet
  facet normal 0.982287 -0.187381 0
    outer loop
      vertex 22.0637 9.52347 0
      vertex 21.9555 8.95603 0
      vertex 22.0637 9.52347 -6
    endloop
  endfacet
  facet normal 0.951056 -0.309017 0
    outer loop
      vertex 21.777 8.40663 0
      vertex 21.777 8.40663 -6
      vertex 21.9555 8.95603 -6
    endloop
  endfacet
  facet normal 0.951056 -0.309017 0
    outer loop
      vertex 21.9555 8.95603 0
      vertex 21.777 8.40663 0
      vertex 21.9555 8.95603 -6
    endloop
  endfacet
  facet normal 0.904827 -0.425779 0
    outer loop
      vertex 21.531 7.88393 0
      vertex 21.531 7.88393 -6
      vertex 21.777 8.40663 -6
    endloop
  endfacet
  facet normal 0.904827 -0.425779 0
    outer loop
      vertex 21.777 8.40663 0
      vertex 21.531 7.88393 0
      vertex 21.777 8.40663 -6
    endloop
  endfacet
  facet normal 0.844327 -0.535828 0
    outer loop
      vertex 21.2215 7.39619 0
      vertex 21.2215 7.39619 -6
      vertex 21.531 7.88393 -6
    endloop
  endfacet
  facet normal 0.844327 -0.535828 0
    outer loop
      vertex 21.531 7.88393 0
      vertex 21.2215 7.39619 0
      vertex 21.531 7.88393 -6
    endloop
  endfacet
  facet normal 0.770514 -0.637423 0
    outer loop
      vertex 20.8533 6.95108 0
      vertex 20.8533 6.95108 -6
      vertex 21.2215 7.39619 -6
    endloop
  endfacet
  facet normal 0.770514 -0.637423 0
    outer loop
      vertex 21.2215 7.39619 0
      vertex 20.8533 6.95108 0
      vertex 21.2215 7.39619 -6
    endloop
  endfacet
  facet normal 0.684546 -0.728969 0
    outer loop
      vertex 20.4322 6.55564 0
      vertex 20.4322 6.55564 -6
      vertex 20.8533 6.95108 -6
    endloop
  endfacet
  facet normal 0.684546 -0.728969 0
    outer loop
      vertex 20.8533 6.95108 0
      vertex 20.4322 6.55564 0
      vertex 20.8533 6.95108 -6
    endloop
  endfacet
  facet normal 0.587785 -0.809017 0
    outer loop
      vertex 19.9648 6.21609 0
      vertex 19.9648 6.21609 -6
      vertex 20.4322 6.55564 -6
    endloop
  endfacet
  facet normal 0.587785 -0.809017 0
    outer loop
      vertex 20.4322 6.55564 0
      vertex 19.9648 6.21609 0
      vertex 20.4322 6.55564 -6
    endloop
  endfacet
  facet normal 0.481754 -0.876306 0
    outer loop
      vertex 19.4586 5.9378 0
      vertex 19.4586 5.9378 -6
      vertex 19.9648 6.21609 -6
    endloop
  endfacet
  facet normal 0.481754 -0.876306 0
    outer loop
      vertex 19.9648 6.21609 0
      vertex 19.4586 5.9378 0
      vertex 19.9648 6.21609 -6
    endloop
  endfacet
  facet normal 0.368125 -0.929776 0
    outer loop
      vertex 18.9215 5.72514 0
      vertex 18.9215 5.72514 -6
      vertex 19.4586 5.9378 -6
    endloop
  endfacet
  facet normal 0.368125 -0.929776 0
    outer loop
      vertex 19.4586 5.9378 0
      vertex 18.9215 5.72514 0
      vertex 19.4586 5.9378 -6
    endloop
  endfacet
  facet normal 0.248689 -0.968583 0
    outer loop
      vertex 18.362 5.58148 0
      vertex 18.362 5.58148 -6
      vertex 18.9215 5.72514 -6
    endloop
  endfacet
  facet normal 0.248689 -0.968583 0
    outer loop
      vertex 18.9215 5.72514 0
      vertex 18.362 5.58148 0
      vertex 18.9215 5.72514 -6
    endloop
  endfacet
  facet normal 0.125334 -0.992115 0
    outer loop
      vertex 17.7888 5.50908 0
      vertex 17.7888 5.50908 -6
      vertex 18.362 5.58148 -6
    endloop
  endfacet
  facet normal 0.125334 -0.992115 0
    outer loop
      vertex 18.362 5.58148 0
      vertex 17.7888 5.50908 0
      vertex 18.362 5.58148 -6
    endloop
  endfacet
  facet normal 0 -1 0
    outer loop
      vertex 17.2112 5.50908 0
      vertex 17.2112 5.50908 -6
      vertex 17.7888 5.50908 -6
    endloop
  endfacet
  facet normal 0 -1 0
    outer loop
      vertex 17.7888 5.50908 0
      vertex 17.2112 5.50908 0
      vertex 17.7888 5.50908 -6
    endloop
  endfacet
  facet normal -0.125334 -0.992115 0
    outer loop
      vertex 16.638 5.58148 0
      vertex 16.638 5.58148 -6
      vertex 17.2112 5.50908 -6
    endloop
  endfacet
  facet normal -0.125334 -0.992115 0
    outer loop
      vertex 17.2112 5.50908 0
      vertex 16.638 5.58148 0
      vertex 17.2112 5.50908 -6
    endloop
  endfacet
  facet normal -0.248689 -0.968583 0
    outer loop
      vertex 16.0785 5.72514 0
      vertex 16.0785 5.72514 -6
      vertex 16.638 5.58148 -6
    endloop
  endfacet
  facet normal -0.248689 -0.968583 0
    outer loop
      vertex 16.638 5.58148 0
      vertex 16.0785 5.72514 0
      vertex 16.638 5.58148 -6
    endloop
  endfacet
  facet normal -0.368125 -0.929776 0
    outer loop
      vertex 15.5414 5.9378 0
      vertex 15.5414 5.9378 -6
      vertex 16.0785 5.72514 -6
    endloop
  endfacet
  facet normal -0.368125 -0.929776 0
    outer loop
      vertex 16.0785 5.72514 0
      vertex 15.5414 5.9378 0
      vertex 16.0785 5.72514 -6
    endloop
  endfacet
  facet normal -0.481754 -0.876306 0
    outer loop
      vertex 15.0352 6.21609 0
      vertex 15.0352 6.21609 -6
      vertex 15.5414 5.9378 -6
    endloop
  endfacet
  facet normal -0.481754 -0.876306 0
    outer loop
      vertex 15.5414 5.9378 0
      vertex 15.0352 6.21609 0
      vertex 15.5414 5.9378 -6
    endloop
  endfacet
  facet normal -0.587785 -0.809017 0
    outer loop
      vertex 14.5678 6.55564 0
      vertex 14.5678 6.55564 -6
      vertex 15.0352 6.21609 -6
    endloop
  endfacet
  facet normal -0.587785 -0.809017 0
    outer loop
      vertex 15.0352 6.21609 0
      vertex 14.5678 6.55564 0
      vertex 15.0352 6.21609 -6
    endloop
  endfacet
  facet normal -0.684546 -0.728969 0
    outer loop
      vertex 14.1467 6.95108 0
      vertex 14.1467 6.95108 -6
      vertex 14.5678 6.55564 -6
    endloop
  endfacet
  facet normal -0.684546 -0.728969 0
    outer loop
      vertex 14.5678 6.55564 0
      vertex 14.1467 6.95108 0
      vertex 14.5678 6.55564 -6
    endloop
  endfacet
  facet normal -0.770514 -0.637423 0
    outer loop
      vertex 13.7785 7.39619 -6
      vertex 14.1467 6.95108 -6
      vertex 13.7785 7.39619 0
    endloop
  endfacet
  facet normal -0.770514 -0.637423 0
    outer loop
      vertex 13.7785 7.39619 0
      vertex 14.1467 6.95108 -6
      vertex 14.1467 6.95108 0
    endloop
  endfacet
  facet normal -0.844327 -0.535828 0
    outer loop
      vertex 13.469 7.88393 -6
      vertex 13.7785 7.39619 -6
      vertex 13.469 7.88393 0
    endloop
  endfacet
  facet normal -0.844327 -0.535828 0
    outer loop
      vertex 13.469 7.88393 0
      vertex 13.7785 7.39619 -6
      vertex 13.7785 7.39619 0
    endloop
  endfacet
  facet normal -0.904827 -0.425779 0
    outer loop
      vertex 13.223 8.40663 -6
      vertex 13.469 7.88393 -6
      vertex 13.223 8.40663 0
    endloop
  endfacet
  facet normal -0.904827 -0.425779 0
    outer loop
      vertex 13.223 8.40663 0
      vertex 13.469 7.88393 -6
      vertex 13.469 7.88393 0
    endloop
  endfacet
  facet normal -0.951056 -0.309017 0
    outer loop
      vertex 13.0445 8.95603 -6
      vertex 13.223 8.40663 -6
      vertex 13.0445 8.95603 0
    endloop
  endfacet
  facet normal -0.951056 -0.309017 0
    outer loop
      vertex 13.0445 8.95603 0
      vertex 13.223 8.40663 -6
      vertex 13.223 8.40663 0
    endloop
  endfacet
  facet normal -0.982287 -0.187381 0
    outer loop
      vertex 12.9363 9.52347 -6
      vertex 13.0445 8.95603 -6
      vertex 12.9363 9.52347 0
    endloop
  endfacet
  facet normal -0.982287 -0.187381 0
    outer loop
      vertex 12.9363 9.52347 0
      vertex 13.0445 8.95603 -6
      vertex 13.0445 8.95603 0
    endloop
  endfacet
  facet normal 0 -1 0
    outer loop
      vertex 34 14 1
      vertex 34 14 7.6
      vertex 1 14 7.6
    endloop
  endfacet
  facet normal 0 -1 0
    outer loop
      vertex 1 14 1
      vertex 34 14 1
      vertex 1 14 7.6
    endloop
  endfacet
  facet normal 0.998027 0.0627913 0
    outer loop
      vertex 14.9 10.1 1
      vertex 14.9205 9.77413 1
      vertex 14.9205 9.77413 -6
    endloop
  endfacet
  facet normal 0.998027 0.0627913 0
    outer loop
      vertex 14.9 10.1 -6
      vertex 14.9 10.1 1
      vertex 14.9205 9.77413 -6
    endloop
  endfacet
  facet normal 0.998027 -0.0627913 0
    outer loop
      vertex 14.9205 10.4259 -6
      vertex 14.9205 10.4259 1
      vertex 14.9 10.1 1
    endloop
  endfacet
  facet normal 0.998027 -0.0627913 0
    outer loop
      vertex 14.9 10.1 -6
      vertex 14.9205 10.4259 -6
      vertex 14.9 10.1 1
    endloop
  endfacet
  facet normal 0.982287 0.187381 0
    outer loop
      vertex 14.9205 9.77413 1
      vertex 14.9817 9.45341 1
      vertex 14.9817 9.45341 -6
    endloop
  endfacet
  facet normal 0.982287 0.187381 0
    outer loop
      vertex 14.9205 9.77413 -6
      vertex 14.9205 9.77413 1
      vertex 14.9817 9.45341 -6
    endloop
  endfacet
  facet normal 0.951057 0.309016 0
    outer loop
      vertex 14.9817 9.45341 1
      vertex 15.0826 9.14288 1
      vertex 15.0826 9.14288 -6
    endloop
  endfacet
  facet normal 0.951057 0.309016 0
    outer loop
      vertex 14.9817 9.45341 -6
      vertex 14.9817 9.45341 1
      vertex 15.0826 9.14288 -6
    endloop
  endfacet
  facet normal 0.904827 0.42578 0
    outer loop
      vertex 15.0826 9.14288 1
      vertex 15.2216 8.84744 1
      vertex 15.2216 8.84744 -6
    endloop
  endfacet
  facet normal 0.904827 0.42578 0
    outer loop
      vertex 15.0826 9.14288 -6
      vertex 15.0826 9.14288 1
      vertex 15.2216 8.84744 -6
    endloop
  endfacet
  facet normal 0.844328 0.535827 0
    outer loop
      vertex 15.2216 8.84744 1
      vertex 15.3966 8.57176 1
      vertex 15.3966 8.57176 -6
    endloop
  endfacet
  facet normal 0.844328 0.535827 0
    outer loop
      vertex 15.2216 8.84744 -6
      vertex 15.2216 8.84744 1
      vertex 15.3966 8.57176 -6
    endloop
  endfacet
  facet normal 0.770512 0.637426 0
    outer loop
      vertex 15.3966 8.57176 1
      vertex 15.6047 8.32018 1
      vertex 15.6047 8.32018 -6
    endloop
  endfacet
  facet normal 0.770512 0.637426 0
    outer loop
      vertex 15.3966 8.57176 -6
      vertex 15.3966 8.57176 1
      vertex 15.6047 8.32018 -6
    endloop
  endfacet
  facet normal 0.684547 0.728968 0
    outer loop
      vertex 15.8427 8.09667 1
      vertex 15.8427 8.09667 -6
      vertex 15.6047 8.32018 1
    endloop
  endfacet
  facet normal 0.684547 0.728968 0
    outer loop
      vertex 15.6047 8.32018 1
      vertex 15.8427 8.09667 -6
      vertex 15.6047 8.32018 -6
    endloop
  endfacet
  facet normal 0.587788 0.809015 0
    outer loop
      vertex 16.1068 7.90475 1
      vertex 16.1068 7.90475 -6
      vertex 15.8427 8.09667 1
    endloop
  endfacet
  facet normal 0.587788 0.809015 0
    outer loop
      vertex 15.8427 8.09667 1
      vertex 16.1068 7.90475 -6
      vertex 15.8427 8.09667 -6
    endloop
  endfacet
  facet normal 0.481751 0.876308 0
    outer loop
      vertex 16.393 7.74745 1
      vertex 16.393 7.74745 -6
      vertex 16.1068 7.90475 1
    endloop
  endfacet
  facet normal 0.481751 0.876308 0
    outer loop
      vertex 16.1068 7.90475 1
      vertex 16.393 7.74745 -6
      vertex 16.1068 7.90475 -6
    endloop
  endfacet
  facet normal 0.368126 0.929776 0
    outer loop
      vertex 16.6966 7.62725 1
      vertex 16.6966 7.62725 -6
      vertex 16.393 7.74745 1
    endloop
  endfacet
  facet normal 0.368126 0.929776 0
    outer loop
      vertex 16.393 7.74745 1
      vertex 16.6966 7.62725 -6
      vertex 16.393 7.74745 -6
    endloop
  endfacet
  facet normal 0.24869 0.968583 0
    outer loop
      vertex 17.0128 7.54605 1
      vertex 17.0128 7.54605 -6
      vertex 16.6966 7.62725 1
    endloop
  endfacet
  facet normal 0.24869 0.968583 0
    outer loop
      vertex 16.6966 7.62725 1
      vertex 17.0128 7.54605 -6
      vertex 16.6966 7.62725 -6
    endloop
  endfacet
  facet normal 0.125331 0.992115 0
    outer loop
      vertex 17.3367 7.50513 1
      vertex 17.3367 7.50513 -6
      vertex 17.0128 7.54605 1
    endloop
  endfacet
  facet normal 0.125331 0.992115 0
    outer loop
      vertex 17.0128 7.54605 1
      vertex 17.3367 7.50513 -6
      vertex 17.0128 7.54605 -6
    endloop
  endfacet
  facet normal 0 1 0
    outer loop
      vertex 17.6633 7.50513 1
      vertex 17.6633 7.50513 -6
      vertex 17.3367 7.50513 1
    endloop
  endfacet
  facet normal 0 1 0
    outer loop
      vertex 17.3367 7.50513 1
      vertex 17.6633 7.50513 -6
      vertex 17.3367 7.50513 -6
    endloop
  endfacet
  facet normal -0.125331 0.992115 0
    outer loop
      vertex 17.9872 7.54605 1
      vertex 17.9872 7.54605 -6
      vertex 17.6633 7.50513 1
    endloop
  endfacet
  facet normal -0.125331 0.992115 0
    outer loop
      vertex 17.6633 7.50513 1
      vertex 17.9872 7.54605 -6
      vertex 17.6633 7.50513 -6
    endloop
  endfacet
  facet normal -0.24869 0.968583 0
    outer loop
      vertex 18.3034 7.62725 1
      vertex 18.3034 7.62725 -6
      vertex 17.9872 7.54605 1
    endloop
  endfacet
  facet normal -0.24869 0.968583 0
    outer loop
      vertex 17.9872 7.54605 1
      vertex 18.3034 7.62725 -6
      vertex 17.9872 7.54605 -6
    endloop
  endfacet
  facet normal -0.368126 0.929776 0
    outer loop
      vertex 18.607 7.74745 1
      vertex 18.607 7.74745 -6
      vertex 18.3034 7.62725 1
    endloop
  endfacet
  facet normal -0.368126 0.929776 0
    outer loop
      vertex 18.3034 7.62725 1
      vertex 18.607 7.74745 -6
      vertex 18.3034 7.62725 -6
    endloop
  endfacet
  facet normal -0.481751 0.876308 0
    outer loop
      vertex 18.8931 7.90475 1
      vertex 18.8931 7.90475 -6
      vertex 18.607 7.74745 1
    endloop
  endfacet
  facet normal -0.481751 0.876308 0
    outer loop
      vertex 18.607 7.74745 1
      vertex 18.8931 7.90475 -6
      vertex 18.607 7.74745 -6
    endloop
  endfacet
  facet normal -0.587788 0.809015 0
    outer loop
      vertex 19.1573 8.09667 1
      vertex 19.1573 8.09667 -6
      vertex 18.8931 7.90475 1
    endloop
  endfacet
  facet normal -0.587788 0.809015 0
    outer loop
      vertex 18.8931 7.90475 1
      vertex 19.1573 8.09667 -6
      vertex 18.8931 7.90475 -6
    endloop
  endfacet
  facet normal -0.684547 0.728968 0
    outer loop
      vertex 19.3953 8.32018 1
      vertex 19.3953 8.32018 -6
      vertex 19.1573 8.09667 1
    endloop
  endfacet
  facet normal -0.684547 0.728968 0
    outer loop
      vertex 19.1573 8.09667 1
      vertex 19.3953 8.32018 -6
      vertex 19.1573 8.09667 -6
    endloop
  endfacet
  facet normal -0.770512 0.637426 0
    outer loop
      vertex 19.6034 8.57176 1
      vertex 19.6034 8.57176 -6
      vertex 19.3953 8.32018 1
    endloop
  endfacet
  facet normal -0.770512 0.637426 0
    outer loop
      vertex 19.3953 8.32018 1
      vertex 19.6034 8.57176 -6
      vertex 19.3953 8.32018 -6
    endloop
  endfacet
  facet normal -0.844328 0.535827 0
    outer loop
      vertex 19.7784 8.84744 1
      vertex 19.7784 8.84744 -6
      vertex 19.6034 8.57176 1
    endloop
  endfacet
  facet normal -0.844328 0.535827 0
    outer loop
      vertex 19.6034 8.57176 1
      vertex 19.7784 8.84744 -6
      vertex 19.6034 8.57176 -6
    endloop
  endfacet
  facet normal -0.904827 0.42578 0
    outer loop
      vertex 19.9174 9.14288 1
      vertex 19.9174 9.14288 -6
      vertex 19.7784 8.84744 1
    endloop
  endfacet
  facet normal -0.904827 0.42578 0
    outer loop
      vertex 19.7784 8.84744 1
      vertex 19.9174 9.14288 -6
      vertex 19.7784 8.84744 -6
    endloop
  endfacet
  facet normal -0.951057 0.309016 0
    outer loop
      vertex 20.0183 9.45341 1
      vertex 20.0183 9.45341 -6
      vertex 19.9174 9.14288 1
    endloop
  endfacet
  facet normal -0.951057 0.309016 0
    outer loop
      vertex 19.9174 9.14288 1
      vertex 20.0183 9.45341 -6
      vertex 19.9174 9.14288 -6
    endloop
  endfacet
  facet normal -0.982287 0.187381 0
    outer loop
      vertex 20.0795 9.77413 1
      vertex 20.0795 9.77413 -6
      vertex 20.0183 9.45341 1
    endloop
  endfacet
  facet normal -0.982287 0.187381 0
    outer loop
      vertex 20.0183 9.45341 1
      vertex 20.0795 9.77413 -6
      vertex 20.0183 9.45341 -6
    endloop
  endfacet
  facet normal -0.998027 0.0627913 0
    outer loop
      vertex 20.1 10.1 1
      vertex 20.1 10.1 -6
      vertex 20.0795 9.77413 1
    endloop
  endfacet
  facet normal -0.998027 0.0627913 0
    outer loop
      vertex 20.0795 9.77413 1
      vertex 20.1 10.1 -6
      vertex 20.0795 9.77413 -6
    endloop
  endfacet
  facet normal -0.998027 -0.0627913 0
    outer loop
      vertex 20.1 10.1 1
      vertex 20.0795 10.4259 1
      vertex 20.1 10.1 -6
    endloop
  endfacet
  facet normal -0.998027 -0.0627913 0
    outer loop
      vertex 20.1 10.1 -6
      vertex 20.0795 10.4259 1
      vertex 20.0795 10.4259 -6
    endloop
  endfacet
  facet normal -0.982287 -0.187381 0
    outer loop
      vertex 20.0795 10.4259 1
      vertex 20.0183 10.7466 1
      vertex 20.0795 10.4259 -6
    endloop
  endfacet
  facet normal -0.982287 -0.187381 0
    outer loop
      vertex 20.0795 10.4259 -6
      vertex 20.0183 10.7466 1
      vertex 20.0183 10.7466 -6
    endloop
  endfacet
  facet normal -0.951057 -0.309016 0
    outer loop
      vertex 20.0183 10.7466 1
      vertex 19.9174 11.0571 1
      vertex 20.0183 10.7466 -6
    endloop
  endfacet
  facet normal -0.951057 -0.309016 0
    outer loop
      vertex 20.0183 10.7466 -6
      vertex 19.9174 11.0571 1
      vertex 19.9174 11.0571 -6
    endloop
  endfacet
  facet normal -0.904827 -0.42578 0
    outer loop
      vertex 19.9174 11.0571 1
      vertex 19.7784 11.3526 1
      vertex 19.9174 11.0571 -6
    endloop
  endfacet
  facet normal -0.904827 -0.42578 0
    outer loop
      vertex 19.9174 11.0571 -6
      vertex 19.7784 11.3526 1
      vertex 19.7784 11.3526 -6
    endloop
  endfacet
  facet normal -0.844328 -0.535827 0
    outer loop
      vertex 19.7784 11.3526 1
      vertex 19.6034 11.6282 1
      vertex 19.7784 11.3526 -6
    endloop
  endfacet
  facet normal -0.844328 -0.535827 0
    outer loop
      vertex 19.7784 11.3526 -6
      vertex 19.6034 11.6282 1
      vertex 19.6034 11.6282 -6
    endloop
  endfacet
  facet normal -0.770512 -0.637426 0
    outer loop
      vertex 19.6034 11.6282 1
      vertex 19.3953 11.8798 1
      vertex 19.6034 11.6282 -6
    endloop
  endfacet
  facet normal -0.770512 -0.637426 0
    outer loop
      vertex 19.6034 11.6282 -6
      vertex 19.3953 11.8798 1
      vertex 19.3953 11.8798 -6
    endloop
  endfacet
  facet normal -0.684547 -0.728968 0
    outer loop
      vertex 19.3953 11.8798 -6
      vertex 19.3953 11.8798 1
      vertex 19.1573 12.1033 1
    endloop
  endfacet
  facet normal -0.684547 -0.728968 0
    outer loop
      vertex 19.1573 12.1033 -6
      vertex 19.3953 11.8798 -6
      vertex 19.1573 12.1033 1
    endloop
  endfacet
  facet normal -0.587788 -0.809015 0
    outer loop
      vertex 19.1573 12.1033 -6
      vertex 19.1573 12.1033 1
      vertex 18.8931 12.2953 1
    endloop
  endfacet
  facet normal -0.587788 -0.809015 0
    outer loop
      vertex 18.8931 12.2953 -6
      vertex 19.1573 12.1033 -6
      vertex 18.8931 12.2953 1
    endloop
  endfacet
  facet normal -0.481751 -0.876308 0
    outer loop
      vertex 18.8931 12.2953 -6
      vertex 18.8931 12.2953 1
      vertex 18.607 12.4525 1
    endloop
  endfacet
  facet normal -0.481751 -0.876308 0
    outer loop
      vertex 18.607 12.4525 -6
      vertex 18.8931 12.2953 -6
      vertex 18.607 12.4525 1
    endloop
  endfacet
  facet normal -0.368126 -0.929776 0
    outer loop
      vertex 18.607 12.4525 -6
      vertex 18.607 12.4525 1
      vertex 18.3034 12.5727 1
    endloop
  endfacet
  facet normal -0.368126 -0.929776 0
    outer loop
      vertex 18.3034 12.5727 -6
      vertex 18.607 12.4525 -6
      vertex 18.3034 12.5727 1
    endloop
  endfacet
  facet normal -0.24869 -0.968583 0
    outer loop
      vertex 18.3034 12.5727 -6
      vertex 18.3034 12.5727 1
      vertex 17.9872 12.6539 1
    endloop
  endfacet
  facet normal -0.24869 -0.968583 0
    outer loop
      vertex 17.9872 12.6539 -6
      vertex 18.3034 12.5727 -6
      vertex 17.9872 12.6539 1
    endloop
  endfacet
  facet normal -0.125331 -0.992115 0
    outer loop
      vertex 17.9872 12.6539 -6
      vertex 17.9872 12.6539 1
      vertex 17.6633 12.6949 1
    endloop
  endfacet
  facet normal -0.125331 -0.992115 0
    outer loop
      vertex 17.6633 12.6949 -6
      vertex 17.9872 12.6539 -6
      vertex 17.6633 12.6949 1
    endloop
  endfacet
  facet normal 0 -1 0
    outer loop
      vertex 17.6633 12.6949 -6
      vertex 17.6633 12.6949 1
      vertex 17.3367 12.6949 1
    endloop
  endfacet
  facet normal 0 -1 0
    outer loop
      vertex 17.3367 12.6949 -6
      vertex 17.6633 12.6949 -6
      vertex 17.3367 12.6949 1
    endloop
  endfacet
  facet normal 0.125331 -0.992115 0
    outer loop
      vertex 17.3367 12.6949 -6
      vertex 17.3367 12.6949 1
      vertex 17.0128 12.6539 1
    endloop
  endfacet
  facet normal 0.125331 -0.992115 0
    outer loop
      vertex 17.0128 12.6539 -6
      vertex 17.3367 12.6949 -6
      vertex 17.0128 12.6539 1
    endloop
  endfacet
  facet normal 0.24869 -0.968583 0
    outer loop
      vertex 17.0128 12.6539 -6
      vertex 17.0128 12.6539 1
      vertex 16.6966 12.5727 1
    endloop
  endfacet
  facet normal 0.24869 -0.968583 0
    outer loop
      vertex 16.6966 12.5727 -6
      vertex 17.0128 12.6539 -6
      vertex 16.6966 12.5727 1
    endloop
  endfacet
  facet normal 0.368126 -0.929776 0
    outer loop
      vertex 16.6966 12.5727 -6
      vertex 16.6966 12.5727 1
      vertex 16.393 12.4525 1
    endloop
  endfacet
  facet normal 0.368126 -0.929776 0
    outer loop
      vertex 16.393 12.4525 -6
      vertex 16.6966 12.5727 -6
      vertex 16.393 12.4525 1
    endloop
  endfacet
  facet normal 0.481751 -0.876308 0
    outer loop
      vertex 16.393 12.4525 -6
      vertex 16.393 12.4525 1
      vertex 16.1068 12.2953 1
    endloop
  endfacet
  facet normal 0.481751 -0.876308 0
    outer loop
      vertex 16.1068 12.2953 -6
      vertex 16.393 12.4525 -6
      vertex 16.1068 12.2953 1
    endloop
  endfacet
  facet normal 0.587788 -0.809015 0
    outer loop
      vertex 16.1068 12.2953 -6
      vertex 16.1068 12.2953 1
      vertex 15.8427 12.1033 1
    endloop
  endfacet
  facet normal 0.587788 -0.809015 0
    outer loop
      vertex 15.8427 12.1033 -6
      vertex 16.1068 12.2953 -6
      vertex 15.8427 12.1033 1
    endloop
  endfacet
  facet normal 0.684547 -0.728968 0
    outer loop
      vertex 15.8427 12.1033 -6
      vertex 15.8427 12.1033 1
      vertex 15.6047 11.8798 1
    endloop
  endfacet
  facet normal 0.684547 -0.728968 0
    outer loop
      vertex 15.6047 11.8798 -6
      vertex 15.8427 12.1033 -6
      vertex 15.6047 11.8798 1
    endloop
  endfacet
  facet normal 0.770512 -0.637426 0
    outer loop
      vertex 15.6047 11.8798 -6
      vertex 15.6047 11.8798 1
      vertex 15.3966 11.6282 1
    endloop
  endfacet
  facet normal 0.770512 -0.637426 0
    outer loop
      vertex 15.3966 11.6282 -6
      vertex 15.6047 11.8798 -6
      vertex 15.3966 11.6282 1
    endloop
  endfacet
  facet normal 0.844328 -0.535827 0
    outer loop
      vertex 15.3966 11.6282 -6
      vertex 15.3966 11.6282 1
      vertex 15.2216 11.3526 1
    endloop
  endfacet
  facet normal 0.844328 -0.535827 0
    outer loop
      vertex 15.2216 11.3526 -6
      vertex 15.3966 11.6282 -6
      vertex 15.2216 11.3526 1
    endloop
  endfacet
  facet normal 0.904827 -0.42578 0
    outer loop
      vertex 15.2216 11.3526 -6
      vertex 15.2216 11.3526 1
      vertex 15.0826 11.0571 1
    endloop
  endfacet
  facet normal 0.904827 -0.42578 0
    outer loop
      vertex 15.0826 11.0571 -6
      vertex 15.2216 11.3526 -6
      vertex 15.0826 11.0571 1
    endloop
  endfacet
  facet normal 0.951057 -0.309016 0
    outer loop
      vertex 15.0826 11.0571 -6
      vertex 15.0826 11.0571 1
      vertex 14.9817 10.7466 1
    endloop
  endfacet
  facet normal 0.951057 -0.309016 0
    outer loop
      vertex 14.9817 10.7466 -6
      vertex 15.0826 11.0571 -6
      vertex 14.9817 10.7466 1
    endloop
  endfacet
  facet normal 0.982287 -0.187381 0
    outer loop
      vertex 14.9817 10.7466 -6
      vertex 14.9817 10.7466 1
      vertex 14.9205 10.4259 1
    endloop
  endfacet
  facet normal 0.982287 -0.187381 0
    outer loop
      vertex 14.9205 10.4259 -6
      vertex 14.9817 10.7466 -6
      vertex 14.9205 10.4259 1
    endloop
  endfacet
  facet normal 0 0 -1
    outer loop
      vertex 12.9 10.1 -6
      vertex 12.9363 10.6765 -6
      vertex 12.9363 9.52347 -6
    endloop
  endfacet
  facet normal 0 0 -1
    outer loop
      vertex 12.9363 9.52347 -6
      vertex 12.9363 10.6765 -6
      vertex 13.0445 11.244 -6
    endloop
  endfacet
  facet normal 0 0 -1
    outer loop
      vertex 12.9363 9.52347 -6
      vertex 13.0445 11.244 -6
      vertex 13.223 11.7934 -6
    endloop
  endfacet
  facet normal 0 0 -1
    outer loop
      vertex 12.9363 9.52347 -6
      vertex 13.223 11.7934 -6
      vertex 13.469 12.3161 -6
    endloop
  endfacet
  facet normal 0 0 -1
    outer loop
      vertex 12.9363 9.52347 -6
      vertex 13.469 12.3161 -6
      vertex 13.7785 12.8038 -6
    endloop
  endfacet
  facet normal 0 0 -1
    outer loop
      vertex 12.9363 9.52347 -6
      vertex 13.7785 12.8038 -6
      vertex 14.1467 13.2489 -6
    endloop
  endfacet
  facet normal 0 0 -1
    outer loop
      vertex 12.9363 9.52347 -6
      vertex 14.1467 13.2489 -6
      vertex 14.5678 13.6444 -6
    endloop
  endfacet
  facet normal 0 0 -1
    outer loop
      vertex 12.9363 9.52347 -6
      vertex 14.5678 13.6444 -6
      vertex 15.0352 13.9839 -6
    endloop
  endfacet
  facet normal 0 0 -1
    outer loop
      vertex 12.9363 9.52347 -6
      vertex 15.0352 13.9839 -6
      vertex 15.5414 14.2622 -6
    endloop
  endfacet
  facet normal 0 0 -1
    outer loop
      vertex 12.9363 9.52347 -6
      vertex 15.5414 14.2622 -6
      vertex 16.0785 14.4749 -6
    endloop
  endfacet
  facet normal 0 0 -1
    outer loop
      vertex 12.9363 9.52347 -6
      vertex 16.0785 14.4749 -6
      vertex 16.638 14.6185 -6
    endloop
  endfacet
  facet normal 0 0 -1
    outer loop
      vertex 12.9363 9.52347 -6
      vertex 16.638 14.6185 -6
      vertex 17.2112 14.6909 -6
    endloop
  endfacet
  facet normal 0 0 -1
    outer loop
      vertex 12.9363 9.52347 -6
      vertex 17.2112 14.6909 -6
      vertex 17.7888 14.6909 -6
    endloop
  endfacet
  facet normal 0 0 -1
    outer loop
      vertex 12.9363 9.52347 -6
      vertex 17.7888 14.6909 -6
      vertex 18.362 14.6185 -6
    endloop
  endfacet
  facet normal 0 0 -1
    outer loop
      vertex 16.393 12.4525 -6
      vertex 18.362 14.6185 -6
      vertex 18.9215 14.4749 -6
    endloop
  endfacet
  facet normal 0 0 -1
    outer loop
      vertex 17.0128 12.6539 -6
      vertex 18.9215 14.4749 -6
      vertex 19.4586 14.2622 -6
    endloop
  endfacet
  facet normal 0 0 -1
    outer loop
      vertex 17.6633 12.6949 -6
      vertex 19.4586 14.2622 -6
      vertex 19.9648 13.9839 -6
    endloop
  endfacet
  facet normal 0 0 -1
    outer loop
      vertex 18.3034 12.5727 -6
      vertex 19.9648 13.9839 -6
      vertex 20.4322 13.6444 -6
    endloop
  endfacet
  facet normal 0 0 -1
    outer loop
      vertex 18.607 12.4525 -6
      vertex 20.4322 13.6444 -6
      vertex 20.8533 13.2489 -6
    endloop
  endfacet
  facet normal 0 0 -1
    outer loop
      vertex 19.1573 12.1033 -6
      vertex 20.8533 13.2489 -6
      vertex 21.2215 12.8038 -6
    endloop
  endfacet
  facet normal 0 0 -1
    outer loop
      vertex 19.3953 11.8798 -6
      vertex 21.2215 12.8038 -6
      vertex 21.531 12.3161 -6
    endloop
  endfacet
  facet normal 0 0 -1
    outer loop
      vertex 19.7784 11.3526 -6
      vertex 21.531 12.3161 -6
      vertex 21.777 11.7934 -6
    endloop
  endfacet
  facet normal 0 0 -1
    outer loop
      vertex 19.9174 11.0571 -6
      vertex 21.777 11.7934 -6
      vertex 21.9555 11.244 -6
    endloop
  endfacet
  facet normal 0 0 -1
    outer loop
      vertex 20.0183 10.7466 -6
      vertex 21.9555 11.244 -6
      vertex 22.0637 10.6765 -6
    endloop
  endfacet
  facet normal 0 0 -1
    outer loop
      vertex 20.1 10.1 -6
      vertex 22.0637 10.6765 -6
      vertex 22.1 10.1 -6
    endloop
  endfacet
  facet normal 0 0 -1
    outer loop
      vertex 20.0795 9.77413 -6
      vertex 22.1 10.1 -6
      vertex 22.0637 9.52347 -6
    endloop
  endfacet
  facet normal 0 0 -1
    outer loop
      vertex 19.9174 9.14288 -6
      vertex 22.0637 9.52347 -6
      vertex 21.9555 8.95603 -6
    endloop
  endfacet
  facet normal 0 0 -1
    outer loop
      vertex 19.7784 8.84744 -6
      vertex 21.9555 8.95603 -6
      vertex 21.777 8.40663 -6
    endloop
  endfacet
  facet normal 0 0 -1
    outer loop
      vertex 19.3953 8.32018 -6
      vertex 21.777 8.40663 -6
      vertex 21.531 7.88393 -6
    endloop
  endfacet
  facet normal 0 0 -1
    outer loop
      vertex 19.1573 8.09667 -6
      vertex 21.531 7.88393 -6
      vertex 21.2215 7.39619 -6
    endloop
  endfacet
  facet normal 0 0 -1
    outer loop
      vertex 18.607 7.74745 -6
      vertex 21.2215 7.39619 -6
      vertex 20.8533 6.95108 -6
    endloop
  endfacet
  facet normal 0 0 -1
    outer loop
      vertex 17.9872 7.54605 -6
      vertex 20.8533 6.95108 -6
      vertex 20.4322 6.55564 -6
    endloop
  endfacet
  facet normal 0 0 -1
    outer loop
      vertex 17.3367 7.50513 -6
      vertex 20.4322 6.55564 -6
      vertex 19.9648 6.21609 -6
    endloop
  endfacet
  facet normal 0 0 -1
    outer loop
      vertex 16.6966 7.62725 -6
      vertex 19.9648 6.21609 -6
      vertex 19.4586 5.9378 -6
    endloop
  endfacet
  facet normal 0 0 -1
    outer loop
      vertex 12.9363 9.52347 -6
      vertex 19.4586 5.9378 -6
      vertex 18.9215 5.72514 -6
    endloop
  endfacet
  facet normal 0 0 -1
    outer loop
      vertex 12.9363 9.52347 -6
      vertex 18.9215 5.72514 -6
      vertex 18.362 5.58148 -6
    endloop
  endfacet
  facet normal 0 0 -1
    outer loop
      vertex 12.9363 9.52347 -6
      vertex 18.362 5.58148 -6
      vertex 17.7888 5.50908 -6
    endloop
  endfacet
  facet normal 0 0 -1
    outer loop
      vertex 12.9363 9.52347 -6
      vertex 17.7888 5.50908 -6
      vertex 17.2112 5.50908 -6
    endloop
  endfacet
  facet normal 0 0 -1
    outer loop
      vertex 12.9363 9.52347 -6
      vertex 17.2112 5.50908 -6
      vertex 16.638 5.58148 -6
    endloop
  endfacet
  facet normal 0 0 -1
    outer loop
      vertex 12.9363 9.52347 -6
      vertex 16.638 5.58148 -6
      vertex 16.0785 5.72514 -6
    endloop
  endfacet
  facet normal 0 0 -1
    outer loop
      vertex 12.9363 9.52347 -6
      vertex 16.0785 5.72514 -6
      vertex 15.5414 5.9378 -6
    endloop
  endfacet
  facet normal 0 0 -1
    outer loop
      vertex 12.9363 9.52347 -6
      vertex 15.5414 5.9378 -6
      vertex 15.0352 6.21609 -6
    endloop
  endfacet
  facet normal 0 0 -1
    outer loop
      vertex 12.9363 9.52347 -6
      vertex 15.0352 6.21609 -6
      vertex 14.5678 6.55564 -6
    endloop
  endfacet
  facet normal 0 0 -1
    outer loop
      vertex 12.9363 9.52347 -6
      vertex 14.5678 6.55564 -6
      vertex 14.1467 6.95108 -6
    endloop
  endfacet
  facet normal 0 0 -1
    outer loop
      vertex 12.9363 9.52347 -6
      vertex 14.1467 6.95108 -6
      vertex 13.7785 7.39619 -6
    endloop
  endfacet
  facet normal 0 0 -1
    outer loop
      vertex 12.9363 9.52347 -6
      vertex 13.7785 7.39619 -6
      vertex 13.469 7.88393 -6
    endloop
  endfacet
  facet normal 0 0 -1
    outer loop
      vertex 12.9363 9.52347 -6
      vertex 13.469 7.88393 -6
      vertex 13.223 8.40663 -6
    endloop
  endfacet
  facet normal 0 0 -1
    outer loop
      vertex 12.9363 9.52347 -6
      vertex 13.223 8.40663 -6
      vertex 13.0445 8.95603 -6
    endloop
  endfacet
  facet normal 0 0 -1
    outer loop
      vertex 14.9205 9.77413 -6
      vertex 12.9363 9.52347 -6
      vertex 14.9 10.1 -6
    endloop
  endfacet
  facet normal 0 0 -1
    outer loop
      vertex 20.0183 10.7466 -6
      vertex 22.0637 10.6765 -6
      vertex 20.0795 10.4259 -6
    endloop
  endfacet
  facet normal 0 0 -1
    outer loop
      vertex 14.9817 9.45341 -6
      vertex 12.9363 9.52347 -6
      vertex 14.9205 9.77413 -6
    endloop
  endfacet
  facet normal 0 0 -1
    outer loop
      vertex 15.0826 9.14288 -6
      vertex 12.9363 9.52347 -6
      vertex 14.9817 9.45341 -6
    endloop
  endfacet
  facet normal 0 0 -1
    outer loop
      vertex 15.2216 8.84744 -6
      vertex 12.9363 9.52347 -6
      vertex 15.0826 9.14288 -6
    endloop
  endfacet
  facet normal 0 0 -1
    outer loop
      vertex 15.3966 8.57176 -6
      vertex 12.9363 9.52347 -6
      vertex 15.2216 8.84744 -6
    endloop
  endfacet
  facet normal 0 0 -1
    outer loop
      vertex 15.6047 8.32018 -6
      vertex 12.9363 9.52347 -6
      vertex 15.3966 8.57176 -6
    endloop
  endfacet
  facet normal 0 0 -1
    outer loop
      vertex 15.8427 8.09667 -6
      vertex 12.9363 9.52347 -6
      vertex 15.6047 8.32018 -6
    endloop
  endfacet
  facet normal 0 0 -1
    outer loop
      vertex 16.6966 7.62725 -6
      vertex 19.4586 5.9378 -6
      vertex 16.393 7.74745 -6
    endloop
  endfacet
  facet normal 0 0 -1
    outer loop
      vertex 12.9363 9.52347 -6
      vertex 15.8427 8.09667 -6
      vertex 16.1068 7.90475 -6
    endloop
  endfacet
  facet normal 0 0 -1
    outer loop
      vertex 12.9363 9.52347 -6
      vertex 16.1068 7.90475 -6
      vertex 19.4586 5.9378 -6
    endloop
  endfacet
  facet normal 0 0 -1
    outer loop
      vertex 16.1068 7.90475 -6
      vertex 16.393 7.74745 -6
      vertex 19.4586 5.9378 -6
    endloop
  endfacet
  facet normal 0 0 -1
    outer loop
      vertex 17.0128 7.54605 -6
      vertex 19.9648 6.21609 -6
      vertex 16.6966 7.62725 -6
    endloop
  endfacet
  facet normal 0 0 -1
    outer loop
      vertex 17.3367 7.50513 -6
      vertex 19.9648 6.21609 -6
      vertex 17.0128 7.54605 -6
    endloop
  endfacet
  facet normal 0 0 -1
    outer loop
      vertex 17.6633 7.50513 -6
      vertex 20.4322 6.55564 -6
      vertex 17.3367 7.50513 -6
    endloop
  endfacet
  facet normal 0 0 -1
    outer loop
      vertex 17.9872 7.54605 -6
      vertex 20.4322 6.55564 -6
      vertex 17.6633 7.50513 -6
    endloop
  endfacet
  facet normal 0 0 -1
    outer loop
      vertex 18.3034 7.62725 -6
      vertex 20.8533 6.95108 -6
      vertex 17.9872 7.54605 -6
    endloop
  endfacet
  facet normal 0 0 -1
    outer loop
      vertex 18.607 7.74745 -6
      vertex 20.8533 6.95108 -6
      vertex 18.3034 7.62725 -6
    endloop
  endfacet
  facet normal 0 0 -1
    outer loop
      vertex 18.8931 7.90475 -6
      vertex 21.2215 7.39619 -6
      vertex 18.607 7.74745 -6
    endloop
  endfacet
  facet normal 0 0 -1
    outer loop
      vertex 19.1573 8.09667 -6
      vertex 21.2215 7.39619 -6
      vertex 18.8931 7.90475 -6
    endloop
  endfacet
  facet normal 0 0 -1
    outer loop
      vertex 19.6034 8.57176 -6
      vertex 21.777 8.40663 -6
      vertex 19.3953 8.32018 -6
    endloop
  endfacet
  facet normal 0 0 -1
    outer loop
      vertex 19.7784 8.84744 -6
      vertex 21.777 8.40663 -6
      vertex 19.6034 8.57176 -6
    endloop
  endfacet
  facet normal 0 0 -1
    outer loop
      vertex 19.3953 8.32018 -6
      vertex 21.531 7.88393 -6
      vertex 19.1573 8.09667 -6
    endloop
  endfacet
  facet normal 0 0 -1
    outer loop
      vertex 20.0183 9.45341 -6
      vertex 22.0637 9.52347 -6
      vertex 19.9174 9.14288 -6
    endloop
  endfacet
  facet normal 0 0 -1
    outer loop
      vertex 20.0795 9.77413 -6
      vertex 22.0637 9.52347 -6
      vertex 20.0183 9.45341 -6
    endloop
  endfacet
  facet normal 0 0 -1
    outer loop
      vertex 19.9174 9.14288 -6
      vertex 21.9555 8.95603 -6
      vertex 19.7784 8.84744 -6
    endloop
  endfacet
  facet normal 0 0 -1
    outer loop
      vertex 20.0795 10.4259 -6
      vertex 22.0637 10.6765 -6
      vertex 20.1 10.1 -6
    endloop
  endfacet
  facet normal 0 0 -1
    outer loop
      vertex 19.9174 11.0571 -6
      vertex 21.9555 11.244 -6
      vertex 20.0183 10.7466 -6
    endloop
  endfacet
  facet normal 0 0 -1
    outer loop
      vertex 19.6034 11.6282 -6
      vertex 21.531 12.3161 -6
      vertex 19.7784 11.3526 -6
    endloop
  endfacet
  facet normal 0 0 -1
    outer loop
      vertex 19.3953 11.8798 -6
      vertex 21.531 12.3161 -6
      vertex 19.6034 11.6282 -6
    endloop
  endfacet
  facet normal 0 0 -1
    outer loop
      vertex 19.7784 11.3526 -6
      vertex 21.777 11.7934 -6
      vertex 19.9174 11.0571 -6
    endloop
  endfacet
  facet normal 0 0 -1
    outer loop
      vertex 18.8931 12.2953 -6
      vertex 20.8533 13.2489 -6
      vertex 19.1573 12.1033 -6
    endloop
  endfacet
  facet normal 0 0 -1
    outer loop
      vertex 18.3034 12.5727 -6
      vertex 20.4322 13.6444 -6
      vertex 18.607 12.4525 -6
    endloop
  endfacet
  facet normal 0 0 -1
    outer loop
      vertex 17.9872 12.6539 -6
      vertex 19.9648 13.9839 -6
      vertex 18.3034 12.5727 -6
    endloop
  endfacet
  facet normal 0 0 -1
    outer loop
      vertex 17.6633 12.6949 -6
      vertex 19.9648 13.9839 -6
      vertex 17.9872 12.6539 -6
    endloop
  endfacet
  facet normal 0 0 -1
    outer loop
      vertex 17.3367 12.6949 -6
      vertex 19.4586 14.2622 -6
      vertex 17.6633 12.6949 -6
    endloop
  endfacet
  facet normal 0 0 -1
    outer loop
      vertex 17.0128 12.6539 -6
      vertex 19.4586 14.2622 -6
      vertex 17.3367 12.6949 -6
    endloop
  endfacet
  facet normal 0 0 -1
    outer loop
      vertex 16.6966 12.5727 -6
      vertex 18.9215 14.4749 -6
      vertex 17.0128 12.6539 -6
    endloop
  endfacet
  facet normal 0 0 -1
    outer loop
      vertex 16.393 12.4525 -6
      vertex 18.9215 14.4749 -6
      vertex 16.6966 12.5727 -6
    endloop
  endfacet
  facet normal 0 0 -1
    outer loop
      vertex 16.1068 12.2953 -6
      vertex 18.362 14.6185 -6
      vertex 16.393 12.4525 -6
    endloop
  endfacet
  facet normal 0 0 -1
    outer loop
      vertex 15.3966 11.6282 -6
      vertex 12.9363 9.52347 -6
      vertex 15.6047 11.8798 -6
    endloop
  endfacet
  facet normal 0 0 -1
    outer loop
      vertex 15.8427 12.1033 -6
      vertex 18.362 14.6185 -6
      vertex 16.1068 12.2953 -6
    endloop
  endfacet
  facet normal 0 0 -1
    outer loop
      vertex 12.9363 9.52347 -6
      vertex 18.362 14.6185 -6
      vertex 15.8427 12.1033 -6
    endloop
  endfacet
  facet normal 0 0 -1
    outer loop
      vertex 12.9363 9.52347 -6
      vertex 15.8427 12.1033 -6
      vertex 15.6047 11.8798 -6
    endloop
  endfacet
  facet normal 0 0 -1
    outer loop
      vertex 15.2216 11.3526 -6
      vertex 12.9363 9.52347 -6
      vertex 15.3966 11.6282 -6
    endloop
  endfacet
  facet normal 0 0 -1
    outer loop
      vertex 15.0826 11.0571 -6
      vertex 12.9363 9.52347 -6
      vertex 15.2216 11.3526 -6
    endloop
  endfacet
  facet normal 0 0 -1
    outer loop
      vertex 14.9817 10.7466 -6
      vertex 12.9363 9.52347 -6
      vertex 15.0826 11.0571 -6
    endloop
  endfacet
  facet normal 0 0 -1
    outer loop
      vertex 14.9205 10.4259 -6
      vertex 12.9363 9.52347 -6
      vertex 14.9817 10.7466 -6
    endloop
  endfacet
  facet normal 0 0 -1
    outer loop
      vertex 14.9 10.1 -6
      vertex 12.9363 9.52347 -6
      vertex 14.9205 10.4259 -6
    endloop
  endfacet
  facet normal 0 0 -1
    outer loop
      vertex 18.607 12.4525 -6
      vertex 20.8533 13.2489 -6
      vertex 18.8931 12.2953 -6
    endloop
  endfacet
  facet normal 0 0 -1
    outer loop
      vertex 19.1573 12.1033 -6
      vertex 21.2215 12.8038 -6
      vertex 19.3953 11.8798 -6
    endloop
  endfacet
  facet normal 0 0 -1
    outer loop
      vertex 20.1 10.1 -6
      vertex 22.1 10.1 -6
      vertex 20.0795 9.77413 -6
    endloop
  endfacet
endsolid OpenSCAD_Model
